<svg class="main-svg" xmlns="http://www.w3.org/2000/svg" xmlns:xlink="http://www.w3.org/1999/xlink" width="700" height="450" style="" viewBox="0 0 700 450"><rect x="0" y="0" width="700" height="450" style="fill: rgb(255, 255, 255); fill-opacity: 1;"/><defs id="defs-715292"><g class="clips"><clipPath class="plotclip" id="clip715292xyplot"><rect width="459" height="330"/></clipPath><clipPath class="axesclip" id="clip715292x"><rect x="60" y="0" width="459" height="450"/></clipPath><clipPath class="axesclip" id="clip715292y"><rect x="0" y="60" width="700" height="330"/></clipPath><clipPath class="axesclip" id="clip715292xy"><rect x="60" y="60" width="459" height="330"/></clipPath></g><g class="gradients"/></defs><g class="bglayer"><rect class="bg" x="60" y="60" width="459" height="330" style="fill: rgb(255, 255, 255); fill-opacity: 1; stroke-width: 0;"/></g><g class="layer-below"><g class="imagelayer"/><g class="shapelayer"/></g><g class="cartesianlayer"><g class="subplot xy"><g class="layer-subplot"><g class="shapelayer"/><g class="imagelayer"/></g><g class="gridlayer" transform="translate(60,60)"><path class="xgrid crisp" d="M0,0v330" transform="translate(91.8,0)" style="stroke: rgb(238, 238, 238); stroke-opacity: 1; stroke-width: 1px;"/><path class="xgrid crisp" d="M0,0v330" transform="translate(183.6,0)" style="stroke: rgb(238, 238, 238); stroke-opacity: 1; stroke-width: 1px;"/><path class="xgrid crisp" d="M0,0v330" transform="translate(275.4,0)" style="stroke: rgb(238, 238, 238); stroke-opacity: 1; stroke-width: 1px;"/><path class="xgrid crisp" d="M0,0v330" transform="translate(367.2,0)" style="stroke: rgb(238, 238, 238); stroke-opacity: 1; stroke-width: 1px;"/><path class="ygrid crisp" d="M0,0h459" transform="translate(0,264)" style="stroke: rgb(238, 238, 238); stroke-opacity: 1; stroke-width: 1px;"/><path class="ygrid crisp" d="M0,0h459" transform="translate(0,198)" style="stroke: rgb(238, 238, 238); stroke-opacity: 1; stroke-width: 1px;"/><path class="ygrid crisp" d="M0,0h459" transform="translate(0,132)" style="stroke: rgb(238, 238, 238); stroke-opacity: 1; stroke-width: 1px;"/><path class="ygrid crisp" d="M0,0h459" transform="translate(0,66)" style="stroke: rgb(238, 238, 238); stroke-opacity: 1; stroke-width: 1px;"/></g><g class="overgrid"/><g class="zerolinelayer" transform="translate(60,60)"><path class="xzl zl crisp" d="M0,0v330" transform="translate(0,0)" style="stroke: rgb(68, 68, 68); stroke-opacity: 1; stroke-width: 1px;"/><path class="yzl zl crisp" d="M0,0h459" transform="translate(0,330)" style="stroke: rgb(68, 68, 68); stroke-opacity: 1; stroke-width: 1px;"/></g><g class="overzero"/><path class="xlines-below"/><path class="ylines-below"/><g class="overlines-below"/><g class="xaxislayer-below"/><g class="yaxislayer-below"/><g class="overaxes-below"/><g class="plot" transform="translate(60, 60)" clip-path="url(#clip715292xyplot)"><g class="imagelayer"/><g class="maplayer"/><g class="barlayer"/><g class="carpetlayer"/><g class="boxlayer"/><g class="scatterlayer"><g class="trace scatter tracef57228" style="stroke-miterlimit: 2; opacity: 1;"><path class="js-line" d="M1.61,0L219.03,0L219.03,2.41L228.69,2.31L228.69,4.58L238.36,4.4L238.36,6.56L265.74,5.89L265.74,7.81L277.01,7.5L277.01,9.32L285.06,9.07L285.06,10.82L285.06,14.27L286.67,14.19L294.73,13.82L294.73,15.47L294.73,17.1L296.34,17.01L301.17,16.75L301.17,18.33L306,18.06L306,19.6L306,24.15L307.61,24.03L307.61,25.51L309.22,25.38L309.22,29.72L310.83,29.58L310.83,33.77L312.44,33.61L312.44,39L314.05,38.82L315.66,38.65L315.66,39.96L315.66,41.25L317.27,41.07L318.88,40.88L318.88,42.16L318.88,43.42L320.49,43.23L320.49,46.94L322.11,46.74L322.11,51.52L323.72,51.3L323.72,55.91L325.33,55.68L325.33,57.92L326.94,57.68L326.94,70.35L328.55,70.08L328.55,75.96L330.16,75.68L331.77,75.39L331.77,76.34L331.77,83.7L333.38,83.39L333.38,98.44L334.99,98.11L336.6,97.78L336.6,98.56L336.6,100.86L338.21,100.53L338.21,102.04L339.82,101.7L339.82,109.65L341.43,109.31L343.04,108.96L343.04,109.66L343.04,110.34L343.04,125.07L344.65,124.71L344.65,133.83L346.26,133.46L346.26,154.38L347.87,154L347.87,161.49L349.48,161.11L349.48,168.35L351.09,167.97L351.09,190.85L352.71,190.48L352.71,193.13L354.32,192.76L354.32,195.06L355.93,194.69L355.93,200.46L357.54,200.11L357.54,206.25L359.15,205.9L359.15,209.75L360.76,209.41L360.76,247.59L362.37,247.32L362.37,265.32L363.98,265.09L363.98,266.64L365.59,266.41L365.59,267.73L367.2,267.51L367.2,277.46L368.81,277.26L368.81,278.1L370.42,277.91L370.42,287.65L372.03,287.48L372.03,294.64L373.64,294.51L373.64,315.27L375.25,315.2L375.25,321.03L375.25,321.03" style="vector-effect: non-scaling-stroke; fill: none; stroke: rgb(31, 119, 180); stroke-opacity: 1; stroke-width: 2px; opacity: 1;"/><g class="points"/></g><g class="trace scatter trace9921bd" style="stroke-miterlimit: 2; opacity: 1;"><path class="js-line" d="M1.36,0L85.81,0L85.81,5.16L125.31,3.55L126.67,3.51L187.96,2.37L187.96,4.71L224.73,3.95L224.73,5.89L226.09,5.86L226.09,7.76L273.77,6.44L273.77,8.01L273.77,9.57L275.13,9.52L288.75,9.08L288.75,10.55L292.83,10.41L292.83,11.84L294.2,11.79L294.2,13.2L294.2,15.99L295.56,15.92L296.92,15.85L296.92,17.22L298.28,17.14L298.28,18.49L302.37,18.26L302.37,19.58L307.82,19.25L307.82,20.54L309.18,20.45L309.18,21.73L311.9,21.55L311.9,22.8L314.63,22.62L314.63,23.86L314.63,26.29L315.99,26.19L315.99,27.39L317.35,27.28L317.35,28.47L318.71,28.36L318.71,29.53L320.07,29.42L320.07,32.87L321.44,32.75L321.44,33.88L322.8,33.75L322.8,34.87L324.16,34.74L329.61,34.22L329.61,35.31L329.61,37.47L330.97,37.34L333.69,37.07L333.69,38.12L333.69,39.17L335.06,39.03L336.42,38.89L336.42,39.93L336.42,41.98L337.78,41.83L339.14,41.68L339.14,42.69L340.5,42.54L340.5,43.54L341.87,43.39L341.87,44.38L341.87,45.36L343.23,45.21L343.23,50L344.59,49.83L344.59,55.36L345.95,55.18L345.95,56.97L347.31,56.79L347.31,62.86L348.68,62.66L350.04,62.46L350.04,63.3L350.04,66.61L351.4,66.41L352.76,66.2L352.76,67.02L352.76,67.82L354.12,67.61L355.49,67.41L355.49,68.21L355.49,75.93L356.85,75.71L356.85,81.55L358.21,81.32L358.21,86.21L359.57,85.97L360.93,85.73L360.93,86.41L360.93,87.08L360.93,87.76L362.3,87.51L362.3,89.51L363.66,89.26L365.02,89.02L365.02,89.67L365.02,90.33L365.02,105.53L366.38,105.27L366.38,106.4L367.74,106.13L367.74,110.54L369.11,110.27L369.11,112.41L370.47,112.14L370.47,117.3L371.83,117.02L371.83,119.02L373.19,118.74L373.19,134.29L374.55,134L374.55,136.91L375.92,136.62L375.92,151.06L377.28,150.76L377.28,153.87L378.64,153.58L378.64,154.25L380,153.96L380,162.3L381.36,162L381.36,162.91L382.73,162.62L384.09,162.32L384.09,162.93L384.09,163.23L384.09,172L385.45,171.71L385.45,177.15L386.81,176.86L386.81,195.34L388.18,195.06L388.18,198.46L389.54,198.18L389.54,199.82L390.9,199.55L390.9,208.89L392.26,208.62L392.26,209.54L393.62,209.28L393.62,227.67L394.99,227.43L394.99,230.62L396.35,230.38L396.35,233.78L397.71,233.54L397.71,235.44L399.07,235.21L399.07,243.82L400.43,243.61L400.43,257.65L401.8,257.46L401.8,259.51L403.16,259.32L403.16,260.63L404.52,260.44L404.52,260.73L405.88,260.55L405.88,260.89L407.24,260.71L407.24,262.23L408.61,262.05L408.61,272.21L409.97,272.05L409.97,272.91L411.33,272.76L411.33,275.42L412.69,275.27L412.69,277.68L414.05,277.53L414.05,299.41L415.42,299.31L415.42,307.26L415.42,307.26" style="vector-effect: non-scaling-stroke; fill: none; stroke: rgb(255, 127, 14); stroke-opacity: 1; stroke-width: 2px; opacity: 1;"/><g class="points"/></g><g class="trace scatter traced4868e" style="stroke-miterlimit: 2; opacity: 1;"><path class="js-line" d="M1,0L116,0L116,2.82L148,2.21L148,4.4L184,3.55L184,5.29L206,4.74L206,6.29L211,6.14L211,7.64L223,7.24L223,8.65L224,8.61L224,10L227,9.87L227,11.23L229,11.14L229,12.48L235,12.17L235,13.47L239,13.25L239,14.52L242,14.35L242,15.59L244,15.47L244,16.69L251,16.25L251,17.43L252,17.37L252,18.54L253,18.47L253,19.63L254,19.56L254,20.7L260,20.25L260,21.37L264,21.06L264,22.16L265,22.08L265,23.16L267,23L267,24.06L268,23.98L268,25.03L270,24.86L270,25.9L270,26.94L271,26.85L271,27.87L272,27.78L272,29.8L273,29.7L274,29.6L274,30.6L274,31.58L275,31.48L275,32.46L276,32.35L277,32.25L277,33.21L281,32.79L281,33.74L283,33.52L283,34.46L286,34.14L286,35.06L287,34.95L287,35.87L289,35.65L289,36.55L290,36.44L290,37.34L291,37.23L291,38.12L291,39L292,38.88L292,39.76L293,39.64L295,39.4L295,40.27L296,40.15L296,41.01L296,41.86L297,41.74L298,41.61L298,42.46L298,44.96L299,44.83L299,46.47L300,46.33L300,47.95L301,47.81L302,47.68L302,48.47L302,51.62L303,51.48L304,51.33L304,52.11L306,51.82L306,52.58L309,52.15L309,52.91L309,54.41L310,54.26L310,58.65L311,58.49L314,58.03L314,58.74L314,59.45L314,62.25L315,62.09L315,63.46L316,63.3L316,66L317,65.83L317,67.16L318,66.99L319,66.82L319,67.48L319,68.13L319,71.35L320,71.18L321,71L321,71.63L321,72.26L321,80.17L322,79.98L324,80.19L324,80.77L324,85.89L325,85.69L325,89.53L326,89.33L326,95.11L327,94.9L328,94.7L328,95.21L328,95.71L328,98.22L329,98.01L329,100.95L330,100.74L330,105L331,104.78L332,104.57L332,105.03L332,105.49L333,105.28L333,105.73L333,106.19L334,105.98L334,106.43L334,106.88L334,116.81L335,116.58L336,116.36L336,116.77L336,117.18L336,117.99L337,117.77L338,117.54L338,117.95L338,118.35L338,119.94L339,119.72L339,126.97L340,126.74L340,127.84L341,127.61L341,138.95L342,138.71L342,141.27L343,141.04L343,146.55L344,146.31L344,156.42L345,156.18L345,162.08L346,161.84L346,165.24L347,165L347,167.57L348,167.34L348,170.94L349,170.71L351,170.45L351,170.89L351,171.11L351,171.55L352,171.31L352,185.34L353,185.11L353,185.47L354,185.24L354,185.6L355,185.37L355,191.03L356,190.81L356,194.03L357,193.8L357,195.51L358,195.29L358,196.05L359,195.83L359,204.5L360,204.29L360,206.76L361,206.55L361,208.44L362,208.23L362,212.54L363,212.33L363,219.29L364,219.09L364,219.9L365,219.7L365,221.78L366,221.58L366,222.26L367,222.06L367,225.68L368,225.49L368,226.03L369,225.83L369,233.82L370,233.63L370,242.97L371,242.8L371,253.39L372,253.23L372,265.42L373,265.28L373,273.95L374,273.82L374,275.61L375,275.48L375,275.75L376,275.63L376,279.17L377,279.05L377,279.28L378,279.17L378,296.54L379,296.46L379,296.97L379,296.97L380,296.9L380,304.21L380,304.21L381,304.15L381,310.86L382,310.81L382,311.81L382,311.81L383,311.77L383,315.4L383,315.4L384,315.36L384,315.52L384,315.52L385,315.48L385,323.55L386,323.53L386,324.34L386,324.34" style="vector-effect: non-scaling-stroke; fill: none; stroke: rgb(44, 160, 44); stroke-opacity: 1; stroke-width: 2px; opacity: 1;"/><g class="points"/></g><g class="trace scatter trace73c0dd" style="stroke-miterlimit: 2; opacity: 1;"><path class="js-line" d="M1.75,0L36.65,0L36.65,15L47.12,11.79L48.87,11.38L59.34,9.43L59.34,18.33L68.06,16.1L68.06,23.57L80.28,20.2L80.28,26.4L95.99,22.37L97.73,22L99.48,21.64L99.48,26.61L111.7,23.91L111.7,28.29L129.15,24.75L129.15,28.52L148.35,25.11L148.35,28.39L155.33,27.22L155.33,30.31L158.82,29.7L158.82,32.67L172.78,30.28L172.78,33L172.78,38.3L174.52,37.96L176.27,37.63L176.27,40.17L183.25,38.82L183.25,41.25L186.74,40.57L186.74,42.93L186.74,45.24L188.49,44.88L191.98,44.17L191.98,46.41L191.98,48.6L193.72,48.23L193.72,54.59L195.47,54.18L197.21,53.78L197.21,55.81L197.21,57.81L198.96,57.39L200.7,56.98L200.7,58.93L204.19,58.1L204.19,60L207.68,59.17L207.68,61.03L207.68,64.66L209.43,64.23L211.17,63.8L211.17,65.56L211.17,67.3L212.92,66.86L216.41,66L216.41,67.69L218.16,67.26L218.16,68.92L221.65,68.06L221.65,69.69L221.65,71.3L223.39,70.86L225.14,70.43L225.14,72L226.88,71.57L226.88,73.11L226.88,74.64L228.63,74.2L228.63,75.71L230.37,75.26L232.12,74.83L232.12,76.3L233.86,75.86L233.86,77.31L233.86,78.75L235.61,78.31L235.61,79.72L237.35,79.27L237.35,83.41L239.1,82.95L240.84,82.5L240.84,83.84L242.59,83.39L242.59,84.71L242.59,87.3L244.33,86.84L244.33,89.38L246.08,88.91L247.83,88.45L247.83,89.69L247.83,90.92L249.57,90.46L249.57,94.05L251.32,93.58L251.32,95.91L253.06,95.44L254.81,94.98L254.81,96.12L256.55,95.65L256.55,96.78L258.3,96.32L258.3,97.43L258.3,98.53L260.04,98.07L261.79,97.61L261.79,98.69L261.79,108.03L263.53,107.54L263.53,111.45L265.28,110.96L265.28,123.58L267.02,123.07L267.02,133.54L268.77,133.02L268.77,138.23L270.51,137.71L270.51,138.43L272.26,137.91L274,137.4L274,138.11L274,138.82L274,152.57L275.75,152.05L275.75,161.81L277.49,161.29L277.49,174.3L279.24,173.79L279.24,175.61L280.98,175.1L282.73,174.59L282.73,175.04L282.73,175.49L282.73,180.25L284.48,179.75L284.48,187.7L286.22,187.2L286.22,194.7L287.97,194.21L287.97,202.18L289.71,201.71L289.71,205.78L291.46,205.32L291.46,206.16L293.2,205.7L293.2,208.69L294.95,208.23L294.95,213.33L296.69,212.88L296.69,214.33L298.44,213.89L298.44,217.14L300.18,216.71L300.18,221.89L301.93,221.46L301.93,230.89L303.67,230.49L303.67,232.01L305.42,231.62L305.42,240.47L307.16,240.09L307.16,247.62L308.91,247.27L308.91,254.92L310.65,254.6L310.65,275.41L312.4,275.15L312.4,279.6L314.14,279.36L314.14,279.62L315.89,279.38L315.89,279.85L317.63,279.61L317.63,282.52L319.38,282.3L319.38,282.89L321.13,282.67L321.13,284.69L322.87,284.47L322.87,288.27L324.62,288.07L324.62,293.42L326.36,293.25L329.85,293.57L329.85,293.78L329.85,293.8L331.6,293.63L331.6,294.38L331.6,294.4L331.6,296.77L333.34,296.62L336.83,296.46L336.83,297.2L336.83,297.22L336.83,297.59L338.58,297.44L338.58,301.77L340.32,301.64L340.32,306.3L342.07,306.19L342.07,306.59L343.81,306.48L345.56,306.46L345.56,307.21L345.56,307.22L345.56,310.38L345.56,310.38L347.3,310.29L347.3,312.26L349.05,312.17L349.05,313.59L349.05,313.59L350.79,313.51L350.79,315.36L350.79,315.36L352.54,315.29L352.54,316.14L352.54,316.14L354.29,316.08L354.29,318.13L354.29,318.13L356.03,318.07L356.03,318.58L356.03,318.58L357.78,318.53L357.78,321.26L357.78,321.26L359.52,321.22L359.52,321.5L359.52,321.5L361.27,321.46L361.27,322.69L361.27,322.69L363.01,322.66L363.01,323.27L363.01,323.27L364.76,323.24L364.76,324.41L364.76,324.41" style="vector-effect: non-scaling-stroke; fill: none; stroke: rgb(214, 39, 40); stroke-opacity: 1; stroke-width: 2px; opacity: 1;"/><g class="points"/></g><g class="trace scatter trace421561" style="stroke-miterlimit: 2; opacity: 1;"><path class="js-line" d="M0.98,0L42.08,0L42.08,7.5L43.06,7.33L43.06,14.35L45.02,13.75L45.02,20.2L46,19.8L46,25.88L47.96,24.91L47.96,30.56L55.78,26.61L55.78,31.43L63.61,27.89L63.61,32.08L64.59,31.64L64.59,35.68L68.51,33.85L68.51,37.59L68.51,41.25L69.49,40.74L75.36,37.93L75.36,41.25L89.06,35.59L90.04,35.24L97.87,32.7L97.87,35.36L104.72,33.28L104.72,35.75L105.7,35.45L105.7,37.87L107.65,37.26L107.65,39.6L107.65,44.17L108.63,43.83L108.63,46.05L109.61,45.69L111.57,45L111.57,47.14L111.57,49.25L112.55,48.89L116.46,47.48L116.46,49.5L123.31,47.14L123.31,49.05L123.31,50.94L124.29,50.6L125.27,50.26L125.27,52.11L126.25,51.76L126.25,53.57L128.21,52.88L128.21,54.65L132.12,53.29L132.12,55L133.1,54.66L133.1,56.34L134.08,56L134.08,57.65L137.99,56.29L137.99,57.89L138.97,57.56L138.97,59.13L140.93,58.46L140.93,60L140.93,64.53L141.91,64.17L144.84,63.11L144.84,64.57L146.8,63.87L146.8,65.29L146.8,66.7L147.78,66.35L148.76,66L148.76,67.38L151.7,66.34L151.7,67.69L151.7,70.36L152.67,70L152.67,75.15L153.65,74.78L155.61,74.05L155.61,75.29L155.61,78.95L156.59,78.57L160.5,77.1L160.5,78.28L161.48,77.92L161.48,79.08L161.48,80.23L162.46,79.86L163.44,79.5L163.44,80.63L163.44,82.87L164.42,82.5L165.4,82.13L165.4,83.23L166.38,82.86L166.38,83.95L167.35,83.58L167.35,84.65L169.31,83.92L169.31,84.98L171.27,84.26L171.27,85.3L171.27,86.33L172.25,85.97L172.25,90L173.23,89.63L173.23,90.61L174.2,90.24L174.2,92.19L175.18,91.81L175.18,92.77L176.16,92.4L176.16,96.14L177.14,95.76L177.14,96.68L178.12,96.3L178.12,98.11L179.1,97.73L179.1,107.16L180.08,106.76L182.03,105.99L182.03,106.8L182.03,107.61L183.01,107.22L183.01,109.61L183.99,109.22L185.95,109.23L185.95,110L185.95,111.53L186.93,111.15L188.88,110.38L188.88,111.13L188.88,111.88L188.88,120.49L189.86,120.1L189.86,122.82L190.84,122.42L190.84,123.75L191.82,123.35L191.82,124.01L192.8,123.62L192.8,129.35L193.78,128.95L194.76,128.56L194.76,129.17L194.76,129.79L194.76,131.6L195.74,131.2L196.71,130.81L196.71,131.41L196.71,132L196.71,132.59L197.69,132.2L199.65,131.42L199.65,132L199.65,132.58L200.63,132.19L200.63,132.77L200.63,133.34L201.61,132.96L201.61,133.53L201.61,134.09L201.61,134.66L202.59,134.27L202.59,134.83L203.57,134.44L203.57,135L204.54,134.62L204.54,146.08L205.52,145.69L205.52,146.18L206.5,145.79L206.5,148.2L207.48,147.81L207.48,150.62L208.46,150.23L208.46,152.05L209.44,151.67L209.44,153.45L210.42,153.07L212.37,152.31L212.37,152.75L212.37,153.19L212.37,155.77L213.35,155.39L214.33,155.01L214.33,155.43L214.33,155.86L214.33,157.52L215.31,157.14L215.31,163.1L216.29,162.73L216.29,168.65L217.27,168.28L217.27,169.34L218.25,168.97L218.25,176.69L219.22,176.32L219.22,183.04L220.2,182.68L221.18,182.32L221.18,182.9L221.18,183.19L221.18,185.18L222.16,184.83L222.16,188.39L223.14,188.04L223.14,191.94L224.12,191.59L224.12,197.19L225.1,196.84L225.1,207.97L226.07,207.64L226.07,208.42L227.05,208.09L227.05,210.75L228.03,210.42L228.03,216.43L229.01,216.11L229.01,221.24L229.99,220.93L229.99,224.35L230.97,224.04L231.95,223.74L231.95,224.45L231.95,224.6L231.95,229.99L232.93,229.69L232.93,232.07L233.9,231.78L233.9,232.99L234.88,232.7L234.88,233.77L235.86,233.48L235.86,235.66L236.84,235.38L236.84,237.57L237.82,237.29L237.82,237.72L238.8,237.45L238.8,240.03L239.78,239.77L239.78,240.17L240.75,239.9L241.73,239.63L241.73,240.33L241.73,240.43L241.73,247L242.71,246.74L242.71,251.08L243.69,250.84L243.69,251.37L244.67,251.13L244.67,251.43L245.65,251.19L245.65,251.93L246.63,251.69L246.63,252.57L247.61,252.33L247.61,253.19L248.58,252.96L248.58,256.73L249.56,256.51L249.56,256.83L250.54,256.6L250.54,258.95L251.52,258.73L251.52,260.82L252.5,260.61L252.5,261.61L253.48,261.4L253.48,261.79L254.46,261.58L254.46,268.1L255.43,267.9L255.43,268.35L256.41,268.15L256.41,270.21L257.39,270.02L257.39,274.47L258.37,274.3L258.37,274.51L259.35,274.33L259.35,279.07L260.33,278.91L260.33,279.9L261.31,279.74L261.31,280.11L262.29,279.95L262.29,280.4L263.26,280.24L263.26,280.85L264.24,280.69L264.24,285.52L265.22,285.37L265.22,286.31L266.2,286.17L266.2,288.44L267.18,288.31L267.18,289.29L268.16,289.16L268.16,291.56L269.14,291.43L269.14,293.02L270.12,292.9L270.12,294.98L271.09,294.87L271.09,296.11L272.07,296L273.05,295.89L273.05,296.64L273.05,296.65L273.05,297.39L274.03,297.28L274.03,298.92L275.01,298.82L275.01,299.56L275.99,299.46L275.99,299.86L276.97,299.77L276.97,302.03L277.94,301.94L277.94,302.27L278.92,302.18L278.92,302.73L279.9,302.64L279.9,303.4L280.88,303.31L280.88,303.79L281.86,303.7L281.86,304.74L282.84,304.66L282.84,307.81L282.84,307.81L283.82,307.74L283.82,310.84L284.8,310.77L286.75,311.09L286.75,311.42L286.75,311.43L286.75,312.16L286.75,312.16L287.73,312.11L287.73,312.69L288.71,312.63L288.71,315.65L288.71,315.65L289.69,315.6L289.69,315.88L289.69,315.88L290.67,315.84L290.67,317.7L290.67,317.7L291.65,317.66L291.65,318.04L291.65,318.04L292.62,318L292.62,318.4L292.62,318.4L293.6,318.37L293.6,318.87L293.6,318.87L294.58,318.84L294.58,320.12L294.58,320.12L295.56,320.09L295.56,321.48L295.56,321.48L296.54,321.46L296.54,321.69L296.54,321.69L297.52,321.66L297.52,322.11L298.5,322.08L298.5,322.55L298.5,322.55L299.48,322.52L299.48,323.23L299.48,323.23L300.45,323.21L302.41,323.78L302.41,323.94L302.41,323.95L302.41,324.53L302.41,324.53L303.39,324.51L303.39,325.23L303.39,325.23L304.37,325.21L304.37,326.52L304.37,326.52L305.35,326.5L305.35,326.81L305.35,326.81" style="vector-effect: non-scaling-stroke; fill: none; stroke: rgb(148, 103, 189); stroke-opacity: 1; stroke-width: 2px; opacity: 1;"/><g class="points"/></g><g class="trace scatter trace45486e" style="stroke-miterlimit: 2; opacity: 1;"><path class="js-line" d="M2.15,0L215.49,0L215.49,3.27L258.59,2.73L258.59,5.41L258.59,8.05L260.75,7.98L265.06,7.86L265.06,10.39L275.83,10L275.83,12.41L284.45,12.04L284.45,14.35L306,13.38L306,15.5L316.77,15L316.77,17.03L316.77,19.04L318.93,18.92L318.93,20.89L321.08,20.75L323.24,20.63L323.24,22.55L325.39,22.41L325.39,24.29L327.55,24.15L327.55,26L331.86,25.69L331.86,27.5L336.17,27.18L336.17,28.95L342.63,28.45L342.63,30.17L342.63,35.22L344.79,35.03L344.79,36.67L346.94,36.46L346.94,42.81L349.1,42.58L351.25,42.35L351.25,43.88L351.25,58.33L353.41,58.04L353.41,82.88L355.56,82.5L355.56,91.18L357.72,90.79L357.72,100.79L359.87,100.38L359.87,119.66L362.03,119.2L362.03,143.33L364.18,142.85L364.18,169.28L366.34,168.79L366.34,182.76L368.49,182.28L368.49,256.43L370.65,256.09L370.65,257.51L372.8,257.18L372.8,275L374.96,274.74L374.96,277.32L377.11,277.07L377.11,281.39L379.27,281.15L379.27,300.83L381.42,300.68L381.42,304.65L383.58,304.52L383.58,306.72L385.73,306.6L385.73,308.61L387.89,308.49L387.89,310.11L387.89,310.11" style="vector-effect: non-scaling-stroke; fill: none; stroke: rgb(140, 86, 75); stroke-opacity: 1; stroke-width: 2px; opacity: 1;"/><g class="points"/></g><g class="trace scatter trace4c795e" style="stroke-miterlimit: 2; opacity: 1;"><path class="js-line" d="M0.38,0L96.69,0L96.69,1.3L140.64,0.89L141.02,0.89L198.73,0.63L198.73,1.26L198.73,1.89L228.54,2.19L228.54,2.74L244.21,3.07L244.21,3.58L251.48,3.96L251.48,4.45L251.48,4.94L251.86,4.93L252.24,4.93L253.77,5.38L253.77,5.86L261.41,6.15L261.41,6.62L269.82,6.87L269.82,7.31L279.37,7.5L279.37,7.93L289.69,8.07L289.69,8.48L290.08,9.3L290.46,9.28L294.28,9.57L294.28,9.97L296.96,10.29L296.96,10.68L298.48,10.63L298.48,11.03L298.48,11.42L298.48,11.81L298.87,11.8L299.25,11.79L307.27,11.87L307.27,12.25L307.66,12.24L307.66,12.62L307.66,13L308.04,13.73L308.42,13.72L309.57,14.04L309.57,14.42L309.57,14.79L309.95,14.77L310.33,14.75L312.62,15.38L312.62,15.75L314.92,16.37L314.92,16.73L317.21,17.33L317.21,17.69L317.59,19.08L317.98,19.06L317.98,19.41L318.36,19.39L318.74,19.37L319.12,20.04L319.5,20.02L319.5,20.37L319.89,20.35L320.27,20.32L321.41,20.6L321.41,20.95L321.41,21.29L321.41,21.98L321.8,21.95L322.18,21.93L322.18,23.62L322.56,23.6L322.94,23.57L324.47,24.14L324.47,24.47L324.85,25.11L325.24,25.08L325.24,25.74L325.62,25.71L326,25.69L326.38,25.66L326.38,26.31L326.38,26.64L326.38,26.97L326.77,26.94L327.15,26.91L327.53,27.85L327.91,27.82L328.68,27.76L328.68,28.41L328.68,28.73L329.06,29.65L329.44,29.62L329.82,31.16L330.2,31.13L331.73,31.31L331.73,31.63L331.73,31.94L331.73,32.86L332.12,32.83L332.5,32.8L332.88,34.29L333.26,34.25L333.26,35.47L333.64,35.43L334.03,35.39L334.03,36.29L334.41,36.26L334.79,36.22L335.17,36.18L335.17,36.78L335.17,37.07L335.56,37.04L335.56,37.63L335.56,37.92L335.94,39.35L336.32,39.31L336.7,40.14L337.08,40.1L337.85,40.6L337.85,40.88L338.23,41.41L338.61,41.37L339.38,41.86L339.38,42.14L339.76,42.95L340.14,42.9L340.91,42.82L340.91,43.38L340.91,43.66L342.05,43.81L342.05,44.09L342.05,44.36L342.43,45.14L342.82,45.1L343.2,45.06L343.2,45.6L343.2,45.88L343.58,49.33L343.96,49.28L344.73,49.45L344.73,49.72L344.73,49.98L346.64,50.27L346.64,50.53L346.64,50.79L347.02,50.75L347.4,50.7L347.79,50.65L347.79,51.17L347.79,51.43L348.93,51.29L348.93,51.8L348.93,52.06L349.31,54.55L349.7,54.5L350.84,55.1L350.84,55.35L351.22,56.04L351.61,55.99L351.99,56.44L352.37,56.38L352.37,58.34L352.75,58.29L353.14,58.24L353.9,58.13L353.9,58.86L353.9,59.1L354.28,61.19L354.66,61.13L354.66,61.6L355.05,61.55L355.43,61.5L355.81,65.15L356.19,65.09L356.19,66.45L356.58,66.4L356.96,66.34L357.72,66.45L357.72,66.9L357.72,67.12L358.1,67.74L358.49,67.68L359.25,68.23L359.25,68.45L359.63,71.01L360.01,70.95L361.16,70.99L361.16,71.42L361.16,71.63L361.54,76.4L361.93,76.34L362.31,78.72L362.69,78.66L363.07,81.58L363.45,81.52L363.84,84.95L364.22,84.88L364.6,86.33L364.98,86.26L365.37,88.44L365.75,88.37L366.13,90.86L366.51,90.79L366.89,91.98L367.28,91.91L367.66,93.27L368.04,93.2L368.42,102.28L368.81,102.21L369.19,105.19L369.57,105.12L369.95,108.01L370.33,107.94L370.33,110.23L370.72,110.15L371.1,110.08L371.48,110L371.48,110.75L371.48,110.9L371.86,114.07L372.24,113.99L372.63,116.92L373.01,116.84L373.39,123.06L373.77,122.98L374.16,125.78L374.54,125.7L374.92,126.4L374.92,126.52L375.3,130.82L375.68,130.74L376.07,134.97L376.45,134.89L376.83,136.78L377.21,136.7L377.6,138.89L377.98,138.8L378.36,143.53L378.74,143.45L379.89,144.26L379.89,144.36L380.27,149.69L380.65,149.6L381.03,162.05L381.42,161.97L381.8,175.01L382.18,174.92L382.18,175.51L382.56,175.42L382.95,175.34L382.95,176.35L383.33,176.27L383.71,176.18L384.09,194.36L384.47,194.28L384.86,199.27L385.24,199.19L385.62,200.44L386,200.36L386.39,209.6L386.77,209.52L387.15,209.45L387.15,210.18L387.15,210.23L387.53,216.03L387.91,215.96L388.3,230.6L388.68,230.53L389.06,235.48L389.44,235.41L389.83,244.13L390.21,244.07L390.59,253.75L390.97,253.69L391.35,261.51L391.74,261.46L392.12,264.17L392.5,264.12L392.88,270.02L393.26,269.97L393.65,275.66L394.03,275.62L394.41,281.1L394.41,281.1L394.79,281.06L395.18,291.51L395.18,291.51L395.56,291.48L395.94,293.72L395.94,293.72L396.32,293.69L396.7,297.76L397.09,297.73L397.47,304.47L397.85,304.44L398.23,308.51L398.23,308.51L398.62,308.49L399,316.17L399,316.17" style="vector-effect: non-scaling-stroke; fill: none; stroke: rgb(227, 119, 194); stroke-opacity: 1; stroke-width: 2px; opacity: 1;"/><g class="points"/></g><g class="trace scatter trace7315bd" style="stroke-miterlimit: 2; opacity: 1;"><path class="js-line" d="M1.28,0L62.82,0L62.82,6.6L88.47,4.71L89.75,4.65L128.21,3.27L129.49,3.24L170.52,2.46L170.52,4.89L198.73,4.2L198.73,6.27L200.01,6.23L200.01,8.25L238.47,6.95L238.47,8.64L297.45,6.96L297.45,8.32L300.02,8.25L300.02,9.59L305.15,9.43L305.15,10.73L332.07,9.89L332.07,11.08L343.61,10.72L343.61,11.87L351.3,11.62L351.3,12.74L353.87,12.65L353.87,13.75L364.12,13.38L364.12,14.44L374.38,14.07L374.38,15.1L376.94,15L376.94,16.02L376.94,17.03L378.23,16.98L378.23,17.98L379.51,17.92L383.35,17.75L383.35,18.74L383.35,21.66L384.64,21.59L385.92,21.52L385.92,22.48L385.92,24.37L387.2,24.29L388.48,24.22L388.48,25.15L391.05,25L391.05,25.92L391.05,31.34L392.33,31.24L392.33,34.74L393.61,34.64L393.61,37.2L394.89,37.09L394.89,37.93L396.18,37.82L396.18,38.66L397.46,38.55L397.46,39.38L398.74,39.26L398.74,51.87L400.02,51.73L400.02,63.26L401.3,63.1L401.3,64.47L402.59,64.31L402.59,67.67L403.87,67.5L403.87,98.49L405.15,98.27L405.15,107.18L406.43,106.95L406.43,108.84L407.72,108.61L407.72,110.46L409,110.23L409,118.19L410.28,117.95L410.28,120.48L411.56,120.24L411.56,140.5L412.84,140.25L412.84,140.93L414.13,140.67L414.13,162.41L415.41,162.15L415.41,181.29L416.69,181.04L416.69,200.94L417.97,200.7L417.97,227.54L419.25,227.33L419.25,230.64L420.54,230.42L420.54,231.15L421.82,230.94L421.82,265.95L423.1,265.79L423.1,285.91L424.38,285.8L424.38,291.22L425.66,291.12L425.66,301.69" style="vector-effect: non-scaling-stroke; fill: none; stroke: rgb(127, 127, 127); stroke-opacity: 1; stroke-width: 2px; opacity: 1;"/><g class="points"/></g><g class="trace scatter traced26bb4" style="stroke-miterlimit: 2; opacity: 1;"><path class="js-line" d="M0.61,0L7.29,0L7.29,25.38L7.89,23.57L7.89,44L10.93,33L11.54,31.43L12.75,28.7L12.75,41.25L16.39,33L16.39,42.58L20.64,34.74L21.25,33.85L21.25,41.25L21.86,40.24L22.46,39.29L27.93,32.35L28.54,31.73L33.39,27.5L33.39,32.46L37.04,29.55L37.04,33.97L44.32,28.88L44.93,28.52L52.21,24.84L52.21,28.09L57.68,25.63L57.68,28.56L61.93,26.76L61.93,29.46L64.96,28.21L64.96,30.76L66.79,30L66.79,32.46L69.21,31.43L69.21,33.78L77.11,30.64L77.11,32.77L83.79,30.39L83.79,32.35L87.43,31.13L87.43,33L87.43,34.84L88.04,34.63L88.64,34.42L91.68,33.39L91.68,35.15L100.18,32.46L100.18,34.08L103.21,33.17L103.21,34.74L104.43,34.38L104.43,35.91L105.04,35.72L105.04,37.23L105.04,38.72L105.64,38.53L106.25,38.33L110.5,37.02L110.5,38.45L111.11,38.26L111.11,39.66L114.14,38.73L114.14,40.09L120.21,38.3L120.21,39.6L128.11,37.44L128.11,38.66L129.32,38.34L129.32,39.55L129.32,40.74L129.93,40.57L130.54,40.41L131.14,40.24L131.14,41.42L131.75,43.56L132.36,43.39L132.36,46.77L132.96,46.59L133.57,46.41L136,45.69L136,46.78L136,47.86L136.61,47.68L137.21,47.5L137.82,49.44L138.43,49.25L139.04,49.07L139.04,50.11L139.64,49.93L139.64,50.96L139.64,52.99L140.25,52.8L140.86,52.61L141.46,52.42L141.46,53.42L142.68,53.04L142.68,54.02L143.89,53.64L143.89,54.61L145.11,54.23L145.11,55.19L145.11,56.15L145.71,55.95L146.32,55.76L156.64,52.67L156.64,53.57L157.86,53.23L157.86,54.12L159.68,53.6L159.68,54.48L163.32,53.46L163.32,54.32L163.93,54.15L163.93,55L166.96,54.16L166.96,55L169.39,54.34L169.39,55.16L169.39,55.98L170,55.82L170.61,55.65L170.61,57.26L171.21,57.1L171.82,56.93L172.43,56.76L172.43,57.56L172.43,58.35L173.04,58.18L173.64,58.01L174.25,57.84L174.25,58.62L174.25,59.4L174.86,59.23L175.46,59.06L176.68,59.49L176.68,60.25L177.29,61.59L177.89,61.42L179.71,60.91L179.71,61.65L179.71,62.38L181.54,61.88L181.54,62.6L181.54,63.32L182.14,66.7L182.75,66.53L184.57,66L184.57,66.69L184.57,67.38L185.18,68.57L185.79,68.39L187.61,68.54L187.61,69.21L191.86,68.65L191.86,69.3L192.46,71.06L193.07,70.89L193.68,70.71L193.68,71.35L193.68,71.99L194.29,75.54L194.89,75.36L197.32,75.25L197.32,75.85L197.93,79.81L198.54,79.63L199.14,82.88L199.75,82.69L200.96,82.31L200.96,82.87L200.96,83.43L201.57,83.24L201.57,83.8L201.57,84.35L201.57,88.15L202.18,87.95L202.79,87.76L203.39,88.62L204,88.43L204.61,90.84L205.21,90.64L205.82,93.99L206.43,93.79L212.5,92.35L212.5,92.83L214.32,92.75L214.32,93.23L217.36,92.77L217.36,93.25L217.96,97.25L218.57,97.06L218.57,99.32L219.18,99.13L219.79,98.94L220.39,100.96L221,100.76L221.61,102.74L222.21,102.54L222.82,104.47L223.43,104.28L223.43,104.69L224.04,104.5L224.64,104.31L225.25,106.18L225.86,105.99L226.46,107.01L227.07,106.82L227.68,108.23L228.29,108.03L228.29,109.22L228.89,109.02L229.5,108.83L230.11,110.19L230.71,110L231.32,110.58L231.93,110.38L233.14,110L233.14,110.76L233.14,111.14L233.75,112.08L234.36,111.88L234.96,114.64L235.57,114.44L236.18,116.05L236.79,115.86L237.39,129.02L238,128.82L238.61,128.62L238.61,129.24L238.61,129.55L239.82,129.15L239.82,129.77L239.82,130.08L239.82,131.3L240.43,131.1L241.04,130.9L241.64,130.7L241.64,131.3L241.64,131.6L244.68,131.21L244.68,131.51L245.29,133.65L245.89,133.46L246.5,137.78L247.11,137.58L247.71,137.38L247.71,137.93L247.71,138.21L248.32,138.01L248.32,138.55L248.32,138.82L248.32,140.17L248.93,139.97L249.54,139.78L250.14,143.5L250.75,143.3L251.36,143.11L251.36,143.87L251.36,144.12L251.96,145.68L252.57,145.48L253.18,147.98L253.79,147.78L253.79,148.26L254.39,148.07L255,147.87L255,148.11L255.61,147.92L256.21,147.72L256.82,149.88L257.43,149.69L258.04,152.92L258.64,152.72L259.25,158.99L259.86,158.8L260.46,160.25L261.07,160.06L261.68,164.42L262.29,164.23L262.89,168.18L263.5,167.99L263.5,170.87L264.11,170.68L264.71,170.49L265.32,177.56L265.93,177.37L266.54,179.09L267.14,178.91L267.14,180L267.75,179.81L268.36,179.63L268.36,180.86L268.96,180.67L269.57,180.49L270.18,183.74L270.79,183.55L271.39,191.88L272,191.7L272.61,192.3L273.21,192.12L273.82,192.58L274.43,192.4L275.64,192.17L275.64,192.8L275.64,192.93L276.25,194.24L276.86,194.07L276.86,196.12L277.46,195.95L278.07,195.77L278.68,195.6L278.68,196.31L278.68,196.43L279.29,199.25L279.89,199.08L279.89,200.64L280.5,200.58L281.11,200.41L281.11,201.82L281.71,201.76L282.32,201.59L283.54,201.36L283.54,202L283.54,202.11L284.14,214.75L284.75,214.59L284.75,214.93L285.36,214.86L285.96,214.7L286.57,216.55L287.18,216.4L287.79,216.24L287.79,216.98L287.79,217.06L288.39,218.83L289,218.67L289.61,225.13L290.21,224.98L290.82,227.09L291.43,226.94L292.04,229.54L292.64,229.39L293.25,234.56L293.86,234.42L293.86,234.7L294.46,234.62L295.07,234.48L295.68,236.94L296.29,236.81L296.29,237.29L296.89,237.15L297.5,237.02L298.11,239.53L298.71,239.4L300.54,239.2L300.54,239.7L300.54,239.75L301.14,241.57L301.75,241.44L302.36,242.49L302.96,242.36L303.57,246.16L304.18,246.03L304.79,250.09L305.39,249.97L306,255.32L306.61,255.2L307.21,257.15L307.82,257.03L308.43,258.36L309.04,258.25L309.64,258.23L309.64,258.96L309.64,258.99L310.25,259.65L310.86,259.54L311.46,260.96L312.07,260.85L312.68,261.97L313.29,261.86L313.89,264.13L314.5,264.03L315.11,265.44L315.71,265.34L316.32,267.95L316.93,267.86L317.54,269.65L318.14,269.56L318.75,271.07L319.36,270.98L319.96,274.35L320.57,274.26L322.39,274.39L322.39,274.74L322.39,274.76L323,278.18L323.61,278.1L324.21,279.2L324.82,279.12L324.82,280.27L325.43,280.19L326.04,280.11L326.64,281.96L327.25,281.89L327.86,284.31L328.46,284.23L329.07,285.98L329.68,285.91L330.29,288.68L330.89,288.62L331.5,290.59L332.11,290.53L332.71,291.25L333.32,291.19L333.93,292.26L334.54,292.2L335.14,295.65L335.75,295.59L336.36,296.42L336.36,296.42L336.96,296.37L337.57,297.2L337.57,297.21L338.18,298.77L338.18,298.77L338.79,298.72L339.39,300.77L340,300.72L340.61,301.59L340.61,301.59L340.61,301.6L341.21,302.48L341.21,302.48L341.82,302.43L342.43,304.72L342.43,304.72L343.04,304.68L343.64,307.16L344.25,307.12L344.86,309.71L344.86,309.71L345.46,309.67L346.07,310.5L346.07,310.5L346.07,310.51L346.68,311.68L346.68,311.68L347.29,311.65L347.29,314.54L347.89,314.52L348.5,314.49L349.11,316.12L349.11,316.12L349.71,316.1L350.32,316.33L350.32,316.33L350.93,316.31L351.54,316.58L351.54,316.58L352.14,316.56L353.96,317.49L353.96,317.49L353.96,317.5L355.79,318.15L355.79,318.22L355.79,318.23L355.79,320.17L356.39,320.16L357,320.14L357.61,321.25L357.61,321.25L358.21,321.24L358.82,321.91L358.82,321.91L359.43,321.9L361.25,322.3L361.25,322.62L361.25,322.63L361.86,323.3L361.86,323.3L362.46,323.29L363.07,324.34L363.07,324.34L363.68,324.33L364.29,325.45L364.29,325.45L364.89,325.45L366.11,325.75L366.11,325.75" style="vector-effect: non-scaling-stroke; fill: none; stroke: rgb(188, 189, 34); stroke-opacity: 1; stroke-width: 2px; opacity: 1;"/><g class="points"/></g><g class="trace scatter trace7d3c27" style="stroke-miterlimit: 2; opacity: 1;"><path class="js-line" d="M1.88,0L18.81,0L18.81,30L24.45,23.57L26.34,22L33.86,17.37L35.74,16.5L45.15,13.2L47.03,12.69L60.2,10L62.08,9.71L82.77,7.33L84.65,7.17L118.51,5.16L120.39,5.08L137.32,4.46L137.32,8.8L180.59,6.73L182.47,6.67L197.52,6.17L197.52,9.17L203.16,8.92L203.16,11.79L206.93,11.58L206.93,14.35L210.69,14.1L210.69,16.78L210.69,22L212.57,21.82L216.33,21.46L216.33,23.95L237.02,22L237.02,24.26L240.79,23.91L240.79,26.12L244.55,25.74L244.55,27.89L248.31,27.5L248.31,29.59L269,27.5L269,29.43L280.29,28.34L280.29,30.18L285.93,29.64L285.93,31.43L285.93,34.94L287.82,34.74L300.98,33.37L300.98,35.03L302.86,34.83L302.86,36.46L302.86,39.67L304.75,39.46L304.75,41.03L306.63,40.81L306.63,45.4L308.51,45.16L325.44,43.12L325.44,44.55L329.2,44.11L329.2,45.52L331.08,45.29L331.08,46.68L331.08,50.77L332.96,50.53L332.96,51.86L334.84,51.61L334.84,54.23L336.73,53.97L336.73,55.26L338.61,55L338.61,58.77L340.49,58.5L342.37,58.24L342.37,59.46L344.25,59.19L344.25,60.4L344.25,68.57L346.13,68.28L351.77,67.4L351.77,68.52L351.77,69.62L353.66,69.33L357.42,68.75L357.42,69.83L357.42,70.91L359.3,70.62L359.3,72.73L361.18,72.44L361.18,73.48L363.06,73.19L363.06,77.26L364.94,76.96L364.94,77.95L366.82,77.65L366.82,83.45L368.7,83.13L368.7,89.55L370.59,89.22L370.59,99.47L372.47,99.12L372.47,118.54L374.35,118.16L376.23,117.78L376.23,118.46L376.23,119.14L376.23,128.78L378.11,128.39L378.11,137.18L379.99,136.78L379.99,144.32L381.87,143.92L381.87,150.88L383.75,150.48L383.75,155.14L385.64,154.74L385.64,195.24L387.52,194.85L387.52,203.64L389.4,203.27L389.4,230.42L391.28,230.09L391.28,237.37L393.16,237.05L393.16,242.92L395.04,242.61L395.04,265.83L396.92,265.59L396.92,276.64L398.8,276.43L398.8,281.01L400.68,280.81L400.68,314.73L400.68,314.73" style="vector-effect: non-scaling-stroke; fill: none; stroke: rgb(23, 190, 207); stroke-opacity: 1; stroke-width: 2px; opacity: 1;"/><g class="points"/></g><g class="trace scatter trace78c352" style="stroke-miterlimit: 2; opacity: 1;"><path class="js-line" d="M2.23,0L26.74,0L26.74,25.38L33.42,20.63L35.65,19.41L44.56,15.71L46.79,15L49.02,14.35L49.02,27.5L60.16,22.76L62.39,22L75.76,18.33L77.99,17.84L98.04,14.35L100.27,14.04L106.95,13.2L106.95,19.41L133.69,15.71L135.92,15.47L162.66,13.03L162.66,17.14L169.34,16.5L169.34,20.37L173.8,19.88L173.8,23.57L173.8,27.18L176.02,26.86L187.17,25.38L187.17,28.7L187.17,31.94L189.39,31.6L189.39,37.81L191.62,37.42L204.99,35.24L204.99,38.08L207.22,37.71L207.22,40.47L216.13,39L216.13,41.62L216.13,44.2L218.36,43.81L222.82,43.04L222.82,45.52L222.82,47.95L225.04,47.54L233.96,45.98L233.96,48.29L233.96,50.56L236.18,50.16L260.69,46.1L260.69,48.18L267.38,47.14L267.38,49.15L267.38,53.08L269.61,52.71L269.61,56.51L271.83,56.12L271.83,59.8L274.06,59.4L276.29,59.01L276.29,60.79L278.52,60.39L278.52,62.14L287.43,60.57L287.43,62.26L291.89,61.49L291.89,63.15L291.89,74.2L294.12,73.76L294.12,75.26L296.34,74.83L300.8,73.97L300.8,75.43L300.8,76.88L303.03,76.44L303.03,80.67L305.26,80.22L309.71,79.34L309.71,80.71L314.17,79.84L314.17,81.18L314.17,88.91L316.4,88.45L316.4,90.92L318.63,90.46L318.63,92.86L320.85,92.4L320.85,93.58L323.08,93.12L323.08,96.59L325.31,96.12L325.31,99.47L327.54,99L327.54,101.18L329.77,100.7L334.22,99.77L334.22,100.83L336.45,100.37L336.45,101.42L336.45,105.54L338.68,105.07L338.68,107.07L340.91,106.59L340.91,107.58L343.14,107.11L345.36,106.64L345.36,107.61L345.36,115.08L347.59,114.6L347.59,122.42L349.82,121.93L349.82,125.22L352.05,124.72L352.05,125.53L354.28,125.04L354.28,137.1L356.5,136.59L356.5,142.1L358.73,141.6L358.73,146.79L360.96,146.29L360.96,156.43L363.19,155.92L363.19,158.69L365.42,158.19L365.42,158.73L367.65,158.23L367.65,167.95L369.87,167.45L369.87,188.08L372.1,187.6L372.1,193.59L374.33,193.11L374.33,200.47L376.56,200L376.56,203.82L378.79,203.36L378.79,211.4L381.01,210.95L381.01,230.48L383.24,230.07L383.24,256.57L385.47,256.24L385.47,256.53L387.7,256.2L387.7,270.31L389.93,270.03L389.93,271.25L392.16,270.98L392.16,274.42L394.38,274.16L394.38,280.37L396.61,280.14L396.61,284.85L398.84,284.63L398.84,309.02L398.84,309.02L401.07,308.91L401.07,314.98L403.3,314.9L403.3,317.26L405.52,317.19L405.52,320.21" style="vector-effect: non-scaling-stroke; fill: none; stroke: rgb(31, 119, 180); stroke-opacity: 1; stroke-width: 2px; opacity: 1;"/><g class="points"/></g><g class="trace scatter trace4bb5e4" style="stroke-miterlimit: 2; opacity: 1;"><path class="js-line" d="M0.94,0L77.91,0L77.91,3.93L108.88,2.82L108.88,5.59L160.51,3.82L160.51,5.69L181.16,5.05L181.16,6.7L194.3,6.26L194.3,7.78L204.63,7.4L204.63,8.84L220.58,8.22L220.58,9.55L229.97,9.17L229.97,10.43L233.72,10.27L233.72,11.51L256.25,10.53L256.25,11.66L270.33,11.07L270.33,12.14L270.33,13.2L271.27,13.16L275.02,12.98L275.02,14.02L281.6,13.71L281.6,14.71L287.23,14.44L287.23,15.42L287.23,16.4L288.17,16.35L288.17,17.31L289.1,17.26L290.04,17.21L290.04,18.17L293.8,17.95L293.8,18.89L295.67,18.77L295.67,19.7L307.88,18.97L307.88,19.86L307.88,20.74L308.82,20.68L310.69,20.57L310.69,21.44L313.51,21.26L313.51,22.12L313.51,23.83L314.45,23.77L316.33,23.64L316.33,24.48L323.83,23.95L323.83,24.77L324.77,24.71L324.77,25.52L328.53,25.25L328.53,26.05L328.53,26.85L329.47,26.78L329.47,27.57L330.4,27.5L330.4,28.29L331.34,28.21L332.28,28.14L332.28,28.92L335.1,28.7L335.1,29.46L335.1,30.23L336.04,30.15L337.91,30L337.91,30.76L340.73,31.27L340.73,32.01L341.67,31.94L341.67,32.67L341.67,33.41L346.36,33.72L346.36,34.44L346.36,35.16L347.3,35.07L347.3,36.49L348.24,36.4L348.24,37.11L349.18,37.02L349.18,40.47L350.12,40.38L350.12,41.73L351.06,41.64L352.93,41.44L352.93,42.11L352.93,42.78L356.69,43.04L356.69,43.7L359.5,44.05L359.5,44.7L359.5,45.98L360.44,45.87L361.38,45.77L361.38,46.41L361.38,47.04L361.38,48.92L362.32,48.81L363.26,48.7L363.26,49.32L363.26,49.93L363.26,51.16L364.2,51.05L364.2,51.65L365.13,51.54L365.13,54.53L366.07,54.41L367.01,54.29L367.01,54.88L367.01,55.47L367.01,57.21L367.95,57.09L368.89,56.97L368.89,57.54L368.89,58.11L368.89,59.81L369.83,59.69L369.83,60.81L370.77,60.68L372.64,60.99L372.64,61.54L372.64,63.18L373.58,63.05L373.58,65.73L374.52,65.6L374.52,66.66L375.46,66.53L375.46,70.16L376.4,70.02L376.4,72.05L377.34,71.91L380.15,71.49L380.15,71.99L380.15,72.49L380.15,73.97L381.09,73.82L381.09,74.31L382.03,74.17L382.03,75.14L382.97,75L382.97,82.04L383.91,81.89L383.91,85.49L384.85,85.33L384.85,86.22L385.79,86.06L385.79,98.94L386.72,98.78L386.72,101.88L387.66,101.71L388.6,101.54L388.6,102.3L388.6,102.68L388.6,103.06L389.54,102.89L392.36,103.13L392.36,103.5L392.36,104.24L393.29,104.07L394.23,103.9L394.23,104.63L394.23,105L394.23,114.11L395.17,113.93L395.17,131.81L396.11,131.62L396.11,134.68L397.05,134.5L397.05,153.08L397.99,152.89L397.99,177.25L398.93,177.06L398.93,187.18L399.87,186.99L399.87,187.71L400.8,187.52L400.8,223.41L401.74,223.24L401.74,234.5L402.68,234.34L402.68,238.01L403.62,237.86L403.62,239.5L404.56,239.35L404.56,240.77L405.5,240.62L405.5,245.89L406.44,245.75L406.44,250.44L407.37,250.3L407.37,263.66L408.31,263.54L408.31,289.41L409.25,289.33L409.25,290.57L410.19,290.49L410.19,294.38L411.13,294.3L411.13,299.06L412.07,298.99L412.07,301.62L412.07,301.62L413.01,301.56L413.01,306.67L413.01,306.67L413.94,306.63L413.94,307.06" style="vector-effect: non-scaling-stroke; fill: none; stroke: rgb(255, 127, 14); stroke-opacity: 1; stroke-width: 2px; opacity: 1;"/><g class="points"/></g><g class="trace scatter traced93a72" style="stroke-miterlimit: 2; opacity: 1;"><path class="js-line" d="M1.32,0L156.96,0L156.96,2.75L212.35,2.04L212.35,4.05L266.43,3.24L266.43,4.83L304.68,4.23L304.68,5.62L308.64,5.55L308.64,6.9L315.23,6.76L315.23,8.08L315.23,9.39L316.55,9.35L328.42,9.02L328.42,10.27L333.7,10.11L333.7,11.34L333.7,12.55L335.02,12.5L340.29,12.31L340.29,13.49L349.53,13.15L349.53,14.3L357.44,13.99L357.44,15.11L360.08,15L360.08,16.1L362.72,15.99L362.72,17.07L364.03,17.01L364.03,18.08L364.03,22.3L365.35,22.22L365.35,23.26L366.67,23.18L366.67,25.22L367.99,25.13L367.99,28.13L369.31,28.04L371.95,27.86L371.95,28.83L371.95,29.81L373.27,29.71L374.59,29.62L374.59,30.58L374.59,31.53L375.91,31.43L375.91,32.37L377.22,32.27L377.22,40.49L378.54,40.37L378.54,46.44L379.86,46.3L381.18,46.16L381.18,47L381.18,48.67L382.5,48.53L382.5,58.13L383.82,57.96L383.82,63.25L385.14,63.07L385.14,63.81L386.46,63.64L386.46,71.47L387.78,71.28L387.78,74.68L389.09,74.49L389.09,77.8L390.41,77.6L390.41,94.63L391.73,94.4L391.73,114.12L393.05,113.87L393.05,122.53L394.37,122.27L394.37,125.71L395.69,125.45L395.69,143.21L397.01,142.94L397.01,146.06L398.33,145.79L398.33,148.47L399.65,148.2L399.65,161.38L400.97,161.11L400.97,162.52L402.28,162.25L402.28,221.66L403.6,221.42L403.6,297.05" style="vector-effect: non-scaling-stroke; fill: none; stroke: rgb(44, 160, 44); stroke-opacity: 1; stroke-width: 2px; opacity: 1;"/><g class="points"/></g><g class="trace scatter trace4d536d" style="stroke-miterlimit: 2; opacity: 1;"><path class="js-line" d="M1.41,0L138.41,0L138.41,3.33L193.49,2.39L193.49,4.75L199.14,4.62L199.14,6.88L225.97,6.07L225.97,8.05L238.68,7.63L238.68,9.48L248.57,9.12L248.57,10.88L273.99,9.9L273.99,11.49L282.46,11.16L282.46,12.69L282.46,14.21L283.87,14.14L288.11,13.94L288.11,15.42L288.11,16.88L289.52,16.81L290.94,16.73L290.94,18.17L300.82,17.6L300.82,18.98L310.71,18.41L310.71,19.74L312.12,19.66L312.12,20.97L312.12,23.57L313.53,23.47L313.53,24.75L314.94,24.65L316.36,24.55L316.36,25.8L317.77,25.7L317.77,26.94L319.18,26.83L319.18,28.06L323.42,27.72L323.42,28.92L326.24,28.7L326.24,29.88L326.24,34.53L327.66,34.4L333.3,33.88L333.3,35L333.3,37.22L334.72,37.08L334.72,38.17L336.13,38.03L337.54,37.89L337.54,38.97L337.54,43.2L338.95,43.04L344.6,42.43L344.6,43.45L344.6,52.34L346.02,52.16L346.02,53.12L347.43,52.94L347.43,60.3L348.84,60.1L348.84,60.99L350.25,60.79L350.25,61.67L351.66,61.47L351.66,62.35L353.08,62.14L355.9,61.74L355.9,62.6L355.9,64.31L357.31,64.11L357.31,64.95L358.73,64.75L358.73,72.88L360.14,72.66L361.55,72.44L361.55,73.22L361.55,74L362.96,73.78L362.96,76.08L364.38,75.85L364.38,76.61L365.79,76.38L365.79,79.35L367.2,79.12L367.2,81.3L368.61,81.07L370.02,80.84L370.02,81.55L370.02,82.26L371.44,82.03L371.44,82.74L371.44,83.44L371.44,86.21L372.85,85.97L372.85,87.33L374.26,87.08L374.26,98.65L375.67,98.39L375.67,100.81L377.09,100.55L378.5,100.29L378.5,100.88L378.5,101.47L378.5,107.79L379.91,107.52L379.91,114.54L381.32,114.26L381.32,134.61L382.74,134.31L382.74,139.32L384.15,139.02L384.15,144.16L385.56,143.86L385.56,144.63L386.97,144.33L386.97,148.43L388.38,148.14L388.38,154.47L389.8,154.17L389.8,171.05L391.21,170.75L391.21,181.37L392.62,181.07L392.62,206.19L394.03,205.92L394.03,215.2L395.45,214.93L395.45,221.55L396.86,221.29L396.86,231.25L398.27,231L398.27,255.67L399.68,255.47L399.68,255.82L401.1,255.62L401.1,285.92L402.51,285.78L402.51,300.78L403.92,300.69L403.92,301.63" style="vector-effect: non-scaling-stroke; fill: none; stroke: rgb(214, 39, 40); stroke-opacity: 1; stroke-width: 2px; opacity: 1;"/><g class="points"/></g><g class="trace scatter tracef349c0" style="stroke-miterlimit: 2; opacity: 1;"><path class="js-line" d="M0.1,0L3.75,0L3.75,8.68L5.98,5.5L6.08,5.41L9.43,3.51L9.53,3.47L15.61,2.13L15.71,2.12L22.3,1.49L22.3,2.97L23.31,2.84L23.31,4.25L33.45,2.97L33.45,3.95L39.33,3.37L39.33,4.2L42.58,3.88L42.58,4.65L47.95,4.81L47.95,5.49L63.36,4.68L63.46,4.68L70.25,4.69L70.25,5.16L79.98,4.94L80.08,4.94L97.72,4.72L97.72,5.06L111.51,5.02L111.51,5.31L115.36,5.7L115.36,5.98L123.87,6.1L123.87,6.36L132.19,6.69L132.19,6.94L142.73,7.11L142.73,7.33L150.23,7.61L150.23,7.83L150.63,8.23L150.94,8.21L151.04,8.21L159.66,8.37L159.66,8.57L172.02,8.52L172.02,8.71L178.41,9.12L178.41,9.29L185.81,9.61L185.81,9.78L196.15,9.92L196.15,10.09L196.15,10.25L196.86,10.21L196.96,10.2L199.39,10.71L199.39,10.87L204.26,11.23L204.26,11.38L204.36,11.38L209.53,11.85L209.53,12L213.28,12.52L213.28,12.67L215.21,13.13L215.21,13.28L215.21,13.42L220.07,13.83L220.07,13.97L224.53,14.39L224.53,14.53L225.95,15.12L225.95,15.25L227.17,15.31L227.17,15.84L227.17,15.97L231.22,16.36L231.22,16.49L231.22,16.62L232.24,16.94L232.34,16.94L234.87,17.4L234.87,17.53L236.19,17.95L236.29,17.94L239.94,18.3L239.94,18.43L240.85,18.98L240.85,19.1L243.59,19.63L243.59,19.75L247.24,20.2L247.24,20.32L248.15,20.72L248.25,20.71L250.58,21.23L250.58,21.35L252.41,21.9L252.41,22.02L254.44,22.54L254.44,22.65L256.26,22.73L256.36,22.72L259.3,23.15L259.3,23.26L262.75,24.3L262.85,24.29L263.36,24.9L263.56,24.88L263.66,24.87L266.09,25.3L266.09,25.41L267.11,25.96L267.11,26.07L268.32,26.7L268.32,26.8L270.05,28.1L270.05,28.21L271.87,29.47L271.87,29.57L272.68,30.2L272.68,30.3L273.8,31.2L273.9,31.19L275.12,32.06L275.22,32.05L276.94,32.55L277.04,32.54L278.46,33.75L278.46,33.85L280.08,34.35L280.08,34.44L280.08,34.54L280.39,35.17L280.79,35.13L280.89,35.12L282.21,36.29L282.21,36.39L283.12,36.84L283.12,36.93L283.12,37.03L284.04,37.48L284.04,37.57L284.04,37.66L286.77,39.17L286.77,39.26L288.19,40.17L288.29,40.15L290.02,40.66L290.02,40.74L290.73,41.98L290.83,41.97L292.55,42.45L292.55,42.53L294.07,43.63L294.17,43.62L294.78,44.05L294.78,44.22L294.78,44.31L295.39,45.16L295.49,45.15L295.59,45.13L296.81,45.9L296.91,45.88L297.52,47.54L297.62,47.53L297.72,47.51L300.46,50.46L300.56,50.44L301.17,51.23L301.27,51.22L301.37,51.2L301.98,51.51L301.98,51.83L301.98,51.9L302.79,52.26L302.79,52.49L302.79,52.57L303.6,52.69L303.6,53.15L303.6,53.23L306.03,55.62L306.14,55.61L306.84,56.25L306.95,56.24L307.45,56.98L307.66,56.95L307.76,56.93L308.67,57.54L308.67,57.61L310.8,59.4L310.9,59.38L313.13,61.18L313.23,61.16L313.94,62.11L314.04,62.09L314.65,63.18L314.75,63.16L314.85,63.15L316.98,64.66L317.08,64.64L317.69,65.49L317.69,65.56L318.81,66.05L318.81,66.12L318.81,66.18L319.41,67.81L319.52,67.8L319.62,67.78L320.33,68.58L320.33,68.65L320.83,69.54L321.04,69.5L321.14,69.49L323.06,71.4L323.17,71.39L324.08,72.18L324.08,72.24L324.48,73.48L324.79,73.43L324.89,73.41L325.9,74.29L325.9,74.35L326.31,75.81L326.61,75.81L326.71,75.8L327.42,77.42L327.52,77.4L328.23,78.87L328.34,78.86L329.04,79.43L329.15,79.41L329.75,80.41L329.75,80.47L330.46,82.29L330.57,82.27L331.27,83.89L331.38,83.87L333.71,87.78L333.71,87.83L334.42,88.93L334.52,88.91L335.03,90.87L335.03,90.93L335.73,93.68L335.84,93.66L336.95,96.46L336.95,96.51L337.66,99.75L337.76,99.73L338.47,102.25L338.57,102.23L339.28,103.85L339.38,103.83L339.99,104.49L339.99,104.58L339.99,104.62L340.4,106.27L340.4,106.31L341.01,108.33L341.11,108.31L341.21,108.29L341.92,109.37L342.02,109.35L342.73,112.08L342.83,112.06L343.54,113.68L343.64,113.66L344.35,115.66L344.35,115.7L345.06,116.89L345.16,116.86L345.87,119.97L345.97,119.95L346.68,122.38L346.78,122.36L347.49,123.38L347.49,123.42L348.2,127.69L348.3,127.67L349.01,129.4L349.12,129.38L349.72,131.48L349.83,131.46L349.93,131.44L350.64,133.3L350.74,133.27L351.04,134.65L351.04,134.68L351.75,138.35L351.85,138.33L352.56,141.29L352.66,141.27L353.78,143.67L353.78,143.7L354.49,147.81L354.59,147.78L355.3,149.95L355.4,149.93L356.11,153.2L356.21,153.17L356.92,155.88L357.02,155.85L357.73,161.66L357.83,161.64L358.44,163.54L358.44,163.56L358.95,165.33L358.95,165.35L359.66,167.54L359.76,167.52L360.47,171.31L360.57,171.29L360.77,172.08L360.77,172.1L361.48,174.36L361.58,174.34L361.99,175.88L361.99,175.9L362.5,177.79L362.5,177.81L363.21,183.54L363.31,183.51L364.02,186.67L364.12,186.65L364.22,187.93L364.22,187.95L364.83,189.96L364.83,189.98L365.54,198.38L365.64,198.36L365.94,199.89L365.94,199.9L366.65,204.65L366.75,204.63L366.86,205.8L366.86,205.82L367.36,207.59L367.36,207.61L368.07,210.34L368.17,210.32L368.88,215.56L368.98,215.53L369.69,218.86L369.8,218.84L370.5,220.68L370.61,220.66L370.91,221.44L370.91,221.45L371.62,227L371.72,226.98L371.92,228.39L371.92,228.4L372.63,232.28L372.73,232.26L373.44,236.36L373.55,236.34L374.26,241.48L374.26,241.48L374.36,241.46L375.07,250.4L375.07,250.4L375.17,250.39L375.88,258.21L375.98,258.19L376.69,261.43L376.69,261.43L376.79,261.42L377.5,264.87L377.5,264.87L377.6,264.86L378.31,267.94L378.31,267.94L378.41,267.93L379.12,271.65L379.12,271.65L379.22,271.64L379.93,277.38L379.93,277.38L380.03,277.37L380.24,278.79L380.24,278.79L380.24,278.8L380.95,281.86L380.95,281.86L381.05,281.85L381.76,289.4L381.76,289.4L381.86,289.4L382.57,295.46L382.67,295.45L383.38,300.38L383.38,300.38L383.48,300.38L384.19,306.25L384.19,306.25L384.29,306.24L385,312.22L385,312.22L385.1,312.22L385.81,317.86L385.81,317.86L385.91,317.85L386.12,318.79L386.12,318.79" style="vector-effect: non-scaling-stroke; fill: none; stroke: rgb(148, 103, 189); stroke-opacity: 1; stroke-width: 2px; opacity: 1;"/><g class="points"/></g><g class="trace scatter tracedc959b" style="stroke-miterlimit: 2; opacity: 1;"><path class="js-line" d="M0.96,0L12.43,0L12.43,23.57L16.26,18.33L17.21,17.37L21.99,13.75L22.95,13.2L25.82,11.79L25.82,22.76L32.51,18.33L33.47,17.84L35.38,16.92L35.38,24.75L36.34,24.15L36.34,31.43L38.25,30L38.25,36.67L45.9,31.13L46.86,30.56L49.73,28.95L49.73,34.14L52.59,32.46L52.59,37.26L54.51,36.09L54.51,40.62L57.38,38.82L57.38,43.04L58.33,42.43L58.33,46.48L60.24,45.21L60.24,49.05L63.11,47.14L63.11,50.77L72.68,45L72.68,48.2L74.59,47.14L74.59,50.22L81.28,46.67L81.28,49.5L81.28,52.28L82.24,51.76L82.24,54.47L83.19,53.94L86.06,52.43L86.06,55L87.02,54.5L87.02,57L87.98,56.49L87.98,58.93L89.89,57.89L89.89,60.26L97.54,56.34L97.54,58.55L97.54,60.72L98.49,60.24L101.36,58.84L101.36,60.92L106.14,58.67L106.14,60.66L109.01,59.35L109.01,61.29L109.97,60.85L109.97,62.75L111.88,61.88L111.88,63.72L111.88,65.55L112.84,65.1L120.49,61.74L120.49,63.46L123.36,62.26L123.36,63.94L125.27,63.15L125.27,64.79L125.27,66.4L126.23,66L126.23,69.16L127.18,68.75L129.09,67.94L129.09,69.47L129.09,70.99L130.05,70.58L130.05,77.87L131.01,77.43L131.01,80.22L131.96,79.78L131.96,81.15L132.92,80.71L132.92,82.05L133.88,81.61L133.88,82.94L134.83,82.5L136.74,81.63L136.74,82.93L139.61,81.65L139.61,82.92L140.57,82.5L140.57,83.76L140.57,85L141.53,84.57L141.53,89.41L142.48,88.97L142.48,90.15L143.44,89.71L144.39,89.28L144.39,90.43L145.35,90L145.35,91.14L145.35,92.27L146.31,91.84L147.26,91.41L147.26,92.52L151.09,90.83L151.09,91.92L151.09,93L152.04,92.58L152.04,96.8L153,96.37L153.96,95.95L153.96,96.97L153.96,97.99L154.91,97.57L155.87,97.14L155.87,98.15L158.74,96.89L158.74,97.88L158.74,103.64L159.69,103.21L162.56,101.95L162.56,102.87L162.56,108.26L163.52,107.83L163.52,108.71L164.48,108.28L169.26,106.21L169.26,107.06L169.26,107.91L170.21,107.5L170.21,108.34L171.17,107.93L172.13,107.53L172.13,108.36L172.13,109.18L173.08,108.78L173.08,110.4L174.04,110L174.04,111.6L174.99,111.2L174.99,111.99L175.95,111.58L175.95,113.14L176.91,112.74L176.91,118.02L177.86,117.61L180.73,116.4L180.73,117.13L180.73,117.86L180.73,122.1L181.69,121.69L181.69,123.75L182.64,123.34L182.64,124.69L183.6,124.29L183.6,124.95L184.56,124.55L185.51,124.15L185.51,124.81L185.51,125.46L185.51,131.8L186.47,131.39L189.34,130.18L189.34,130.79L189.34,131.4L189.34,136.69L190.29,136.28L191.25,135.88L191.25,136.45L191.25,137.02L191.25,137.58L192.21,137.18L192.21,141.56L193.16,141.16L193.16,143.8L194.12,143.4L194.12,148.95L195.08,148.54L195.08,150.48L196.03,150.08L196.03,151.5L196.99,151.11L196.99,155.69L197.94,155.29L197.94,158.8L198.9,158.4L199.86,158L199.86,158.43L199.86,158.86L199.86,159.7L200.81,159.31L201.77,158.92L201.77,159.34L201.77,159.76L201.77,163.82L202.73,163.43L202.73,172.43L203.68,172.04L203.68,172.75L204.64,172.37L204.64,178.45L205.59,178.07L205.59,179.04L206.55,178.66L208.46,178.23L208.46,178.55L208.46,178.87L210.38,178.43L210.38,178.75L210.38,179.06L211.33,178.69L211.33,179.32L211.33,179.63L211.33,181.77L212.29,181.4L213.24,181.03L213.24,181.63L213.24,181.93L213.24,182.23L214.2,181.86L214.2,183.33L215.16,182.97L215.16,183.26L216.11,182.9L216.11,183.48L217.07,183.12L217.07,183.41L218.02,183.05L218.98,182.69L218.98,183.26L218.98,183.55L218.98,188.48L219.94,188.13L219.94,189.18L220.89,188.83L220.89,189.35L221.85,189.01L221.85,194.5L222.81,194.15L222.81,195.34L223.76,195L223.76,198L224.72,197.66L224.72,200.97L225.68,200.63L225.68,201.7L226.63,201.37L226.63,204.86L227.59,204.54L227.59,205.53L228.54,205.21L228.54,206.19L229.5,205.86L230.46,205.54L230.46,206.31L230.46,206.51L230.46,208.21L231.41,207.89L231.41,216.4L232.37,216.09L232.37,217.06L233.33,216.75L235.24,216.62L235.24,216.78L235.24,216.94L235.24,218.03L236.19,217.73L236.19,220.74L237.15,220.44L238.11,220.15L238.11,220.88L238.11,221.02L238.11,221.74L239.06,221.45L239.06,222.44L240.02,222.15L240.02,223.67L240.98,223.38L240.98,226.18L241.93,225.9L241.93,227.31L242.89,227.03L247.67,226.53L247.67,227.02L247.67,227.15L247.67,229.57L248.62,229.3L248.62,232.05L249.58,231.79L249.58,233.22L250.54,232.96L250.54,233.83L251.49,233.57L251.49,233.78L252.45,233.52L252.45,234.47L253.41,234.22L253.41,235.15L254.36,234.9L254.36,237.11L255.32,236.86L256.28,236.61L256.28,237.3L256.28,237.39L256.28,238.16L257.23,237.91L257.23,240.42L258.19,240.18L258.19,241.96L259.14,241.72L259.14,242.06L260.1,241.83L260.1,242.68L261.06,242.45L261.06,244.04L262.01,243.8L262.01,245.42L262.97,245.19L262.97,247.05L263.92,246.82L263.92,246.97L264.88,246.75L264.88,248.89L265.84,248.67L267.75,248.88L267.75,249.23L267.75,249.3L267.75,249.79L268.71,249.58L268.71,251.15L269.66,250.93L269.66,252.45L270.62,252.24L271.58,252.09L271.58,252.8L271.58,252.86L271.58,255.08L272.53,254.88L272.53,258.86L273.49,258.66L273.49,259.3L274.44,259.11L274.44,259.32L275.4,259.13L275.4,260.07L276.36,259.88L276.36,260.64L277.31,260.45L277.31,262.98L278.27,262.8L278.27,264.09L279.22,263.91L279.22,264.63L280.18,264.45L280.18,267.42L281.14,267.24L282.09,267.11L282.09,267.84L282.09,267.87L283.05,267.82L283.05,268.57L283.05,268.6L283.05,268.95L284.01,268.78L284.01,268.93L284.96,268.77L284.96,270.18L285.92,270.02L285.92,272.47L286.88,272.31L286.88,274.75L287.83,274.6L287.83,275.21L288.79,275.06L288.79,275.84L289.74,275.69L289.74,276.59L290.7,276.44L290.7,277.75L291.66,277.61L292.61,277.52L292.61,278.27L292.61,278.29L292.61,278.77L293.57,278.63L293.57,279.27L294.53,279.13L294.53,279.81L295.48,279.67L295.48,280.52L296.44,280.39L296.44,281.54L297.39,281.41L297.39,285.1L298.35,284.98L299.31,284.93L299.31,285.67L299.31,285.69L299.31,286.44L300.26,286.32L300.26,286.48L301.22,286.36L301.22,287.2L302.18,287.09L302.18,289.77L303.13,289.66L303.13,291.33L304.09,291.22L304.09,291.42L305.04,291.31L305.04,291.59L306,291.49L306,291.66L306.96,291.55L306.96,294.1L307.91,294L307.91,294.66L308.87,294.56L308.87,295.05L309.83,294.96L309.83,296.21L310.78,296.11L311.74,296.08L311.74,296.83L311.74,296.84L311.74,297.05L312.69,296.96L312.69,297.9L313.65,297.81L313.65,298.09L314.61,298L314.61,298.3L315.56,298.21L315.56,300.4L316.52,300.32L316.52,301.43L317.47,301.35L317.47,301.54L317.47,301.54L318.43,301.46L318.43,302.51L319.39,302.43L319.39,302.64L320.34,302.56L320.34,305.44L321.3,305.37L323.21,305.34L323.21,306.09L323.21,306.1L323.21,306.32L323.21,306.32L324.17,306.26L324.17,310.01L324.17,310.01L325.13,309.96L325.13,310.91L325.13,310.91L326.08,310.86L328.95,311.19L328.95,311.61L328.95,311.62L328.95,313.23L328.95,313.23L329.91,313.19L329.91,313.71L329.91,313.71L330.86,313.66L330.86,314.71L330.86,314.71L331.82,314.67L331.82,318.1L331.82,318.1L332.78,318.06L332.78,319.11L332.78,319.11L333.73,319.08L333.73,320.38L333.73,320.38L334.69,320.35L334.69,321.27L334.69,321.27L335.64,321.24L335.64,321.89L335.64,321.89L336.6,321.87L336.6,322.27L336.6,322.27L337.56,322.25L337.56,322.44L337.56,322.44L338.51,322.42L338.51,322.69L338.51,322.69L339.47,322.67L339.47,323.79L339.47,323.79L340.43,323.78L340.43,324.09L340.43,324.09L341.38,324.07L345.21,324.85L345.21,324.85L345.21,324.86L345.21,325.17L345.21,325.17L346.16,325.16L346.16,326.17L346.16,326.17" style="vector-effect: non-scaling-stroke; fill: none; stroke: rgb(140, 86, 75); stroke-opacity: 1; stroke-width: 2px; opacity: 1;"/><g class="points"/></g><g class="trace scatter trace6cb4a3" style="stroke-miterlimit: 2; opacity: 1;"><path class="js-line" d="M1.9,0L62.59,0L62.59,9.71L83.45,7.33L85.35,7.17L119.49,5.16L121.39,5.08L170.7,3.63L170.7,7.17L176.39,6.95L176.39,10.31L193.46,9.43L193.46,12.45L208.64,11.58L208.64,14.35L218.12,13.75L218.12,16.36L221.91,16.1L221.91,18.63L221.91,21.12L223.81,20.95L244.67,19.27L244.67,21.52L246.57,21.37L246.57,23.57L246.57,25.74L248.47,25.56L263.64,24.2L263.64,26.23L263.64,30.2L265.54,30L267.43,29.81L267.43,31.73L267.43,33.63L269.33,33.42L269.33,35.28L271.23,35.06L273.12,34.84L273.12,36.67L280.71,35.78L280.71,37.54L282.61,37.32L282.61,39.05L290.19,38.15L290.19,39.83L290.19,41.49L292.09,41.25L292.09,42.88L293.99,42.64L293.99,45.83L295.88,45.58L295.88,47.14L297.78,46.89L305.37,45.88L305.37,47.39L305.37,51.83L307.26,51.56L309.16,51.3L309.16,52.73L316.75,51.67L316.75,53.07L322.44,52.28L322.44,53.65L322.44,58.99L324.33,58.7L324.33,60L326.23,59.71L331.92,58.87L331.92,60.14L331.92,65.09L333.82,64.79L333.82,66L335.71,65.7L335.71,66.89L337.61,66.59L337.61,68.93L339.51,68.63L339.51,72.05L341.4,71.74L345.2,71.12L345.2,72.23L345.2,76.58L347.1,76.26L347.1,79.42L348.99,79.09L348.99,90L350.89,89.65L350.89,90.59L352.79,90.23L352.79,105.16L354.68,104.78L354.68,108.02L356.58,107.63L358.48,107.25L358.48,108.04L358.48,111.16L360.37,110.77L360.37,118.89L362.27,118.49L362.27,121.98L364.17,121.58L364.17,123.62L366.06,123.21L366.06,137L367.96,136.59L367.96,152.17L369.86,151.75L369.86,157.94L371.75,157.52L371.75,171.47L373.65,171.05L373.65,176.67L375.55,176.26L375.55,187.34L377.44,186.93L377.44,191.46L379.34,191.05L379.34,195.03L381.24,194.63L381.24,200.2L383.13,199.8L383.13,245.41L385.03,245.1L385.03,251.65L386.93,251.36L386.93,263.15L388.82,262.89L388.82,269.76L390.72,269.52L390.72,295.98L392.62,295.83L392.62,300.51L394.51,300.38L394.51,304.92L396.41,304.81L396.41,308.51L396.41,308.51L398.31,308.42L398.31,319.73L398.31,319.73" style="vector-effect: non-scaling-stroke; fill: none; stroke: rgb(227, 119, 194); stroke-opacity: 1; stroke-width: 2px; opacity: 1;"/><g class="points"/></g><g class="trace scatter trace897442" style="stroke-miterlimit: 2; opacity: 1;"><path class="js-line" d="M1.92,0L86.42,0L86.42,7.17L120.99,5.16L122.91,5.08L132.51,4.71L132.51,9.3L138.28,8.92L138.28,13.2L153.64,11.93L153.64,15.71L167.08,14.51L167.08,17.93L172.85,17.37L172.85,20.63L180.53,19.8L180.53,22.87L190.13,21.79L190.13,24.67L209.33,22.56L209.33,25.17L213.18,24.75L213.18,27.27L217.02,26.83L217.02,29.27L218.94,29.04L218.94,31.43L218.94,33.78L220.86,33.52L224.7,33L224.7,35.27L226.62,35L226.62,37.22L238.14,35.61L238.14,37.71L247.74,36.41L247.74,38.42L249.67,38.16L249.67,40.14L253.51,39.6L253.51,41.52L255.43,41.25L255.43,43.14L255.43,45L257.35,44.71L257.35,46.54L259.27,46.24L259.27,48.04L261.19,47.74L261.19,51.24L263.11,50.93L276.55,48.82L276.55,50.47L276.55,55.32L278.47,55L278.47,58.13L280.39,57.8L286.15,56.83L286.15,58.34L286.15,61.31L288.08,60.98L290,60.65L290,62.1L291.92,61.76L291.92,63.19L297.68,62.2L297.68,63.59L297.68,66.34L299.6,66L299.6,72.6L301.52,72.24L301.52,73.51L303.44,73.15L303.44,74.41L305.36,74.05L305.36,76.52L307.28,76.15L307.28,80.94L309.2,80.56L309.2,81.73L311.12,81.35L311.12,82.5L313.04,82.12L314.96,81.74L314.96,82.88L314.96,84L316.88,83.62L316.88,86.92L318.8,86.53L318.8,90.79L320.72,90.39L320.72,95.49L322.64,95.08L322.64,102.79L324.56,102.37L326.49,101.95L326.49,102.87L326.49,107.38L328.41,106.96L328.41,113.79L330.33,113.36L332.25,112.93L332.25,113.75L332.25,114.57L334.17,114.14L334.17,135.36L336.09,134.9L336.09,144.9L338.01,144.44L338.01,148.5L339.93,148.04L339.93,150.83L341.85,150.37L341.85,152L343.77,151.54L343.77,155.24L345.69,154.78L345.69,158.32L347.61,157.87L347.61,163.62L349.53,163.17L349.53,171.53L351.45,171.08L351.45,211.12L353.37,210.71L353.37,212.55L355.29,212.14L355.29,213.71L357.21,213.31L357.21,217.99L359.13,217.6L359.13,223.05L361.05,222.66L361.05,228.79L362.97,228.42L362.97,233.9L364.9,233.54L364.9,235.14L366.82,234.79L366.82,254.51L368.74,254.21L368.74,258.81L370.66,258.52L370.66,265.86L372.58,265.59L372.58,268.91L374.5,268.66L374.5,275.79L376.42,275.56L376.42,281.77L378.34,281.56L378.34,281.77L380.26,281.56L380.26,286.27L382.18,286.07L382.18,292.58L384.1,292.41L384.1,294.5L386.02,294.34L386.02,296.4L387.94,296.25L387.94,304.26L389.86,304.15L389.86,309.16L391.78,309.06L391.78,310.7L393.7,310.61L393.7,311.51" style="vector-effect: non-scaling-stroke; fill: none; stroke: rgb(127, 127, 127); stroke-opacity: 1; stroke-width: 2px; opacity: 1;"/><g class="points"/></g><g class="trace scatter trace2d1a35" style="stroke-miterlimit: 2; opacity: 1;"><path class="js-line" d="M1.63,0L66.73,0L66.73,7.86L89.52,5.89L91.15,5.79L107.43,4.93L107.43,9.71L125.33,8.35L125.33,12.38L144.86,10.76L144.86,14.19L172.53,12L172.53,14.86L175.79,14.6L175.79,17.37L182.3,16.78L182.3,19.41L198.57,17.91L198.57,20.31L206.71,19.56L206.71,21.84L214.85,21.06L214.85,23.24L237.64,21.15L237.64,23.12L247.4,22.27L247.4,24.15L286.47,21.06L286.47,22.7L286.47,24.32L288.1,24.19L289.72,24.06L289.72,25.65L289.72,27.22L291.35,27.08L297.86,26.53L297.86,28.05L297.86,29.55L299.49,29.41L302.74,29.12L302.74,30.59L306,30.29L306,31.73L309.26,31.43L309.26,32.84L309.26,34.25L310.88,34.08L310.88,35.47L312.51,35.3L319.02,34.66L319.02,36L320.65,35.84L320.65,37.16L328.79,36.34L328.79,37.63L328.79,40.17L330.41,40L336.93,39.32L336.93,40.55L336.93,41.77L338.55,41.6L338.55,42.8L340.18,42.63L341.81,42.45L341.81,43.64L343.44,43.46L343.44,44.63L343.44,46.95L345.06,46.76L353.2,45.83L353.2,46.96L353.2,48.07L354.83,47.88L354.83,50.08L356.46,49.88L356.46,50.97L358.09,50.77L361.34,50.38L361.34,51.44L362.97,51.25L362.97,52.3L366.22,51.91L366.22,52.95L366.22,59.01L367.85,58.8L367.85,62.69L369.48,62.46L369.48,63.42L371.11,63.19L372.73,62.97L372.73,63.91L372.73,68.51L374.36,68.28L374.36,78.68L375.99,78.42L379.24,77.9L379.24,78.73L379.24,88.97L380.87,88.69L380.87,92.4L382.5,92.12L382.5,97.81L384.13,97.52L384.13,98.9L385.76,98.61L385.76,107.18L387.38,106.88L387.38,110L389.01,109.69L389.01,114.51L390.64,114.2L390.64,120.48L392.27,120.16L392.27,123.96L393.89,123.64L393.89,148.09L395.52,147.75L395.52,156.8L397.15,156.47L397.15,160.84L398.78,160.5L398.78,175.41L400.4,175.08L400.4,182.4L402.03,182.07L402.03,184.45L403.66,184.12L403.66,188.16L405.29,187.84L405.29,192.82L406.91,192.5L406.91,193.41L408.54,193.09L408.54,198.31L410.17,198L410.17,212.54L411.8,212.24L411.8,220.43L413.43,220.14L413.43,227.53L415.05,227.25L415.05,227.75L416.68,227.48L416.68,237.57L418.31,237.31L418.31,245.53L419.94,245.28L419.94,265.11L421.56,264.9L421.56,269.55L423.19,269.36L423.19,292.42L424.82,292.29L424.82,294.01L426.45,293.88L426.45,298.17L428.07,298.06L428.07,300.29L429.7,300.18L429.7,306.67L429.7,306.67L431.33,306.59L431.33,314.69L431.33,314.69L432.96,314.64L432.96,315.7L432.96,315.7L434.59,315.65L434.59,316.89L436.21,316.84L436.21,317L436.21,317L437.84,316.95L437.84,317.11L437.84,317.11" style="vector-effect: non-scaling-stroke; fill: none; stroke: rgb(188, 189, 34); stroke-opacity: 1; stroke-width: 2px; opacity: 1;"/><g class="points"/></g><g class="trace scatter traceadba8b" style="stroke-miterlimit: 2; opacity: 1;"><path class="js-line" d="M1.49,0L59.61,0L59.61,8.05L81.96,5.89L83.45,5.79L107.3,4.52L107.3,8.92L144.56,6.67L144.56,9.9L189.26,7.62L190.75,7.56L190.75,10L192.24,9.92L192.24,12.31L193.73,12.22L193.73,14.56L195.22,14.45L198.2,14.24L198.2,16.5L204.17,16.04L204.17,18.21L217.58,17.14L217.58,19.16L222.05,18.8L222.05,20.75L223.54,20.63L223.54,22.55L225.03,22.41L225.03,24.29L228.01,24L228.01,25.84L233.97,25.24L233.97,27.02L238.44,26.55L238.44,28.29L257.81,26.33L257.81,27.94L259.31,27.79L259.31,29.37L265.27,28.77L265.27,30.31L269.74,29.85L269.74,31.35L269.74,32.84L271.23,32.67L271.23,34.14L272.72,33.97L274.21,33.8L274.21,35.24L281.66,34.41L281.66,35.8L283.15,35.63L283.15,37.01L284.64,36.84L284.64,38.19L287.62,37.84L287.62,39.18L289.11,39L289.11,40.32L289.11,41.62L290.6,41.43L290.6,42.72L292.09,42.53L292.09,45.07L293.58,44.87L295.07,44.67L295.07,45.91L295.07,47.14L296.56,46.94L296.56,48.15L298.05,47.95L298.05,52.69L299.54,52.47L299.54,57.04L301.03,56.8L301.03,57.92L302.52,57.68L304.01,57.45L304.01,58.55L304.01,61.79L305.5,61.55L305.5,63.66L306.99,63.41L306.99,72.5L308.48,72.23L308.48,75.11L309.97,74.83L309.97,83.98L311.46,83.68L311.46,85.43L312.95,85.12L312.95,89.38L314.44,89.07L314.44,91.54L315.94,91.23L315.94,97.57L317.43,97.25L318.92,96.93L318.92,97.7L318.92,99.22L320.41,98.89L320.41,99.64L321.9,99.32L321.9,100.06L323.39,99.74L323.39,102.67L324.88,102.34L324.88,105.19L326.37,104.86L326.37,106.94L327.86,106.62L327.86,117.1L329.35,116.75L329.35,131.28L330.84,130.92L330.84,136.7L332.33,136.34L332.33,139.84L333.82,139.48L333.82,140.95L335.31,140.59L335.31,145.76L336.8,145.4L336.8,151.58L338.29,151.22L338.29,154.98L339.78,154.62L339.78,155.02L341.27,154.66L341.27,155.07L342.76,154.71L342.76,168.17L344.25,167.81L344.25,183.12L345.74,182.77L345.74,190.8L347.23,190.45L347.23,200.12L348.72,199.78L348.72,205.05L350.21,204.72L350.21,208.26L351.7,207.93L351.7,217.62L353.19,217.31L353.19,222.27L354.68,221.97L354.68,223.43L356.17,223.13L356.17,229.14L357.66,228.85L357.66,230.75L359.15,230.46L359.15,237.42L360.64,237.14L360.64,243.38L362.13,243.12L362.13,256.5L363.62,256.26L363.62,267.87L365.11,267.66L365.11,270.81L366.6,270.61L366.6,276.17L368.09,275.98L368.09,279.4L369.58,279.23L369.58,279.7L371.07,279.53L371.07,280.71L372.56,280.54L372.56,282.45L374.06,282.29L374.06,283.57L375.55,283.41L375.55,283.9L377.04,283.75L377.04,284.7L378.53,284.54L378.53,290.42L380.02,290.29L380.02,290.79L381.51,290.65L381.51,291.35L383,291.22L383,297.17L384.49,297.05L384.49,297.69L385.98,297.58L385.98,306.29L387.47,306.21L387.47,310.4L388.96,310.33L388.96,312.02L388.96,312.02L390.45,311.96L391.94,311.91L391.94,312.66L391.94,312.67L391.94,312.94L391.94,312.94L393.43,312.88L393.43,317.81L393.43,317.81L394.92,317.76L394.92,319.95L396.41,319.91L396.41,322.16L396.41,322.16" style="vector-effect: non-scaling-stroke; fill: none; stroke: rgb(23, 190, 207); stroke-opacity: 1; stroke-width: 2px; opacity: 1;"/><g class="points"/></g></g></g><g class="overplot"/><path class="xlines-above crisp" transform="translate(60,60)" d="M-1,330.5H459" style="fill: none; stroke-width: 1px; stroke: rgb(0, 0, 0); stroke-opacity: 0;"/><path class="ylines-above crisp" transform="translate(60,60)" d="M-0.5,0V330" style="fill: none; stroke-width: 1px; stroke: rgb(0, 0, 0); stroke-opacity: 0;"/><g class="overlines-above"/><g class="xaxislayer-above" transform="translate(60,60)"><g class="xtick"><text text-anchor="middle" x="0" y="343" transform="translate(0,0)" style="font-family: 'Open Sans', verdana, arial, sans-serif; font-size: 12px; fill: rgb(68, 68, 68); fill-opacity: 1; white-space: pre;">0</text></g><g class="xtick"><text text-anchor="middle" x="0" y="343" transform="translate(91.8,0)" style="font-family: 'Open Sans', verdana, arial, sans-serif; font-size: 12px; fill: rgb(68, 68, 68); fill-opacity: 1; white-space: pre;">0.2</text></g><g class="xtick"><text text-anchor="middle" x="0" y="343" transform="translate(183.6,0)" style="font-family: 'Open Sans', verdana, arial, sans-serif; font-size: 12px; fill: rgb(68, 68, 68); fill-opacity: 1; white-space: pre;">0.4</text></g><g class="xtick"><text text-anchor="middle" x="0" y="343" transform="translate(275.4,0)" style="font-family: 'Open Sans', verdana, arial, sans-serif; font-size: 12px; fill: rgb(68, 68, 68); fill-opacity: 1; white-space: pre;">0.6</text></g><g class="xtick"><text text-anchor="middle" x="0" y="343" transform="translate(367.2,0)" style="font-family: 'Open Sans', verdana, arial, sans-serif; font-size: 12px; fill: rgb(68, 68, 68); fill-opacity: 1; white-space: pre;">0.8</text></g><g class="xtick"><text text-anchor="middle" x="0" y="343" transform="translate(459,0)" style="font-family: 'Open Sans', verdana, arial, sans-serif; font-size: 12px; fill: rgb(68, 68, 68); fill-opacity: 1; white-space: pre;">1</text></g></g><g class="yaxislayer-above" transform="translate(60,60)"><g class="ytick"><text text-anchor="end" x="-1" y="4.199999999999999" transform="translate(0,330)" style="font-family: 'Open Sans', verdana, arial, sans-serif; font-size: 12px; fill: rgb(68, 68, 68); fill-opacity: 1; white-space: pre;">0</text></g><g class="ytick"><text text-anchor="end" x="-1" y="4.199999999999999" transform="translate(0,264)" style="font-family: 'Open Sans', verdana, arial, sans-serif; font-size: 12px; fill: rgb(68, 68, 68); fill-opacity: 1; white-space: pre;">0.2</text></g><g class="ytick"><text text-anchor="end" x="-1" y="4.199999999999999" transform="translate(0,198)" style="font-family: 'Open Sans', verdana, arial, sans-serif; font-size: 12px; fill: rgb(68, 68, 68); fill-opacity: 1; white-space: pre;">0.4</text></g><g class="ytick"><text text-anchor="end" x="-1" y="4.199999999999999" transform="translate(0,132)" style="font-family: 'Open Sans', verdana, arial, sans-serif; font-size: 12px; fill: rgb(68, 68, 68); fill-opacity: 1; white-space: pre;">0.6</text></g><g class="ytick"><text text-anchor="end" x="-1" y="4.199999999999999" transform="translate(0,66)" style="font-family: 'Open Sans', verdana, arial, sans-serif; font-size: 12px; fill: rgb(68, 68, 68); fill-opacity: 1; white-space: pre;">0.8</text></g><g class="ytick"><text text-anchor="end" x="-1" y="4.199999999999999" transform="translate(0,0)" style="font-family: 'Open Sans', verdana, arial, sans-serif; font-size: 12px; fill: rgb(68, 68, 68); fill-opacity: 1; white-space: pre;">1</text></g></g><g class="overaxes-above"/></g></g><g class="ternarylayer"/><g class="geolayer"/><g class="layer-above"><g class="imagelayer"/><g class="shapelayer"/></g><g class="pielayer"/><g class="glimages"/><defs id="topdefs-715292"><g class="clips"/><clipPath id="legend715292"><rect width="160" height="330" x="0" y="0"/></clipPath></defs><g class="infolayer"><g class="g-gtitle"><text class="gtitle" x="350" y="30" text-anchor="middle" style="font-family: 'Open Sans', verdana, arial, sans-serif; font-size: 17px; fill: rgb(68, 68, 68); opacity: 1; font-weight: normal; white-space: pre;">PR - 72.78% mAP [40000]</text></g><g class="legend" pointer-events="all" transform="translate(528.1800000000001, 60)"><rect class="bg" shape-rendering="crispEdges" width="160" height="330" x="0" y="0" style="stroke: rgb(68, 68, 68); stroke-opacity: 1; fill: rgb(255, 255, 255); fill-opacity: 1; stroke-width: 0px;"/><g class="scrollbox" transform="translate(0, 0)" clip-path="url(#legend715292)"><g class="groups"><g class="traces" transform="translate(0, 14.5)" style="opacity: 1;"><g class="layers" style="opacity: 1;"><g class="legendfill"/><g class="legendlines"><path class="js-line" d="M5,0h30" style="fill: none; stroke: rgb(31, 119, 180); stroke-opacity: 1; stroke-width: 2px;"/></g><g class="legendsymbols"><g class="legendpoints"/></g></g><text class="legendtext user-select-none" text-anchor="start" x="40" y="4.680000000000001" style="font-family: 'Open Sans', verdana, arial, sans-serif; font-size: 12px; fill: rgb(68, 68, 68); fill-opacity: 1; white-space: pre;">aeroplane: 75.5</text><rect class="legendtoggle" pointer-events="all" x="0" y="-9.5" width="200" height="19" style="cursor: pointer; fill: rgb(0, 0, 0); fill-opacity: 0;"/></g><g class="traces" transform="translate(0, 33.5)" style="opacity: 1;"><g class="layers" style="opacity: 1;"><g class="legendfill"/><g class="legendlines"><path class="js-line" d="M5,0h30" style="fill: none; stroke: rgb(255, 127, 14); stroke-opacity: 1; stroke-width: 2px;"/></g><g class="legendsymbols"><g class="legendpoints"/></g></g><text class="legendtext user-select-none" text-anchor="start" x="40" y="4.680000000000001" style="font-family: 'Open Sans', verdana, arial, sans-serif; font-size: 12px; fill: rgb(68, 68, 68); fill-opacity: 1; white-space: pre;">bicycle: 81.7</text><rect class="legendtoggle" pointer-events="all" x="0" y="-9.5" width="200" height="19" style="cursor: pointer; fill: rgb(0, 0, 0); fill-opacity: 0;"/></g><g class="traces" transform="translate(0, 52.5)" style="opacity: 1;"><g class="layers" style="opacity: 1;"><g class="legendfill"/><g class="legendlines"><path class="js-line" d="M5,0h30" style="fill: none; stroke: rgb(44, 160, 44); stroke-opacity: 1; stroke-width: 2px;"/></g><g class="legendsymbols"><g class="legendpoints"/></g></g><text class="legendtext user-select-none" text-anchor="start" x="40" y="4.680000000000001" style="font-family: 'Open Sans', verdana, arial, sans-serif; font-size: 12px; fill: rgb(68, 68, 68); fill-opacity: 1; white-space: pre;">bird: 74.21</text><rect class="legendtoggle" pointer-events="all" x="0" y="-9.5" width="200" height="19" style="cursor: pointer; fill: rgb(0, 0, 0); fill-opacity: 0;"/></g><g class="traces" transform="translate(0, 71.5)" style="opacity: 1;"><g class="layers" style="opacity: 1;"><g class="legendfill"/><g class="legendlines"><path class="js-line" d="M5,0h30" style="fill: none; stroke: rgb(214, 39, 40); stroke-opacity: 1; stroke-width: 2px;"/></g><g class="legendsymbols"><g class="legendpoints"/></g></g><text class="legendtext user-select-none" text-anchor="start" x="40" y="4.680000000000001" style="font-family: 'Open Sans', verdana, arial, sans-serif; font-size: 12px; fill: rgb(68, 68, 68); fill-opacity: 1; white-space: pre;">boat: 57.12</text><rect class="legendtoggle" pointer-events="all" x="0" y="-9.5" width="200" height="19" style="cursor: pointer; fill: rgb(0, 0, 0); fill-opacity: 0;"/></g><g class="traces" transform="translate(0, 90.5)" style="opacity: 1;"><g class="layers" style="opacity: 1;"><g class="legendfill"/><g class="legendlines"><path class="js-line" d="M5,0h30" style="fill: none; stroke: rgb(148, 103, 189); stroke-opacity: 1; stroke-width: 2px;"/></g><g class="legendsymbols"><g class="legendpoints"/></g></g><text class="legendtext user-select-none" text-anchor="start" x="40" y="4.680000000000001" style="font-family: 'Open Sans', verdana, arial, sans-serif; font-size: 12px; fill: rgb(68, 68, 68); fill-opacity: 1; white-space: pre;">bottle: 43.38</text><rect class="legendtoggle" pointer-events="all" x="0" y="-9.5" width="200" height="19" style="cursor: pointer; fill: rgb(0, 0, 0); fill-opacity: 0;"/></g><g class="traces" transform="translate(0, 109.5)" style="opacity: 1;"><g class="layers" style="opacity: 1;"><g class="legendfill"/><g class="legendlines"><path class="js-line" d="M5,0h30" style="fill: none; stroke: rgb(140, 86, 75); stroke-opacity: 1; stroke-width: 2px;"/></g><g class="legendsymbols"><g class="legendpoints"/></g></g><text class="legendtext user-select-none" text-anchor="start" x="40" y="4.680000000000001" style="font-family: 'Open Sans', verdana, arial, sans-serif; font-size: 12px; fill: rgb(68, 68, 68); fill-opacity: 1; white-space: pre;">bus: 78.78</text><rect class="legendtoggle" pointer-events="all" x="0" y="-9.5" width="200" height="19" style="cursor: pointer; fill: rgb(0, 0, 0); fill-opacity: 0;"/></g><g class="traces" transform="translate(0, 128.5)" style="opacity: 1;"><g class="layers" style="opacity: 1;"><g class="legendfill"/><g class="legendlines"><path class="js-line" d="M5,0h30" style="fill: none; stroke: rgb(227, 119, 194); stroke-opacity: 1; stroke-width: 2px;"/></g><g class="legendsymbols"><g class="legendpoints"/></g></g><text class="legendtext user-select-none" text-anchor="start" x="40" y="4.680000000000001" style="font-family: 'Open Sans', verdana, arial, sans-serif; font-size: 12px; fill: rgb(68, 68, 68); fill-opacity: 1; white-space: pre;">car: 81.3</text><rect class="legendtoggle" pointer-events="all" x="0" y="-9.5" width="200" height="19" style="cursor: pointer; fill: rgb(0, 0, 0); fill-opacity: 0;"/></g><g class="traces" transform="translate(0, 147.5)" style="opacity: 1;"><g class="layers" style="opacity: 1;"><g class="legendfill"/><g class="legendlines"><path class="js-line" d="M5,0h30" style="fill: none; stroke: rgb(127, 127, 127); stroke-opacity: 1; stroke-width: 2px;"/></g><g class="legendsymbols"><g class="legendpoints"/></g></g><text class="legendtext user-select-none" text-anchor="start" x="40" y="4.680000000000001" style="font-family: 'Open Sans', verdana, arial, sans-serif; font-size: 12px; fill: rgb(68, 68, 68); fill-opacity: 1; white-space: pre;">cat: 88.59</text><rect class="legendtoggle" pointer-events="all" x="0" y="-9.5" width="200" height="19" style="cursor: pointer; fill: rgb(0, 0, 0); fill-opacity: 0;"/></g><g class="traces" transform="translate(0, 166.5)" style="opacity: 1;"><g class="layers" style="opacity: 1;"><g class="legendfill"/><g class="legendlines"><path class="js-line" d="M5,0h30" style="fill: none; stroke: rgb(188, 189, 34); stroke-opacity: 1; stroke-width: 2px;"/></g><g class="legendsymbols"><g class="legendpoints"/></g></g><text class="legendtext user-select-none" text-anchor="start" x="40" y="4.680000000000001" style="font-family: 'Open Sans', verdana, arial, sans-serif; font-size: 12px; fill: rgb(68, 68, 68); fill-opacity: 1; white-space: pre;">chair: 52.25</text><rect class="legendtoggle" pointer-events="all" x="0" y="-9.5" width="200" height="19" style="cursor: pointer; fill: rgb(0, 0, 0); fill-opacity: 0;"/></g><g class="traces" transform="translate(0, 185.5)" style="opacity: 1;"><g class="layers" style="opacity: 1;"><g class="legendfill"/><g class="legendlines"><path class="js-line" d="M5,0h30" style="fill: none; stroke: rgb(23, 190, 207); stroke-opacity: 1; stroke-width: 2px;"/></g><g class="legendsymbols"><g class="legendpoints"/></g></g><text class="legendtext user-select-none" text-anchor="start" x="40" y="4.680000000000001" style="font-family: 'Open Sans', verdana, arial, sans-serif; font-size: 12px; fill: rgb(68, 68, 68); fill-opacity: 1; white-space: pre;">cow: 78.66</text><rect class="legendtoggle" pointer-events="all" x="0" y="-9.5" width="200" height="19" style="cursor: pointer; fill: rgb(0, 0, 0); fill-opacity: 0;"/></g><g class="traces" transform="translate(0, 204.5)" style="opacity: 1;"><g class="layers" style="opacity: 1;"><g class="legendfill"/><g class="legendlines"><path class="js-line" d="M5,0h30" style="fill: none; stroke: rgb(31, 119, 180); stroke-opacity: 1; stroke-width: 2px;"/></g><g class="legendsymbols"><g class="legendpoints"/></g></g><text class="legendtext user-select-none" text-anchor="start" x="40" y="4.680000000000001" style="font-family: 'Open Sans', verdana, arial, sans-serif; font-size: 12px; fill: rgb(68, 68, 68); fill-opacity: 1; white-space: pre;">diningtable: 72.12</text><rect class="legendtoggle" pointer-events="all" x="0" y="-9.5" width="200" height="19" style="cursor: pointer; fill: rgb(0, 0, 0); fill-opacity: 0;"/></g><g class="traces" transform="translate(0, 223.5)" style="opacity: 1;"><g class="layers" style="opacity: 1;"><g class="legendfill"/><g class="legendlines"><path class="js-line" d="M5,0h30" style="fill: none; stroke: rgb(255, 127, 14); stroke-opacity: 1; stroke-width: 2px;"/></g><g class="legendsymbols"><g class="legendpoints"/></g></g><text class="legendtext user-select-none" text-anchor="start" x="40" y="4.680000000000001" style="font-family: 'Open Sans', verdana, arial, sans-serif; font-size: 12px; fill: rgb(68, 68, 68); fill-opacity: 1; white-space: pre;">dog: 83.74</text><rect class="legendtoggle" pointer-events="all" x="0" y="-9.5" width="200" height="19" style="cursor: pointer; fill: rgb(0, 0, 0); fill-opacity: 0;"/></g><g class="traces" transform="translate(0, 242.5)" style="opacity: 1;"><g class="layers" style="opacity: 1;"><g class="legendfill"/><g class="legendlines"><path class="js-line" d="M5,0h30" style="fill: none; stroke: rgb(44, 160, 44); stroke-opacity: 1; stroke-width: 2px;"/></g><g class="legendsymbols"><g class="legendpoints"/></g></g><text class="legendtext user-select-none" text-anchor="start" x="40" y="4.680000000000001" style="font-family: 'Open Sans', verdana, arial, sans-serif; font-size: 12px; fill: rgb(68, 68, 68); fill-opacity: 1; white-space: pre;">horse: 85.49</text><rect class="legendtoggle" pointer-events="all" x="0" y="-9.5" width="200" height="19" style="cursor: pointer; fill: rgb(0, 0, 0); fill-opacity: 0;"/></g><g class="traces" transform="translate(0, 261.5)" style="opacity: 1;"><g class="layers" style="opacity: 1;"><g class="legendfill"/><g class="legendlines"><path class="js-line" d="M5,0h30" style="fill: none; stroke: rgb(214, 39, 40); stroke-opacity: 1; stroke-width: 2px;"/></g><g class="legendsymbols"><g class="legendpoints"/></g></g><text class="legendtext user-select-none" text-anchor="start" x="40" y="4.680000000000001" style="font-family: 'Open Sans', verdana, arial, sans-serif; font-size: 12px; fill: rgb(68, 68, 68); fill-opacity: 1; white-space: pre;">motorbike: 82.02</text><rect class="legendtoggle" pointer-events="all" x="0" y="-9.5" width="200" height="19" style="cursor: pointer; fill: rgb(0, 0, 0); fill-opacity: 0;"/></g><g class="traces" transform="translate(0, 280.5)" style="opacity: 1;"><g class="layers" style="opacity: 1;"><g class="legendfill"/><g class="legendlines"><path class="js-line" d="M5,0h30" style="fill: none; stroke: rgb(148, 103, 189); stroke-opacity: 1; stroke-width: 2px;"/></g><g class="legendsymbols"><g class="legendpoints"/></g></g><text class="legendtext user-select-none" text-anchor="start" x="40" y="4.680000000000001" style="font-family: 'Open Sans', verdana, arial, sans-serif; font-size: 12px; fill: rgb(68, 68, 68); fill-opacity: 1; white-space: pre;">person: 74.51</text><rect class="legendtoggle" pointer-events="all" x="0" y="-9.5" width="200" height="19" style="cursor: pointer; fill: rgb(0, 0, 0); fill-opacity: 0;"/></g><g class="traces" transform="translate(0, 299.5)" style="opacity: 1;"><g class="layers" style="opacity: 1;"><g class="legendfill"/><g class="legendlines"><path class="js-line" d="M5,0h30" style="fill: none; stroke: rgb(140, 86, 75); stroke-opacity: 1; stroke-width: 2px;"/></g><g class="legendsymbols"><g class="legendpoints"/></g></g><text class="legendtext user-select-none" text-anchor="start" x="40" y="4.680000000000001" style="font-family: 'Open Sans', verdana, arial, sans-serif; font-size: 12px; fill: rgb(68, 68, 68); fill-opacity: 1; white-space: pre;">pottedplant: 42.89</text><rect class="legendtoggle" pointer-events="all" x="0" y="-9.5" width="200" height="19" style="cursor: pointer; fill: rgb(0, 0, 0); fill-opacity: 0;"/></g><g class="traces" transform="translate(0, 318.5)" style="opacity: 1;"><g class="layers" style="opacity: 1;"><g class="legendfill"/><g class="legendlines"><path class="js-line" d="M5,0h30" style="fill: none; stroke: rgb(227, 119, 194); stroke-opacity: 1; stroke-width: 2px;"/></g><g class="legendsymbols"><g class="legendpoints"/></g></g><text class="legendtext user-select-none" text-anchor="start" x="40" y="4.680000000000001" style="font-family: 'Open Sans', verdana, arial, sans-serif; font-size: 12px; fill: rgb(68, 68, 68); fill-opacity: 1; white-space: pre;">sheep: 76.99</text><rect class="legendtoggle" pointer-events="all" x="0" y="-9.5" width="200" height="19" style="cursor: pointer; fill: rgb(0, 0, 0); fill-opacity: 0;"/></g><g class="traces" transform="translate(0, 337.5)" style="opacity: 1;"><g class="layers" style="opacity: 1;"><g class="legendfill"/><g class="legendlines"><path class="js-line" d="M5,0h30" style="fill: none; stroke: rgb(127, 127, 127); stroke-opacity: 1; stroke-width: 2px;"/></g><g class="legendsymbols"><g class="legendpoints"/></g></g><text class="legendtext user-select-none" text-anchor="start" x="40" y="4.680000000000001" style="font-family: 'Open Sans', verdana, arial, sans-serif; font-size: 12px; fill: rgb(68, 68, 68); fill-opacity: 1; white-space: pre;">sofa: 71.37</text><rect class="legendtoggle" pointer-events="all" x="0" y="-9.5" width="200" height="19" style="cursor: pointer; fill: rgb(0, 0, 0); fill-opacity: 0;"/></g><g class="traces" transform="translate(0, 356.5)" style="opacity: 1;"><g class="layers" style="opacity: 1;"><g class="legendfill"/><g class="legendlines"><path class="js-line" d="M5,0h30" style="fill: none; stroke: rgb(188, 189, 34); stroke-opacity: 1; stroke-width: 2px;"/></g><g class="legendsymbols"><g class="legendpoints"/></g></g><text class="legendtext user-select-none" text-anchor="start" x="40" y="4.680000000000001" style="font-family: 'Open Sans', verdana, arial, sans-serif; font-size: 12px; fill: rgb(68, 68, 68); fill-opacity: 1; white-space: pre;">train: 83.06</text><rect class="legendtoggle" pointer-events="all" x="0" y="-9.5" width="200" height="19" style="cursor: pointer; fill: rgb(0, 0, 0); fill-opacity: 0;"/></g><g class="traces" transform="translate(0, 375.5)" style="opacity: 1;"><g class="layers" style="opacity: 1;"><g class="legendfill"/><g class="legendlines"><path class="js-line" d="M5,0h30" style="fill: none; stroke: rgb(23, 190, 207); stroke-opacity: 1; stroke-width: 2px;"/></g><g class="legendsymbols"><g class="legendpoints"/></g></g><text class="legendtext user-select-none" text-anchor="start" x="40" y="4.680000000000001" style="font-family: 'Open Sans', verdana, arial, sans-serif; font-size: 12px; fill: rgb(68, 68, 68); fill-opacity: 1; white-space: pre;">tvmonitor: 71.96</text><rect class="legendtoggle" pointer-events="all" x="0" y="-9.5" width="200" height="19" style="cursor: pointer; fill: rgb(0, 0, 0); fill-opacity: 0;"/></g></g></g><rect class="scrollbar" rx="20" ry="2" width="0" height="0" style="fill: rgb(128, 139, 164); fill-opacity: 1;"/></g><g class="g-xtitle"><text class="xtitle" x="289.5" y="442" text-anchor="middle" style="font-family: 'Open Sans', verdana, arial, sans-serif; font-size: 14px; fill: rgb(68, 68, 68); opacity: 1; font-weight: normal; white-space: pre;">Recall</text></g><g class="g-ytitle"><text class="ytitle" transform="rotate(-90,22,225) translate(0, 0)" x="22" y="225" text-anchor="middle" style="font-family: 'Open Sans', verdana, arial, sans-serif; font-size: 14px; fill: rgb(68, 68, 68); opacity: 1; font-weight: normal; white-space: pre;">Precision</text></g></g></svg>