<svg class="main-svg" xmlns="http://www.w3.org/2000/svg" xmlns:xlink="http://www.w3.org/1999/xlink" width="700" height="450" style="" viewBox="0 0 700 450"><rect x="0" y="0" width="700" height="450" style="fill: rgb(255, 255, 255); fill-opacity: 1;"/><defs id="defs-01c2d0"><g class="clips"><clipPath class="plotclip" id="clip01c2d0xyplot"><rect width="580" height="330"/></clipPath><clipPath class="axesclip" id="clip01c2d0x"><rect x="60" y="0" width="580" height="450"/></clipPath><clipPath class="axesclip" id="clip01c2d0y"><rect x="0" y="60" width="700" height="330"/></clipPath><clipPath class="axesclip" id="clip01c2d0xy"><rect x="60" y="60" width="580" height="330"/></clipPath></g><g class="gradients"/></defs><g class="bglayer"><rect class="bg" x="60" y="60" width="580" height="330" style="fill: rgb(255, 255, 255); fill-opacity: 1; stroke-width: 0;"/></g><g class="layer-below"><g class="imagelayer"/><g class="shapelayer"/></g><g class="cartesianlayer"><g class="subplot xy"><g class="layer-subplot"><g class="shapelayer"/><g class="imagelayer"/></g><g class="gridlayer" transform="translate(60,60)"><path class="xgrid crisp" d="M0,0v330" transform="translate(116,0)" style="stroke: rgb(238, 238, 238); stroke-opacity: 1; stroke-width: 1px;"/><path class="xgrid crisp" d="M0,0v330" transform="translate(232,0)" style="stroke: rgb(238, 238, 238); stroke-opacity: 1; stroke-width: 1px;"/><path class="xgrid crisp" d="M0,0v330" transform="translate(348,0)" style="stroke: rgb(238, 238, 238); stroke-opacity: 1; stroke-width: 1px;"/><path class="xgrid crisp" d="M0,0v330" transform="translate(464,0)" style="stroke: rgb(238, 238, 238); stroke-opacity: 1; stroke-width: 1px;"/><path class="ygrid crisp" d="M0,0h580" transform="translate(0,264)" style="stroke: rgb(238, 238, 238); stroke-opacity: 1; stroke-width: 1px;"/><path class="ygrid crisp" d="M0,0h580" transform="translate(0,198)" style="stroke: rgb(238, 238, 238); stroke-opacity: 1; stroke-width: 1px;"/><path class="ygrid crisp" d="M0,0h580" transform="translate(0,132)" style="stroke: rgb(238, 238, 238); stroke-opacity: 1; stroke-width: 1px;"/><path class="ygrid crisp" d="M0,0h580" transform="translate(0,66)" style="stroke: rgb(238, 238, 238); stroke-opacity: 1; stroke-width: 1px;"/></g><g class="overgrid"/><g class="zerolinelayer" transform="translate(60,60)"><path class="xzl zl crisp" d="M0,0v330" transform="translate(0,0)" style="stroke: rgb(68, 68, 68); stroke-opacity: 1; stroke-width: 1px;"/><path class="yzl zl crisp" d="M0,0h580" transform="translate(0,330)" style="stroke: rgb(68, 68, 68); stroke-opacity: 1; stroke-width: 1px;"/></g><g class="overzero"/><path class="xlines-below"/><path class="ylines-below"/><g class="overlines-below"/><g class="xaxislayer-below"/><g class="yaxislayer-below"/><g class="overaxes-below"/><g class="plot" transform="translate(60, 60)" clip-path="url(#clip01c2d0xyplot)"><g class="imagelayer"/><g class="maplayer"/><g class="barlayer"/><g class="carpetlayer"/><g class="boxlayer"/><g class="scatterlayer"><g class="trace scatter tracece9a58" style="stroke-miterlimit: 2; opacity: 1;"><path class="js-line" d="M0.05,0L1.98,0L1.98,7.86L3.42,4.58L3.47,4.52L5.98,2.64L6.03,2.62L7.71,2.05L7.71,4.07L10.51,3L10.51,4.48L15.96,2.96L16,2.96L25.07,1.89L25.07,2.52L34.18,2.31L34.23,2.31L45.26,1.75L45.26,2.1L50.52,2.19L50.52,2.5L62.76,2.52L62.76,2.76L75.59,3.33L75.59,3.54L82.91,3.79L82.91,3.98L92.94,4.06L92.99,4.06L104.99,4.04L104.99,4.19L110.05,4.56L110.05,4.7L122.1,5.38L122.1,5.51L137.24,5.25L137.29,5.25L144.52,5.52L144.52,5.63L153.29,5.91L153.29,6.01L158.21,6.7L158.21,6.79L159.51,6.84L159.56,6.83L183.85,7.44L183.85,7.52L198.03,8.22L198.03,8.3L201.45,8.69L201.45,8.84L201.45,8.91L209.84,9.21L209.84,9.28L225.21,9.93L225.21,10L225.21,10.07L230.08,10.44L230.08,10.51L235.67,10.84L235.67,10.9L238.57,11.33L238.57,11.39L238.57,11.46L246.52,11.7L246.52,11.76L246.52,11.82L252.35,12.26L252.35,12.32L256.4,12.88L256.45,12.88L257.65,13.39L257.7,13.38L260.64,13.63L260.69,13.63L262.43,14.1L262.48,14.1L268.36,14.62L268.4,14.61L272.89,15.34L272.89,15.39L278.43,16.24L278.48,16.24L287.25,17.32L287.3,17.31L301.14,20.28L301.18,20.27L311.74,22.45L311.79,22.44L328.18,26.11L328.18,26.15L330.4,26.56L330.44,26.56L332.47,27.18L332.52,27.17L333.58,27.46L333.63,27.45L335.89,28.04L335.89,28.08L337.82,28.6L337.87,28.6L341.72,30.5L341.77,30.5L342.83,31.14L342.83,31.18L344.13,31.71L344.13,31.75L344.13,31.79L345.24,32.45L345.24,32.48L347.17,33.07L347.17,33.1L347.17,33.14L348.71,33.75L348.71,33.78L348.71,33.82L349.58,34.62L349.58,34.66L357.78,38.84L357.82,38.83L358.98,39.41L358.98,39.48L358.98,39.51L359.66,40.13L359.7,40.13L359.75,40.12L361.29,40.75L361.29,40.79L364.28,42.56L364.28,42.6L365.3,43.35L365.34,43.34L366.6,44.23L366.6,44.26L368.33,45.44L368.33,45.47L370.45,46.93L370.45,46.96L371.61,47.4L371.61,47.56L371.61,47.59L373.83,49.7L373.88,49.69L375.71,50.52L375.71,50.55L376.33,51.21L376.43,51.2L376.48,51.19L395.66,66.74L395.66,66.77L396.82,67.99L396.87,67.98L403.67,76.61L403.72,76.61L404.44,78.03L404.49,78.02L415.04,94.58L415.04,94.6L415.77,95.49L415.77,95.51L417.36,98.73L417.41,98.72L418.8,101.46L418.85,101.45L419.14,102.22L419.14,102.24L420.78,105.48L420.78,105.5L421.5,106.89L421.55,106.88L422.27,110.17L422.32,110.16L422.85,111.16L422.85,111.18L425.02,115.98L425.07,115.97L425.79,117.42L425.84,117.41L426.52,119.8L426.56,119.79L426.61,119.79L429.84,127.22L429.89,127.21L430.61,129.46L430.66,129.45L437.41,148.16L437.46,148.15L438.18,150.73L438.23,150.72L439.68,153.83L439.68,153.84L441.12,156.95L441.12,156.96L441.85,159.96L441.89,159.95L444.64,170.08L444.64,170.09L445.36,171.93L445.41,171.92L451.15,191.18L451.15,191.19L451.87,193.77L451.87,193.77L451.92,193.77L453.32,200.15L453.32,200.15L453.32,200.16L454.04,203.99L454.09,203.98L454.62,205.89L454.62,205.89L454.62,205.9L455.58,208.22L455.58,208.22L455.58,208.23L459.78,222.64L459.78,222.64L459.78,222.65L463.15,234.59L463.15,234.59L463.15,234.6L463.87,237.51L463.92,237.5L464.65,240.62L464.69,240.61L465.03,241.47L465.03,241.47L465.03,241.48L465.51,243.32L465.51,243.32L465.51,243.33L468.16,253.41L468.16,253.41L468.16,253.42L468.89,256.31L468.89,256.31L468.94,256.3L469.37,258.35L469.37,258.35L469.37,258.36L470.09,262.25L470.09,262.25L470.14,262.25L471.2,266.95L471.2,266.95L471.2,266.96L477.76,287.19L477.76,287.19L477.76,287.2L480.79,297.23L480.79,297.23L480.79,297.24L487.98,317.16L487.98,317.16L488.03,317.16L488.89,319.71L488.89,319.71L488.89,319.72L489.42,320.54L489.42,320.54" style="vector-effect: non-scaling-stroke; fill: none; stroke: rgb(31, 119, 180); stroke-opacity: 1; stroke-width: 2px; opacity: 1;"/><g class="points"/></g></g></g><g class="overplot"/><path class="xlines-above crisp" transform="translate(60,60)" d="M-1,330.5H580" style="fill: none; stroke-width: 1px; stroke: rgb(0, 0, 0); stroke-opacity: 0;"/><path class="ylines-above crisp" transform="translate(60,60)" d="M-0.5,0V330" style="fill: none; stroke-width: 1px; stroke: rgb(0, 0, 0); stroke-opacity: 0;"/><g class="overlines-above"/><g class="xaxislayer-above" transform="translate(60,60)"><g class="xtick"><text text-anchor="middle" x="0" y="343" transform="translate(0,0)" style="font-family: 'Open Sans', verdana, arial, sans-serif; font-size: 12px; fill: rgb(68, 68, 68); fill-opacity: 1; white-space: pre;">0</text></g><g class="xtick"><text text-anchor="middle" x="0" y="343" transform="translate(116,0)" style="font-family: 'Open Sans', verdana, arial, sans-serif; font-size: 12px; fill: rgb(68, 68, 68); fill-opacity: 1; white-space: pre;">0.2</text></g><g class="xtick"><text text-anchor="middle" x="0" y="343" transform="translate(232,0)" style="font-family: 'Open Sans', verdana, arial, sans-serif; font-size: 12px; fill: rgb(68, 68, 68); fill-opacity: 1; white-space: pre;">0.4</text></g><g class="xtick"><text text-anchor="middle" x="0" y="343" transform="translate(348,0)" style="font-family: 'Open Sans', verdana, arial, sans-serif; font-size: 12px; fill: rgb(68, 68, 68); fill-opacity: 1; white-space: pre;">0.6</text></g><g class="xtick"><text text-anchor="middle" x="0" y="343" transform="translate(464,0)" style="font-family: 'Open Sans', verdana, arial, sans-serif; font-size: 12px; fill: rgb(68, 68, 68); fill-opacity: 1; white-space: pre;">0.8</text></g><g class="xtick"><text text-anchor="middle" x="0" y="343" transform="translate(580,0)" style="font-family: 'Open Sans', verdana, arial, sans-serif; font-size: 12px; fill: rgb(68, 68, 68); fill-opacity: 1; white-space: pre;">1</text></g></g><g class="yaxislayer-above" transform="translate(60,60)"><g class="ytick"><text text-anchor="end" x="-1" y="4.199999999999999" transform="translate(0,330)" style="font-family: 'Open Sans', verdana, arial, sans-serif; font-size: 12px; fill: rgb(68, 68, 68); fill-opacity: 1; white-space: pre;">0</text></g><g class="ytick"><text text-anchor="end" x="-1" y="4.199999999999999" transform="translate(0,264)" style="font-family: 'Open Sans', verdana, arial, sans-serif; font-size: 12px; fill: rgb(68, 68, 68); fill-opacity: 1; white-space: pre;">0.2</text></g><g class="ytick"><text text-anchor="end" x="-1" y="4.199999999999999" transform="translate(0,198)" style="font-family: 'Open Sans', verdana, arial, sans-serif; font-size: 12px; fill: rgb(68, 68, 68); fill-opacity: 1; white-space: pre;">0.4</text></g><g class="ytick"><text text-anchor="end" x="-1" y="4.199999999999999" transform="translate(0,132)" style="font-family: 'Open Sans', verdana, arial, sans-serif; font-size: 12px; fill: rgb(68, 68, 68); fill-opacity: 1; white-space: pre;">0.6</text></g><g class="ytick"><text text-anchor="end" x="-1" y="4.199999999999999" transform="translate(0,66)" style="font-family: 'Open Sans', verdana, arial, sans-serif; font-size: 12px; fill: rgb(68, 68, 68); fill-opacity: 1; white-space: pre;">0.8</text></g><g class="ytick"><text text-anchor="end" x="-1" y="4.199999999999999" transform="translate(0,0)" style="font-family: 'Open Sans', verdana, arial, sans-serif; font-size: 12px; fill: rgb(68, 68, 68); fill-opacity: 1; white-space: pre;">1</text></g></g><g class="overaxes-above"/></g></g><g class="ternarylayer"/><g class="geolayer"/><g class="layer-above"><g class="imagelayer"/><g class="shapelayer"/></g><g class="pielayer"/><g class="glimages"/><defs id="topdefs-01c2d0"><g class="clips"/></defs><g class="infolayer"><g class="g-gtitle"><text class="gtitle" x="350" y="30" text-anchor="middle" style="font-family: 'Open Sans', verdana, arial, sans-serif; font-size: 17px; fill: rgb(68, 68, 68); opacity: 1; font-weight: normal; white-space: pre;">PR - 73.29% mAP [40000]</text></g><g class="g-xtitle"><text class="xtitle" x="350" y="442" text-anchor="middle" style="font-family: 'Open Sans', verdana, arial, sans-serif; font-size: 14px; fill: rgb(68, 68, 68); opacity: 1; font-weight: normal; white-space: pre;">Recall</text></g><g class="g-ytitle"><text class="ytitle" transform="rotate(-90,22,225) translate(0, 0)" x="22" y="225" text-anchor="middle" style="font-family: 'Open Sans', verdana, arial, sans-serif; font-size: 14px; fill: rgb(68, 68, 68); opacity: 1; font-weight: normal; white-space: pre;">Precision</text></g></g></svg>