<?xml version="1.0" encoding="UTF-8" standalone="no"?>
<svg
   xmlns:dc="http://purl.org/dc/elements/1.1/"
   xmlns:cc="http://creativecommons.org/ns#"
   xmlns:rdf="http://www.w3.org/1999/02/22-rdf-syntax-ns#"
   xmlns:svg="http://www.w3.org/2000/svg"
   xmlns="http://www.w3.org/2000/svg"
   xmlns:sodipodi="http://sodipodi.sourceforge.net/DTD/sodipodi-0.dtd"
   xmlns:inkscape="http://www.inkscape.org/namespaces/inkscape"
   sodipodi:docname="invertedbottleneck.svg"
   inkscape:version="1.0 (1.0+r73+1)"
   id="svg8"
   version="1.1"
   viewBox="0 0 469.62113 108.42851"
   height="409.80856"
   width="1774.9459">
  <defs
     id="defs2">
    <clipPath
       id="p5e86a32d48">
      <rect
         id="rect1921"
         y="50.639999"
         x="111.03"
         width="579.42499"
         height="291.29999" />
    </clipPath>
    <clipPath
       id="clipPath6194">
      <rect
         id="rect6192"
         y="50.639999"
         x="111.03"
         width="579.42499"
         height="291.29999" />
    </clipPath>
    <clipPath
       id="clipPath6198">
      <rect
         id="rect6196"
         y="50.639999"
         x="111.03"
         width="579.42499"
         height="291.29999" />
    </clipPath>
    <clipPath
       id="clipPath6202">
      <rect
         id="rect6200"
         y="50.639999"
         x="111.03"
         width="579.42499"
         height="291.29999" />
    </clipPath>
    <clipPath
       id="clipPath6206">
      <rect
         id="rect6204"
         y="50.639999"
         x="111.03"
         width="579.42499"
         height="291.29999" />
    </clipPath>
    <clipPath
       id="clipPath6210">
      <rect
         id="rect6208"
         y="50.639999"
         x="111.03"
         width="579.42499"
         height="291.29999" />
    </clipPath>
    <clipPath
       id="clipPath6214">
      <rect
         id="rect6212"
         y="50.639999"
         x="111.03"
         width="579.42499"
         height="291.29999" />
    </clipPath>
    <clipPath
       id="clipPath6218">
      <rect
         id="rect6216"
         y="50.639999"
         x="111.03"
         width="579.42499"
         height="291.29999" />
    </clipPath>
    <clipPath
       id="clipPath6222">
      <rect
         id="rect6220"
         y="50.639999"
         x="111.03"
         width="579.42499"
         height="291.29999" />
    </clipPath>
    <clipPath
       id="clipPath6226">
      <rect
         id="rect6224"
         y="50.639999"
         x="111.03"
         width="579.42499"
         height="291.29999" />
    </clipPath>
    <clipPath
       id="clipPath6230">
      <rect
         id="rect6228"
         y="50.639999"
         x="111.03"
         width="579.42499"
         height="291.29999" />
    </clipPath>
    <clipPath
       id="clipPath6234">
      <rect
         id="rect6232"
         y="50.639999"
         x="111.03"
         width="579.42499"
         height="291.29999" />
    </clipPath>
    <clipPath
       id="clipPath6238">
      <rect
         id="rect6236"
         y="50.639999"
         x="111.03"
         width="579.42499"
         height="291.29999" />
    </clipPath>
    <clipPath
       id="clipPath6242">
      <rect
         id="rect6240"
         y="50.639999"
         x="111.03"
         width="579.42499"
         height="291.29999" />
    </clipPath>
    <clipPath
       id="p94ea90e9ab">
      <rect
         id="rect1924"
         y="50.639999"
         x="768.41498"
         width="579.42499"
         height="291.29999" />
    </clipPath>
    <clipPath
       id="clipPath6248">
      <rect
         id="rect6246"
         y="50.639999"
         x="768.41498"
         width="579.42499"
         height="291.29999" />
    </clipPath>
    <clipPath
       id="clipPath6252">
      <rect
         id="rect6250"
         y="50.639999"
         x="768.41498"
         width="579.42499"
         height="291.29999" />
    </clipPath>
    <clipPath
       id="clipPath6256">
      <rect
         id="rect6254"
         y="50.639999"
         x="768.41498"
         width="579.42499"
         height="291.29999" />
    </clipPath>
    <clipPath
       id="clipPath6260">
      <rect
         id="rect6258"
         y="50.639999"
         x="768.41498"
         width="579.42499"
         height="291.29999" />
    </clipPath>
    <clipPath
       id="clipPath6264">
      <rect
         id="rect6262"
         y="50.639999"
         x="768.41498"
         width="579.42499"
         height="291.29999" />
    </clipPath>
    <clipPath
       id="clipPath6268">
      <rect
         id="rect6266"
         y="50.639999"
         x="768.41498"
         width="579.42499"
         height="291.29999" />
    </clipPath>
    <clipPath
       id="clipPath6272">
      <rect
         id="rect6270"
         y="50.639999"
         x="768.41498"
         width="579.42499"
         height="291.29999" />
    </clipPath>
    <clipPath
       id="clipPath6276">
      <rect
         id="rect6274"
         y="50.639999"
         x="768.41498"
         width="579.42499"
         height="291.29999" />
    </clipPath>
    <clipPath
       id="clipPath6280">
      <rect
         id="rect6278"
         y="50.639999"
         x="768.41498"
         width="579.42499"
         height="291.29999" />
    </clipPath>
    <clipPath
       id="clipPath6284">
      <rect
         id="rect6282"
         y="50.639999"
         x="768.41498"
         width="579.42499"
         height="291.29999" />
    </clipPath>
    <clipPath
       id="clipPath6288">
      <rect
         id="rect6286"
         y="50.639999"
         x="768.41498"
         width="579.42499"
         height="291.29999" />
    </clipPath>
    <clipPath
       id="clipPath6292">
      <rect
         id="rect6290"
         y="50.639999"
         x="768.41498"
         width="579.42499"
         height="291.29999" />
    </clipPath>
    <clipPath
       id="clipPath6296">
      <rect
         id="rect6294"
         y="50.639999"
         x="768.41498"
         width="579.42499"
         height="291.29999" />
    </clipPath>
    <path
       id="DejaVuSans-52"
       d="m 44.390625,34.1875 q 3.171875,-1.078125 6.171875,-4.59375 3,-3.515625 6.03125,-9.671875 L 66.609375,0 H 56 l -9.3125,18.703125 q -3.625,7.328125 -7.015625,9.71875 -3.390625,2.390625 -9.25,2.390625 h -10.75 V 0 H 9.8125 v 72.90625 h 22.265625 q 12.5,0 18.65625,-5.234375 6.15625,-5.21875 6.15625,-15.765625 0,-6.890625 -3.203125,-11.4375 -3.203125,-4.53125 -9.296875,-6.28125 z m -24.71875,30.609375 v -25.875 h 12.40625 q 7.125,0 10.765625,3.296875 3.640625,3.296875 3.640625,9.6875 0,6.390625 -3.640625,9.640625 -3.640625,3.25 -10.765625,3.25 z"
       inkscape:connector-curvature="0" />
    <path
       id="DejaVuSans-47"
       d="M 59.515625,10.40625 V 29.984375 H 43.40625 v 8.109375 h 25.875 V 6.78125 Q 63.578125,2.734375 56.6875,0.65625 49.8125,-1.421875 42,-1.421875 q -17.09375,0 -26.75,9.984375 -9.640625,10 -9.640625,27.8125 0,17.875 9.640625,27.859375 9.65625,9.984375 26.75,9.984375 7.125,0 13.546875,-1.765625 6.421875,-1.75 11.84375,-5.171875 v -10.5 q -5.46875,4.640625 -11.625,6.984375 -6.15625,2.34375 -12.9375,2.34375 -13.390625,0 -20.109375,-7.46875 -6.703125,-7.46875 -6.703125,-22.265625 0,-14.75 6.703125,-22.21875 6.71875,-7.46875 20.109375,-7.46875 5.21875,0 9.3125,0.90625 4.109375,0.90625 7.375,2.8125 z"
       inkscape:connector-curvature="0" />
    <path
       id="DejaVuSans-42"
       d="M 19.671875,34.8125 V 8.109375 H 35.5 q 7.953125,0 11.78125,3.296875 3.84375,3.296875 3.84375,10.078125 0,6.84375 -3.84375,10.078125 -3.828125,3.25 -11.78125,3.25 z m 0,29.984375 V 42.828125 H 34.28125 q 7.21875,0 10.75,2.703125 3.546875,2.71875 3.546875,8.28125 0,5.515625 -3.546875,8.25 -3.53125,2.734375 -10.75,2.734375 z M 9.8125,72.90625 h 25.203125 q 11.28125,0 17.375,-4.6875 Q 58.5,63.53125 58.5,54.890625 58.5,48.1875 55.375,44.234375 52.25,40.28125 46.1875,39.3125 53.46875,37.75 57.5,32.78125 q 4.03125,-4.953125 4.03125,-12.375 0,-9.765625 -6.640625,-15.09375 Q 48.25,0 35.984375,0 H 9.8125 Z"
       inkscape:connector-curvature="0" />
    <path
       id="DejaVuSans-44"
       d="M 19.671875,64.796875 V 8.109375 H 31.59375 q 15.09375,0 22.09375,6.828125 7,6.84375 7,21.59375 0,14.640625 -7,21.453125 -7,6.8125 -22.09375,6.8125 z M 9.8125,72.90625 h 20.265625 q 21.1875,0 31.09375,-8.8125 9.921875,-8.8125 9.921875,-27.5625 0,-18.859375 -9.96875,-27.703125 Q 51.171875,0 30.078125,0 H 9.8125 Z"
       inkscape:connector-curvature="0" />
    <path
       id="DejaVuSans-20"
       d=""
       inkscape:connector-curvature="0" />
    <path
       id="DejaVuSans-45"
       d="m 9.8125,72.90625 h 46.09375 v -8.3125 H 19.671875 V 43.015625 h 34.71875 V 34.71875 H 19.671875 V 8.296875 H 56.78125 V 0 H 9.8125 Z"
       inkscape:connector-curvature="0" />
    <path
       id="DejaVuSans-61"
       d="m 34.28125,27.484375 q -10.890625,0 -15.09375,-2.484375 -4.203125,-2.484375 -4.203125,-8.5 0,-4.78125 3.15625,-7.59375 3.15625,-2.796875 8.5625,-2.796875 7.484375,0 12,5.296875 4.515625,5.296875 4.515625,14.078125 v 2 z m 17.921875,3.71875 V 0 H 43.21875 v 8.296875 q -3.078125,-4.96875 -7.671875,-7.34375 -4.59375,-2.375 -11.234375,-2.375 -8.390625,0 -13.359375,4.71875 Q 6,8.015625 6,15.921875 q 0,9.21875 6.171875,13.90625 6.1875,4.6875 18.4375,4.6875 H 43.21875 v 0.890625 q 0,6.203125 -4.078125,9.59375 -4.078125,3.390625 -11.453125,3.390625 -4.6875,0 -9.140625,-1.125 -4.4375,-1.125 -8.53125,-3.375 v 8.3125 q 4.921875,1.90625 9.5625,2.84375 Q 24.21875,56 28.609375,56 q 11.875,0 17.734375,-6.15625 5.859375,-6.140625 5.859375,-18.640625 z"
       inkscape:connector-curvature="0" />
    <path
       id="DejaVuSans-72"
       d="m 41.109375,46.296875 q -1.515625,0.875 -3.296875,1.28125 Q 36.03125,48 33.890625,48 26.265625,48 22.1875,43.046875 18.109375,38.09375 18.109375,28.8125 V 0 h -9.03125 v 54.6875 h 9.03125 v -8.5 q 2.84375,4.984375 7.375,7.390625 Q 30.03125,56 36.53125,56 q 0.921875,0 2.046875,-0.125 1.125,-0.109375 2.484375,-0.359375 z"
       inkscape:connector-curvature="0" />
    <path
       id="DejaVuSans-6c"
       d="M 9.421875,75.984375 H 18.40625 V 0 H 9.421875 Z"
       inkscape:connector-curvature="0" />
    <path
       id="DejaVuSans-79"
       d="M 32.171875,-5.078125 Q 28.375,-14.84375 24.75,-17.8125 q -3.609375,-2.984375 -9.65625,-2.984375 h -7.1875 v 7.515625 h 5.28125 q 3.703125,0 5.75,1.765625 2.0625,1.75 4.546875,8.296875 L 25.09375,0.875 2.984375,54.6875 H 12.5 L 29.59375,11.921875 46.6875,54.6875 h 9.515625 z"
       inkscape:connector-curvature="0" />
    <path
       id="DejaVuSans-4d"
       d="M 9.8125,72.90625 H 24.515625 L 43.109375,23.296875 61.8125,72.90625 H 76.515625 V 0 h -9.625 v 64.015625 l -18.796875,-50 H 38.1875 l -18.796875,50 V 0 H 9.8125 Z"
       inkscape:connector-curvature="0" />
    <path
       id="DejaVuSans-69"
       d="M 9.421875,54.6875 H 18.40625 V 0 H 9.421875 Z m 0,21.296875 H 18.40625 V 64.59375 H 9.421875 Z"
       inkscape:connector-curvature="0" />
    <path
       id="DejaVuSans-64"
       d="m 45.40625,46.390625 v 29.59375 h 8.984375 V 0 H 45.40625 v 8.203125 q -2.828125,-4.875 -7.15625,-7.25 -4.3125,-2.375 -10.375,-2.375 -9.90625,0 -16.140625,7.90625 -6.21875,7.921875 -6.21875,20.8125 0,12.890625 6.21875,20.796875 Q 17.96875,56 27.875,56 q 6.0625,0 10.375,-2.375 4.328125,-2.359375 7.15625,-7.234375 z M 14.796875,27.296875 q 0,-9.90625 4.078125,-15.546875 4.078125,-5.640625 11.203125,-5.640625 7.125,0 11.21875,5.640625 4.109375,5.640625 4.109375,15.546875 0,9.90625 -4.109375,15.546875 -4.09375,5.640625 -11.21875,5.640625 -7.125,0 -11.203125,-5.640625 -4.078125,-5.640625 -4.078125,-15.546875 z"
       inkscape:connector-curvature="0" />
    <path
       id="DejaVuSans-4c"
       d="m 9.8125,72.90625 h 9.859375 V 8.296875 h 35.5 V 0 H 9.8125 Z"
       inkscape:connector-curvature="0" />
    <path
       id="DejaVuSans-74"
       d="M 18.3125,70.21875 V 54.6875 h 18.5 v -6.984375 h -18.5 v -29.6875 q 0,-6.6875 1.828125,-8.59375 1.828125,-1.90625 7.453125,-1.90625 H 36.8125 V 0 H 27.59375 Q 17.1875,0 13.234375,3.875 9.28125,7.765625 9.28125,18.015625 v 29.6875 H 2.6875 V 54.6875 h 6.59375 v 15.53125 z"
       inkscape:connector-curvature="0" />
    <path
       id="DejaVuSans-65"
       d="m 56.203125,29.59375 v -4.390625 h -41.3125 q 0.59375,-9.28125 5.59375,-14.140625 5,-4.859375 13.9375,-4.859375 5.171875,0 10.03125,1.265625 4.859375,1.265625 9.65625,3.8125 v -8.5 q -4.84375,-2.046875 -9.921875,-3.125 -5.078125,-1.078125 -10.296875,-1.078125 -13.09375,0 -20.734375,7.609375 -7.640625,7.625 -7.640625,20.625 0,13.421875 7.25,21.296875 Q 20.015625,56 32.328125,56 q 11.03125,0 17.453125,-7.109375 6.421875,-7.09375 6.421875,-19.296875 z m -8.984375,2.640625 q -0.09375,7.359375 -4.125,11.75 -4.03125,4.40625 -10.671875,4.40625 -7.515625,0 -12.03125,-4.25 -4.515625,-4.25 -5.203125,-11.96875 z"
       inkscape:connector-curvature="0" />
    <path
       id="DejaVuSans-6f"
       d="m 30.609375,48.390625 q -7.21875,0 -11.421875,-5.640625 -4.203125,-5.640625 -4.203125,-15.453125 0,-9.8125 4.171875,-15.453125 4.1875,-5.640625 11.453125,-5.640625 7.1875,0 11.375,5.65625 4.203125,5.671875 4.203125,15.4375 0,9.71875 -4.203125,15.40625 -4.1875,5.6875 -11.375,5.6875 z m 0,7.609375 q 11.71875,0 18.40625,-7.625 6.703125,-7.609375 6.703125,-21.078125 0,-13.421875 -6.703125,-21.078125 -6.6875,-7.640625 -18.40625,-7.640625 -11.765625,0 -18.4375,7.640625 -6.65625,7.65625 -6.65625,21.078125 0,13.46875 6.65625,21.078125 Q 18.84375,56 30.609375,56 Z"
       inkscape:connector-curvature="0" />
    <path
       id="DejaVuSans-30"
       d="m 31.78125,66.40625 q -7.609375,0 -11.453125,-7.5 Q 16.5,51.421875 16.5,36.375 q 0,-14.984375 3.828125,-22.484375 3.84375,-7.5 11.453125,-7.5 7.671875,0 11.5,7.5 3.84375,7.5 3.84375,22.484375 0,15.046875 -3.84375,22.53125 -3.828125,7.5 -11.5,7.5 z m 0,7.8125 q 12.265625,0 18.734375,-9.703125 6.46875,-9.6875 6.46875,-28.140625 0,-18.40625 -6.46875,-28.109375 -6.46875,-9.6875 -18.734375,-9.6875 -12.25,0 -18.71875,9.6875 Q 6.59375,17.96875 6.59375,36.375 q 0,18.453125 6.46875,28.140625 6.46875,9.703125 18.71875,9.703125 z"
       inkscape:connector-curvature="0" />
    <path
       id="DejaVuSans-32"
       d="M 19.1875,8.296875 H 53.609375 V 0 H 7.328125 v 8.296875 q 5.609375,5.8125 15.296875,15.59375 9.703125,9.796875 12.1875,12.640625 4.734375,5.3125 6.609375,9 1.890625,3.6875 1.890625,7.25 0,5.8125 -4.078125,9.46875 -4.078125,3.671875 -10.625,3.671875 -4.640625,0 -9.796875,-1.609375 -5.140625,-1.609375 -11,-4.890625 v 9.96875 Q 13.765625,71.78125 18.9375,73 q 5.1875,1.21875 9.484375,1.21875 11.328125,0 18.0625,-5.671875 6.734375,-5.65625 6.734375,-15.125 0,-4.5 -1.6875,-8.53125 Q 49.859375,40.875 45.40625,35.40625 44.1875,33.984375 37.640625,27.21875 31.109375,20.453125 19.1875,8.296875 Z"
       inkscape:connector-curvature="0" />
    <path
       id="DejaVuSans-35"
       d="m 10.796875,72.90625 h 38.71875 v -8.3125 h -29.6875 V 46.734375 q 2.140625,0.734375 4.28125,1.09375 2.15625,0.359375 4.3125,0.359375 Q 40.625,48.1875 47.75,41.5 54.890625,34.8125 54.890625,23.390625 54.890625,11.625 47.5625,5.09375 40.234375,-1.421875 26.90625,-1.421875 q -4.59375,0 -9.359375,0.78125 -4.75,0.78125 -9.828125,2.34375 V 11.625 q 4.390625,-2.390625 9.078125,-3.5625 4.6875,-1.171875 9.90625,-1.171875 8.453125,0 13.375,4.4375 4.9375,4.4375 4.9375,12.0625 0,7.609375 -4.9375,12.046875 -4.921875,4.453125 -13.375,4.453125 -3.953125,0 -7.890625,-0.875 -3.921875,-0.875 -8.015625,-2.734375 z"
       inkscape:connector-curvature="0" />
    <path
       id="DejaVuSans-37"
       d="m 8.203125,72.90625 h 46.875 V 68.703125 L 28.609375,0 H 18.3125 L 43.21875,64.59375 H 8.203125 Z"
       inkscape:connector-curvature="0" />
    <path
       id="DejaVuSans-31"
       d="m 12.40625,8.296875 h 16.109375 v 55.625 L 10.984375,60.40625 v 8.984375 l 17.4375,3.515625 H 38.28125 V 8.296875 H 54.390625 V 0 H 12.40625 Z"
       inkscape:connector-curvature="0" />
    <path
       id="DejaVuSans-53"
       d="m 53.515625,70.515625 v -9.625 q -5.609375,2.6875 -10.59375,4 -4.984375,1.328125 -9.625,1.328125 -8.046875,0 -12.421875,-3.125 -4.375,-3.125 -4.375,-8.890625 0,-4.84375 2.90625,-7.3125 2.90625,-2.453125 11.015625,-3.96875 L 36.375,41.703125 Q 47.40625,39.59375 52.65625,34.296875 57.90625,29 57.90625,20.125 q 0,-10.609375 -7.109375,-16.078125 -7.09375,-5.46875 -20.8125,-5.46875 -5.171875,0 -11.015625,1.171875 Q 13.140625,0.921875 6.890625,3.21875 V 13.375 q 6,-3.359375 11.765625,-5.078125 5.765625,-1.703125 11.328125,-1.703125 8.4375,0 13.03125,3.3125 4.59375,3.328125 4.59375,9.484375 0,5.359375 -3.296875,8.390625 Q 41.015625,30.8125 33.5,32.328125 L 27.484375,33.5 q -11.03125,2.1875 -15.96875,6.875 -4.921875,4.6875 -4.921875,13.046875 0,9.671875 6.8125,15.234375 6.8125,5.5625 18.765625,5.5625 5.140625,0 10.453125,-0.9375 5.328125,-0.921875 10.890625,-2.765625 z"
       inkscape:connector-curvature="0" />
    <path
       id="DejaVuSans-70"
       d="m 18.109375,8.203125 v -29 H 9.078125 V 54.6875 h 9.03125 v -8.296875 q 2.84375,4.875 7.15625,7.234375 Q 29.59375,56 35.59375,56 q 9.96875,0 16.1875,-7.90625 6.234375,-7.90625 6.234375,-20.796875 0,-12.890625 -6.234375,-20.8125 -6.21875,-7.90625 -16.1875,-7.90625 -6,0 -10.328125,2.375 -4.3125,2.375 -7.15625,7.25 z M 48.6875,27.296875 q 0,9.90625 -4.078125,15.546875 -4.078125,5.640625 -11.203125,5.640625 -7.140625,0 -11.21875,-5.640625 -4.078125,-5.640625 -4.078125,-15.546875 0,-9.90625 4.078125,-15.546875 4.078125,-5.640625 11.21875,-5.640625 7.125,0 11.203125,5.640625 4.078125,5.640625 4.078125,15.546875 z"
       inkscape:connector-curvature="0" />
    <path
       id="DejaVuSans-28"
       d="M 31,75.875 Q 24.46875,64.65625 21.28125,53.65625 18.109375,42.671875 18.109375,31.390625 18.109375,20.125 21.3125,9.0625 24.515625,-2 31,-13.1875 H 23.1875 Q 15.875,-1.703125 12.234375,9.375 8.59375,20.453125 8.59375,31.390625 q 0,10.890625 3.609375,21.921875 3.625,11.046875 10.984375,22.5625 z"
       inkscape:connector-curvature="0" />
    <path
       id="DejaVuSans-46"
       d="m 9.8125,72.90625 h 41.890625 v -8.3125 H 19.671875 V 43.109375 h 28.90625 V 34.8125 H 19.671875 V 0 H 9.8125 Z"
       inkscape:connector-curvature="0" />
    <path
       id="DejaVuSans-50"
       d="M 19.671875,64.796875 V 37.40625 h 12.40625 q 6.890625,0 10.640625,3.5625 3.765625,3.5625 3.765625,10.15625 0,6.546875 -3.765625,10.109375 -3.75,3.5625 -10.640625,3.5625 z M 9.8125,72.90625 h 22.265625 q 12.265625,0 18.53125,-5.546875 6.28125,-5.546875 6.28125,-16.234375 0,-10.796875 -6.28125,-16.3125 -6.265625,-5.515625 -18.53125,-5.515625 H 19.671875 V 0 H 9.8125 Z"
       inkscape:connector-curvature="0" />
    <path
       id="DejaVuSans-29"
       d="m 8.015625,75.875 h 7.8125 q 7.3125,-11.515625 10.953125,-22.5625 3.640625,-11.03125 3.640625,-21.921875 0,-10.9375 -3.640625,-22.015625 -3.640625,-11.078125 -10.953125,-22.5625 h -7.8125 Q 14.5,-2 17.703125,9.0625 20.90625,20.125 20.90625,31.390625 q 0,11.28125 -3.203125,22.265625 -3.203125,11 -9.6875,22.21875 z"
       inkscape:connector-curvature="0" />
    <path
       id="DejaVuSans-55"
       d="m 8.6875,72.90625 h 9.921875 V 28.609375 q 0,-11.71875 4.234375,-16.875 4.25,-5.140625 13.78125,-5.140625 9.46875,0 13.71875,5.140625 4.25,5.15625 4.25,16.875 V 72.90625 H 64.5 V 27.390625 q 0,-14.25 -7.0625,-21.53125 -7.046875,-7.28125 -20.8125,-7.28125 -13.828125,0 -20.890625,7.28125 Q 8.6875,13.140625 8.6875,27.390625 Z"
       inkscape:connector-curvature="0" />
    <path
       id="DejaVuSans-3d"
       d="M 10.59375,45.40625 H 73.1875 V 37.203125 H 10.59375 Z m 0,-19.921875 H 73.1875 V 17.1875 H 10.59375 Z"
       inkscape:connector-curvature="0" />
    <path
       id="DejaVuSans-54"
       d="M -0.296875,72.90625 H 61.375 v -8.3125 H 35.5 V 0 H 25.59375 V 64.59375 H -0.296875 Z"
       inkscape:connector-curvature="0" />
    <path
       id="DejaVuSans-58"
       d="m 6.296875,72.90625 h 10.59375 L 35.015625,45.796875 53.21875,72.90625 H 63.8125 L 40.375,37.890625 65.375,0 H 54.78125 l -20.5,31 L 13.625,0 H 2.984375 L 29,38.921875 Z"
       inkscape:connector-curvature="0" />
    <path
       id="DejaVuSans-38"
       d="m 31.78125,34.625 q -7.03125,0 -11.0625,-3.765625 -4.015625,-3.765625 -4.015625,-10.34375 0,-6.59375 4.015625,-10.359375 4.03125,-3.765625 11.0625,-3.765625 7.03125,0 11.078125,3.78125 4.0625,3.796875 4.0625,10.34375 0,6.578125 -4.03125,10.34375 Q 38.875,34.625 31.78125,34.625 Z m -9.859375,4.1875 Q 15.578125,40.375 12.03125,44.71875 8.5,49.078125 8.5,55.328125 q 0,8.734375 6.21875,13.8125 6.234375,5.078125 17.0625,5.078125 10.890625,0 17.09375,-5.078125 6.203125,-5.078125 6.203125,-13.8125 0,-6.25 -3.546875,-10.609375 Q 48,40.375 41.703125,38.8125 q 7.125,-1.65625 11.09375,-6.5 3.984375,-4.828125 3.984375,-11.796875 0,-10.609375 -6.46875,-16.28125 -6.46875,-5.65625 -18.53125,-5.65625 -12.046875,0 -18.53125,5.65625 -6.46875,5.671875 -6.46875,16.28125 0,6.96875 4,11.796875 4.015625,4.84375 11.140625,6.5 z M 18.3125,54.390625 q 0,-5.65625 3.53125,-8.828125 3.546875,-3.171875 9.9375,-3.171875 6.359375,0 9.9375,3.171875 3.59375,3.171875 3.59375,8.828125 0,5.671875 -3.59375,8.84375 -3.578125,3.171875 -9.9375,3.171875 -6.390625,0 -9.9375,-3.171875 Q 18.3125,60.0625 18.3125,54.390625 Z"
       inkscape:connector-curvature="0" />
    <path
       id="DejaVuSans-34"
       d="M 37.796875,64.3125 12.890625,25.390625 h 24.90625 z m -2.59375,8.59375 h 12.40625 V 25.390625 h 10.40625 V 17.1875 H 47.609375 V 0 h -9.8125 V 17.1875 H 4.890625 v 9.515625 z"
       inkscape:connector-curvature="0" />
    <path
       id="DejaVuSans-36"
       d="m 33.015625,40.375 q -6.640625,0 -10.53125,-4.546875 -3.875,-4.53125 -3.875,-12.4375 0,-7.859375 3.875,-12.4375 3.890625,-4.5625 10.53125,-4.5625 6.640625,0 10.515625,4.5625 3.875,4.578125 3.875,12.4375 0,7.90625 -3.875,12.4375 Q 39.65625,40.375 33.015625,40.375 Z M 52.59375,71.296875 V 62.3125 q -3.71875,1.75 -7.5,2.671875 -3.78125,0.9375 -7.5,0.9375 -9.765625,0 -14.921875,-6.59375 -5.140625,-6.59375 -5.875,-19.921875 2.875,4.25 7.21875,6.515625 4.359375,2.265625 9.578125,2.265625 10.984375,0 17.359375,-6.671875 6.375,-6.65625 6.375,-18.125 0,-11.234375 -6.640625,-18.03125 -6.640625,-6.78125 -17.671875,-6.78125 -12.65625,0 -19.34375,9.6875 -6.6875,9.703125 -6.6875,28.109375 0,17.28125 8.203125,27.5625 8.203125,10.28125 22.015625,10.28125 3.71875,0 7.5,-0.734375 3.78125,-0.734375 7.890625,-2.1875 z"
       inkscape:connector-curvature="0" />
    <path
       id="DejaVuSans-4a"
       d="m 9.8125,72.90625 h 9.859375 V 5.078125 q 0,-13.1875 -5,-19.140625 -5,-5.953125 -16.09375,-5.953125 h -3.75 v 8.296875 h 3.078125 q 6.53125,0 9.21875,3.671875 2.6875,3.65625 2.6875,13.125 z"
       inkscape:connector-curvature="0" />
    <path
       id="DejaVuSans-73"
       d="m 44.28125,53.078125 v -8.5 Q 40.484375,46.53125 36.375,47.5 q -4.09375,0.984375 -8.5,0.984375 -6.6875,0 -10.03125,-2.046875 Q 14.5,44.390625 14.5,40.28125 q 0,-3.125 2.390625,-4.90625 2.390625,-1.78125 9.625,-3.390625 l 3.078125,-0.6875 Q 39.15625,29.25 43.1875,25.515625 47.21875,21.78125 47.21875,15.09375 q 0,-7.625 -6.03125,-12.078125 -6.03125,-4.4375 -16.578125,-4.4375 -4.390625,0 -9.15625,0.859375 Q 10.6875,0.296875 5.421875,2 v 9.28125 q 4.984375,-2.59375 9.8125,-3.890625 4.828125,-1.28125 9.578125,-1.28125 6.34375,0 9.75,2.171875 3.421875,2.171875 3.421875,6.125 0,3.65625 -2.46875,5.609375 -2.453125,1.953125 -10.8125,3.765625 l -3.125,0.734375 q -8.34375,1.75 -12.0625,5.390625 -3.703125,3.640625 -3.703125,9.984375 0,7.71875 5.46875,11.90625 Q 16.75,56 26.8125,56 q 4.96875,0 9.359375,-0.734375 4.40625,-0.71875 8.109375,-2.1875 z"
       inkscape:connector-curvature="0" />
    <path
       id="DejaVuSans-6e"
       d="M 54.890625,33.015625 V 0 H 45.90625 v 32.71875 q 0,7.765625 -3.03125,11.609375 -3.03125,3.859375 -9.078125,3.859375 -7.28125,0 -11.484375,-4.640625 -4.203125,-4.625 -4.203125,-12.640625 V 0 h -9.03125 v 54.6875 h 9.03125 v -8.5 q 3.234375,4.9375 7.59375,7.375 4.375,2.4375 10.09375,2.4375 9.421875,0 14.25,-5.828125 4.84375,-5.828125 4.84375,-17.15625 z"
       inkscape:connector-curvature="0" />
    <clipPath
       id="p5e86a32d48-5">
      <rect
         id="rect1921-6"
         y="50.639999"
         x="111.03"
         width="579.42499"
         height="291.29999" />
    </clipPath>
    <clipPath
       id="clipPath6194-3">
      <rect
         id="rect6192-0"
         y="50.639999"
         x="111.03"
         width="579.42499"
         height="291.29999" />
    </clipPath>
    <clipPath
       id="clipPath6198-6">
      <rect
         id="rect6196-2"
         y="50.639999"
         x="111.03"
         width="579.42499"
         height="291.29999" />
    </clipPath>
    <clipPath
       id="clipPath6202-2">
      <rect
         id="rect6200-8"
         y="50.639999"
         x="111.03"
         width="579.42499"
         height="291.29999" />
    </clipPath>
    <clipPath
       id="clipPath6206-0">
      <rect
         id="rect6204-2"
         y="50.639999"
         x="111.03"
         width="579.42499"
         height="291.29999" />
    </clipPath>
    <clipPath
       id="clipPath6210-1">
      <rect
         id="rect6208-6"
         y="50.639999"
         x="111.03"
         width="579.42499"
         height="291.29999" />
    </clipPath>
    <clipPath
       id="clipPath6214-2">
      <rect
         id="rect6212-5"
         y="50.639999"
         x="111.03"
         width="579.42499"
         height="291.29999" />
    </clipPath>
    <clipPath
       id="clipPath6218-0">
      <rect
         id="rect6216-0"
         y="50.639999"
         x="111.03"
         width="579.42499"
         height="291.29999" />
    </clipPath>
    <clipPath
       id="clipPath6222-2">
      <rect
         id="rect6220-8"
         y="50.639999"
         x="111.03"
         width="579.42499"
         height="291.29999" />
    </clipPath>
    <clipPath
       id="clipPath6226-5">
      <rect
         id="rect6224-9"
         y="50.639999"
         x="111.03"
         width="579.42499"
         height="291.29999" />
    </clipPath>
    <clipPath
       id="clipPath6230-4">
      <rect
         id="rect6228-0"
         y="50.639999"
         x="111.03"
         width="579.42499"
         height="291.29999" />
    </clipPath>
    <clipPath
       id="clipPath6234-0">
      <rect
         id="rect6232-5"
         y="50.639999"
         x="111.03"
         width="579.42499"
         height="291.29999" />
    </clipPath>
    <clipPath
       id="clipPath6238-9">
      <rect
         id="rect6236-4"
         y="50.639999"
         x="111.03"
         width="579.42499"
         height="291.29999" />
    </clipPath>
    <clipPath
       id="clipPath6242-5">
      <rect
         id="rect6240-3"
         y="50.639999"
         x="111.03"
         width="579.42499"
         height="291.29999" />
    </clipPath>
    <clipPath
       id="p94ea90e9ab-1">
      <rect
         id="rect1924-9"
         y="50.639999"
         x="768.41498"
         width="579.42499"
         height="291.29999" />
    </clipPath>
    <clipPath
       id="clipPath6248-8">
      <rect
         id="rect6246-5"
         y="50.639999"
         x="768.41498"
         width="579.42499"
         height="291.29999" />
    </clipPath>
    <clipPath
       id="clipPath6252-2">
      <rect
         id="rect6250-2"
         y="50.639999"
         x="768.41498"
         width="579.42499"
         height="291.29999" />
    </clipPath>
    <clipPath
       id="clipPath6256-1">
      <rect
         id="rect6254-2"
         y="50.639999"
         x="768.41498"
         width="579.42499"
         height="291.29999" />
    </clipPath>
    <clipPath
       id="clipPath6260-9">
      <rect
         id="rect6258-5"
         y="50.639999"
         x="768.41498"
         width="579.42499"
         height="291.29999" />
    </clipPath>
    <clipPath
       id="clipPath6264-7">
      <rect
         id="rect6262-2"
         y="50.639999"
         x="768.41498"
         width="579.42499"
         height="291.29999" />
    </clipPath>
    <clipPath
       id="clipPath6268-7">
      <rect
         id="rect6266-7"
         y="50.639999"
         x="768.41498"
         width="579.42499"
         height="291.29999" />
    </clipPath>
    <clipPath
       id="clipPath6272-9">
      <rect
         id="rect6270-2"
         y="50.639999"
         x="768.41498"
         width="579.42499"
         height="291.29999" />
    </clipPath>
    <clipPath
       id="clipPath6276-9">
      <rect
         id="rect6274-1"
         y="50.639999"
         x="768.41498"
         width="579.42499"
         height="291.29999" />
    </clipPath>
    <clipPath
       id="clipPath6280-1">
      <rect
         id="rect6278-4"
         y="50.639999"
         x="768.41498"
         width="579.42499"
         height="291.29999" />
    </clipPath>
    <clipPath
       id="clipPath6284-8">
      <rect
         id="rect6282-0"
         y="50.639999"
         x="768.41498"
         width="579.42499"
         height="291.29999" />
    </clipPath>
    <clipPath
       id="clipPath6288-5">
      <rect
         id="rect6286-8"
         y="50.639999"
         x="768.41498"
         width="579.42499"
         height="291.29999" />
    </clipPath>
    <clipPath
       id="clipPath6292-0">
      <rect
         id="rect6290-5"
         y="50.639999"
         x="768.41498"
         width="579.42499"
         height="291.29999" />
    </clipPath>
    <clipPath
       id="clipPath6296-5">
      <rect
         id="rect6294-1"
         y="50.639999"
         x="768.41498"
         width="579.42499"
         height="291.29999" />
    </clipPath>
    <path
       id="DejaVuSans-52-6"
       d="m 44.390625,34.1875 q 3.171875,-1.078125 6.171875,-4.59375 3,-3.515625 6.03125,-9.671875 L 66.609375,0 H 56 l -9.3125,18.703125 q -3.625,7.328125 -7.015625,9.71875 -3.390625,2.390625 -9.25,2.390625 h -10.75 V 0 H 9.8125 v 72.90625 h 22.265625 q 12.5,0 18.65625,-5.234375 6.15625,-5.21875 6.15625,-15.765625 0,-6.890625 -3.203125,-11.4375 -3.203125,-4.53125 -9.296875,-6.28125 z m -24.71875,30.609375 v -25.875 h 12.40625 q 7.125,0 10.765625,3.296875 3.640625,3.296875 3.640625,9.6875 0,6.390625 -3.640625,9.640625 -3.640625,3.25 -10.765625,3.25 z"
       inkscape:connector-curvature="0" />
    <path
       id="DejaVuSans-47-4"
       d="M 59.515625,10.40625 V 29.984375 H 43.40625 v 8.109375 h 25.875 V 6.78125 Q 63.578125,2.734375 56.6875,0.65625 49.8125,-1.421875 42,-1.421875 q -17.09375,0 -26.75,9.984375 -9.640625,10 -9.640625,27.8125 0,17.875 9.640625,27.859375 9.65625,9.984375 26.75,9.984375 7.125,0 13.546875,-1.765625 6.421875,-1.75 11.84375,-5.171875 v -10.5 q -5.46875,4.640625 -11.625,6.984375 -6.15625,2.34375 -12.9375,2.34375 -13.390625,0 -20.109375,-7.46875 -6.703125,-7.46875 -6.703125,-22.265625 0,-14.75 6.703125,-22.21875 6.71875,-7.46875 20.109375,-7.46875 5.21875,0 9.3125,0.90625 4.109375,0.90625 7.375,2.8125 z"
       inkscape:connector-curvature="0" />
    <path
       id="DejaVuSans-42-5"
       d="M 19.671875,34.8125 V 8.109375 H 35.5 q 7.953125,0 11.78125,3.296875 3.84375,3.296875 3.84375,10.078125 0,6.84375 -3.84375,10.078125 -3.828125,3.25 -11.78125,3.25 z m 0,29.984375 V 42.828125 H 34.28125 q 7.21875,0 10.75,2.703125 3.546875,2.71875 3.546875,8.28125 0,5.515625 -3.546875,8.25 -3.53125,2.734375 -10.75,2.734375 z M 9.8125,72.90625 h 25.203125 q 11.28125,0 17.375,-4.6875 Q 58.5,63.53125 58.5,54.890625 58.5,48.1875 55.375,44.234375 52.25,40.28125 46.1875,39.3125 53.46875,37.75 57.5,32.78125 q 4.03125,-4.953125 4.03125,-12.375 0,-9.765625 -6.640625,-15.09375 Q 48.25,0 35.984375,0 H 9.8125 Z"
       inkscape:connector-curvature="0" />
    <path
       id="DejaVuSans-44-6"
       d="M 19.671875,64.796875 V 8.109375 H 31.59375 q 15.09375,0 22.09375,6.828125 7,6.84375 7,21.59375 0,14.640625 -7,21.453125 -7,6.8125 -22.09375,6.8125 z M 9.8125,72.90625 h 20.265625 q 21.1875,0 31.09375,-8.8125 9.921875,-8.8125 9.921875,-27.5625 0,-18.859375 -9.96875,-27.703125 Q 51.171875,0 30.078125,0 H 9.8125 Z"
       inkscape:connector-curvature="0" />
    <path
       id="DejaVuSans-20-1"
       d=""
       inkscape:connector-curvature="0" />
    <path
       id="DejaVuSans-45-4"
       d="m 9.8125,72.90625 h 46.09375 v -8.3125 H 19.671875 V 43.015625 h 34.71875 V 34.71875 H 19.671875 V 8.296875 H 56.78125 V 0 H 9.8125 Z"
       inkscape:connector-curvature="0" />
    <path
       id="DejaVuSans-61-8"
       d="m 34.28125,27.484375 q -10.890625,0 -15.09375,-2.484375 -4.203125,-2.484375 -4.203125,-8.5 0,-4.78125 3.15625,-7.59375 3.15625,-2.796875 8.5625,-2.796875 7.484375,0 12,5.296875 4.515625,5.296875 4.515625,14.078125 v 2 z m 17.921875,3.71875 V 0 H 43.21875 v 8.296875 q -3.078125,-4.96875 -7.671875,-7.34375 -4.59375,-2.375 -11.234375,-2.375 -8.390625,0 -13.359375,4.71875 Q 6,8.015625 6,15.921875 q 0,9.21875 6.171875,13.90625 6.1875,4.6875 18.4375,4.6875 H 43.21875 v 0.890625 q 0,6.203125 -4.078125,9.59375 -4.078125,3.390625 -11.453125,3.390625 -4.6875,0 -9.140625,-1.125 -4.4375,-1.125 -8.53125,-3.375 v 8.3125 q 4.921875,1.90625 9.5625,2.84375 Q 24.21875,56 28.609375,56 q 11.875,0 17.734375,-6.15625 5.859375,-6.140625 5.859375,-18.640625 z"
       inkscape:connector-curvature="0" />
    <path
       id="DejaVuSans-72-5"
       d="m 41.109375,46.296875 q -1.515625,0.875 -3.296875,1.28125 Q 36.03125,48 33.890625,48 26.265625,48 22.1875,43.046875 18.109375,38.09375 18.109375,28.8125 V 0 h -9.03125 v 54.6875 h 9.03125 v -8.5 q 2.84375,4.984375 7.375,7.390625 Q 30.03125,56 36.53125,56 q 0.921875,0 2.046875,-0.125 1.125,-0.109375 2.484375,-0.359375 z"
       inkscape:connector-curvature="0" />
    <path
       id="DejaVuSans-6c-7"
       d="M 9.421875,75.984375 H 18.40625 V 0 H 9.421875 Z"
       inkscape:connector-curvature="0" />
    <path
       id="DejaVuSans-79-0"
       d="M 32.171875,-5.078125 Q 28.375,-14.84375 24.75,-17.8125 q -3.609375,-2.984375 -9.65625,-2.984375 h -7.1875 v 7.515625 h 5.28125 q 3.703125,0 5.75,1.765625 2.0625,1.75 4.546875,8.296875 L 25.09375,0.875 2.984375,54.6875 H 12.5 L 29.59375,11.921875 46.6875,54.6875 h 9.515625 z"
       inkscape:connector-curvature="0" />
    <path
       id="DejaVuSans-4d-5"
       d="M 9.8125,72.90625 H 24.515625 L 43.109375,23.296875 61.8125,72.90625 H 76.515625 V 0 h -9.625 v 64.015625 l -18.796875,-50 H 38.1875 l -18.796875,50 V 0 H 9.8125 Z"
       inkscape:connector-curvature="0" />
    <path
       id="DejaVuSans-69-1"
       d="M 9.421875,54.6875 H 18.40625 V 0 H 9.421875 Z m 0,21.296875 H 18.40625 V 64.59375 H 9.421875 Z"
       inkscape:connector-curvature="0" />
    <path
       id="DejaVuSans-64-6"
       d="m 45.40625,46.390625 v 29.59375 h 8.984375 V 0 H 45.40625 v 8.203125 q -2.828125,-4.875 -7.15625,-7.25 -4.3125,-2.375 -10.375,-2.375 -9.90625,0 -16.140625,7.90625 -6.21875,7.921875 -6.21875,20.8125 0,12.890625 6.21875,20.796875 Q 17.96875,56 27.875,56 q 6.0625,0 10.375,-2.375 4.328125,-2.359375 7.15625,-7.234375 z M 14.796875,27.296875 q 0,-9.90625 4.078125,-15.546875 4.078125,-5.640625 11.203125,-5.640625 7.125,0 11.21875,5.640625 4.109375,5.640625 4.109375,15.546875 0,9.90625 -4.109375,15.546875 -4.09375,5.640625 -11.21875,5.640625 -7.125,0 -11.203125,-5.640625 -4.078125,-5.640625 -4.078125,-15.546875 z"
       inkscape:connector-curvature="0" />
    <path
       id="DejaVuSans-4c-0"
       d="m 9.8125,72.90625 h 9.859375 V 8.296875 h 35.5 V 0 H 9.8125 Z"
       inkscape:connector-curvature="0" />
    <path
       id="DejaVuSans-74-2"
       d="M 18.3125,70.21875 V 54.6875 h 18.5 v -6.984375 h -18.5 v -29.6875 q 0,-6.6875 1.828125,-8.59375 1.828125,-1.90625 7.453125,-1.90625 H 36.8125 V 0 H 27.59375 Q 17.1875,0 13.234375,3.875 9.28125,7.765625 9.28125,18.015625 v 29.6875 H 2.6875 V 54.6875 h 6.59375 v 15.53125 z"
       inkscape:connector-curvature="0" />
    <path
       id="DejaVuSans-65-8"
       d="m 56.203125,29.59375 v -4.390625 h -41.3125 q 0.59375,-9.28125 5.59375,-14.140625 5,-4.859375 13.9375,-4.859375 5.171875,0 10.03125,1.265625 4.859375,1.265625 9.65625,3.8125 v -8.5 q -4.84375,-2.046875 -9.921875,-3.125 -5.078125,-1.078125 -10.296875,-1.078125 -13.09375,0 -20.734375,7.609375 -7.640625,7.625 -7.640625,20.625 0,13.421875 7.25,21.296875 Q 20.015625,56 32.328125,56 q 11.03125,0 17.453125,-7.109375 6.421875,-7.09375 6.421875,-19.296875 z m -8.984375,2.640625 q -0.09375,7.359375 -4.125,11.75 -4.03125,4.40625 -10.671875,4.40625 -7.515625,0 -12.03125,-4.25 -4.515625,-4.25 -5.203125,-11.96875 z"
       inkscape:connector-curvature="0" />
    <path
       id="DejaVuSans-6f-9"
       d="m 30.609375,48.390625 q -7.21875,0 -11.421875,-5.640625 -4.203125,-5.640625 -4.203125,-15.453125 0,-9.8125 4.171875,-15.453125 4.1875,-5.640625 11.453125,-5.640625 7.1875,0 11.375,5.65625 4.203125,5.671875 4.203125,15.4375 0,9.71875 -4.203125,15.40625 -4.1875,5.6875 -11.375,5.6875 z m 0,7.609375 q 11.71875,0 18.40625,-7.625 6.703125,-7.609375 6.703125,-21.078125 0,-13.421875 -6.703125,-21.078125 -6.6875,-7.640625 -18.40625,-7.640625 -11.765625,0 -18.4375,7.640625 -6.65625,7.65625 -6.65625,21.078125 0,13.46875 6.65625,21.078125 Q 18.84375,56 30.609375,56 Z"
       inkscape:connector-curvature="0" />
    <path
       id="DejaVuSans-30-9"
       d="m 31.78125,66.40625 q -7.609375,0 -11.453125,-7.5 Q 16.5,51.421875 16.5,36.375 q 0,-14.984375 3.828125,-22.484375 3.84375,-7.5 11.453125,-7.5 7.671875,0 11.5,7.5 3.84375,7.5 3.84375,22.484375 0,15.046875 -3.84375,22.53125 -3.828125,7.5 -11.5,7.5 z m 0,7.8125 q 12.265625,0 18.734375,-9.703125 6.46875,-9.6875 6.46875,-28.140625 0,-18.40625 -6.46875,-28.109375 -6.46875,-9.6875 -18.734375,-9.6875 -12.25,0 -18.71875,9.6875 Q 6.59375,17.96875 6.59375,36.375 q 0,18.453125 6.46875,28.140625 6.46875,9.703125 18.71875,9.703125 z"
       inkscape:connector-curvature="0" />
    <path
       id="DejaVuSans-32-9"
       d="M 19.1875,8.296875 H 53.609375 V 0 H 7.328125 v 8.296875 q 5.609375,5.8125 15.296875,15.59375 9.703125,9.796875 12.1875,12.640625 4.734375,5.3125 6.609375,9 1.890625,3.6875 1.890625,7.25 0,5.8125 -4.078125,9.46875 -4.078125,3.671875 -10.625,3.671875 -4.640625,0 -9.796875,-1.609375 -5.140625,-1.609375 -11,-4.890625 v 9.96875 Q 13.765625,71.78125 18.9375,73 q 5.1875,1.21875 9.484375,1.21875 11.328125,0 18.0625,-5.671875 6.734375,-5.65625 6.734375,-15.125 0,-4.5 -1.6875,-8.53125 Q 49.859375,40.875 45.40625,35.40625 44.1875,33.984375 37.640625,27.21875 31.109375,20.453125 19.1875,8.296875 Z"
       inkscape:connector-curvature="0" />
    <path
       id="DejaVuSans-35-8"
       d="m 10.796875,72.90625 h 38.71875 v -8.3125 h -29.6875 V 46.734375 q 2.140625,0.734375 4.28125,1.09375 2.15625,0.359375 4.3125,0.359375 Q 40.625,48.1875 47.75,41.5 54.890625,34.8125 54.890625,23.390625 54.890625,11.625 47.5625,5.09375 40.234375,-1.421875 26.90625,-1.421875 q -4.59375,0 -9.359375,0.78125 -4.75,0.78125 -9.828125,2.34375 V 11.625 q 4.390625,-2.390625 9.078125,-3.5625 4.6875,-1.171875 9.90625,-1.171875 8.453125,0 13.375,4.4375 4.9375,4.4375 4.9375,12.0625 0,7.609375 -4.9375,12.046875 -4.921875,4.453125 -13.375,4.453125 -3.953125,0 -7.890625,-0.875 -3.921875,-0.875 -8.015625,-2.734375 z"
       inkscape:connector-curvature="0" />
    <path
       id="DejaVuSans-37-1"
       d="m 8.203125,72.90625 h 46.875 V 68.703125 L 28.609375,0 H 18.3125 L 43.21875,64.59375 H 8.203125 Z"
       inkscape:connector-curvature="0" />
    <path
       id="DejaVuSans-31-5"
       d="m 12.40625,8.296875 h 16.109375 v 55.625 L 10.984375,60.40625 v 8.984375 l 17.4375,3.515625 H 38.28125 V 8.296875 H 54.390625 V 0 H 12.40625 Z"
       inkscape:connector-curvature="0" />
    <path
       id="DejaVuSans-53-7"
       d="m 53.515625,70.515625 v -9.625 q -5.609375,2.6875 -10.59375,4 -4.984375,1.328125 -9.625,1.328125 -8.046875,0 -12.421875,-3.125 -4.375,-3.125 -4.375,-8.890625 0,-4.84375 2.90625,-7.3125 2.90625,-2.453125 11.015625,-3.96875 L 36.375,41.703125 Q 47.40625,39.59375 52.65625,34.296875 57.90625,29 57.90625,20.125 q 0,-10.609375 -7.109375,-16.078125 -7.09375,-5.46875 -20.8125,-5.46875 -5.171875,0 -11.015625,1.171875 Q 13.140625,0.921875 6.890625,3.21875 V 13.375 q 6,-3.359375 11.765625,-5.078125 5.765625,-1.703125 11.328125,-1.703125 8.4375,0 13.03125,3.3125 4.59375,3.328125 4.59375,9.484375 0,5.359375 -3.296875,8.390625 Q 41.015625,30.8125 33.5,32.328125 L 27.484375,33.5 q -11.03125,2.1875 -15.96875,6.875 -4.921875,4.6875 -4.921875,13.046875 0,9.671875 6.8125,15.234375 6.8125,5.5625 18.765625,5.5625 5.140625,0 10.453125,-0.9375 5.328125,-0.921875 10.890625,-2.765625 z"
       inkscape:connector-curvature="0" />
    <path
       id="DejaVuSans-70-7"
       d="m 18.109375,8.203125 v -29 H 9.078125 V 54.6875 h 9.03125 v -8.296875 q 2.84375,4.875 7.15625,7.234375 Q 29.59375,56 35.59375,56 q 9.96875,0 16.1875,-7.90625 6.234375,-7.90625 6.234375,-20.796875 0,-12.890625 -6.234375,-20.8125 -6.21875,-7.90625 -16.1875,-7.90625 -6,0 -10.328125,2.375 -4.3125,2.375 -7.15625,7.25 z M 48.6875,27.296875 q 0,9.90625 -4.078125,15.546875 -4.078125,5.640625 -11.203125,5.640625 -7.140625,0 -11.21875,-5.640625 -4.078125,-5.640625 -4.078125,-15.546875 0,-9.90625 4.078125,-15.546875 4.078125,-5.640625 11.21875,-5.640625 7.125,0 11.203125,5.640625 4.078125,5.640625 4.078125,15.546875 z"
       inkscape:connector-curvature="0" />
    <path
       id="DejaVuSans-28-2"
       d="M 31,75.875 Q 24.46875,64.65625 21.28125,53.65625 18.109375,42.671875 18.109375,31.390625 18.109375,20.125 21.3125,9.0625 24.515625,-2 31,-13.1875 H 23.1875 Q 15.875,-1.703125 12.234375,9.375 8.59375,20.453125 8.59375,31.390625 q 0,10.890625 3.609375,21.921875 3.625,11.046875 10.984375,22.5625 z"
       inkscape:connector-curvature="0" />
    <path
       id="DejaVuSans-46-0"
       d="m 9.8125,72.90625 h 41.890625 v -8.3125 H 19.671875 V 43.109375 h 28.90625 V 34.8125 H 19.671875 V 0 H 9.8125 Z"
       inkscape:connector-curvature="0" />
    <path
       id="DejaVuSans-50-0"
       d="M 19.671875,64.796875 V 37.40625 h 12.40625 q 6.890625,0 10.640625,3.5625 3.765625,3.5625 3.765625,10.15625 0,6.546875 -3.765625,10.109375 -3.75,3.5625 -10.640625,3.5625 z M 9.8125,72.90625 h 22.265625 q 12.265625,0 18.53125,-5.546875 6.28125,-5.546875 6.28125,-16.234375 0,-10.796875 -6.28125,-16.3125 -6.265625,-5.515625 -18.53125,-5.515625 H 19.671875 V 0 H 9.8125 Z"
       inkscape:connector-curvature="0" />
    <path
       id="DejaVuSans-29-3"
       d="m 8.015625,75.875 h 7.8125 q 7.3125,-11.515625 10.953125,-22.5625 3.640625,-11.03125 3.640625,-21.921875 0,-10.9375 -3.640625,-22.015625 -3.640625,-11.078125 -10.953125,-22.5625 h -7.8125 Q 14.5,-2 17.703125,9.0625 20.90625,20.125 20.90625,31.390625 q 0,11.28125 -3.203125,22.265625 -3.203125,11 -9.6875,22.21875 z"
       inkscape:connector-curvature="0" />
    <path
       id="DejaVuSans-55-0"
       d="m 8.6875,72.90625 h 9.921875 V 28.609375 q 0,-11.71875 4.234375,-16.875 4.25,-5.140625 13.78125,-5.140625 9.46875,0 13.71875,5.140625 4.25,5.15625 4.25,16.875 V 72.90625 H 64.5 V 27.390625 q 0,-14.25 -7.0625,-21.53125 -7.046875,-7.28125 -20.8125,-7.28125 -13.828125,0 -20.890625,7.28125 Q 8.6875,13.140625 8.6875,27.390625 Z"
       inkscape:connector-curvature="0" />
    <path
       id="DejaVuSans-3d-5"
       d="M 10.59375,45.40625 H 73.1875 V 37.203125 H 10.59375 Z m 0,-19.921875 H 73.1875 V 17.1875 H 10.59375 Z"
       inkscape:connector-curvature="0" />
    <path
       id="DejaVuSans-54-9"
       d="M -0.296875,72.90625 H 61.375 v -8.3125 H 35.5 V 0 H 25.59375 V 64.59375 H -0.296875 Z"
       inkscape:connector-curvature="0" />
    <path
       id="DejaVuSans-58-5"
       d="m 6.296875,72.90625 h 10.59375 L 35.015625,45.796875 53.21875,72.90625 H 63.8125 L 40.375,37.890625 65.375,0 H 54.78125 l -20.5,31 L 13.625,0 H 2.984375 L 29,38.921875 Z"
       inkscape:connector-curvature="0" />
    <path
       id="DejaVuSans-38-5"
       d="m 31.78125,34.625 q -7.03125,0 -11.0625,-3.765625 -4.015625,-3.765625 -4.015625,-10.34375 0,-6.59375 4.015625,-10.359375 4.03125,-3.765625 11.0625,-3.765625 7.03125,0 11.078125,3.78125 4.0625,3.796875 4.0625,10.34375 0,6.578125 -4.03125,10.34375 Q 38.875,34.625 31.78125,34.625 Z m -9.859375,4.1875 Q 15.578125,40.375 12.03125,44.71875 8.5,49.078125 8.5,55.328125 q 0,8.734375 6.21875,13.8125 6.234375,5.078125 17.0625,5.078125 10.890625,0 17.09375,-5.078125 6.203125,-5.078125 6.203125,-13.8125 0,-6.25 -3.546875,-10.609375 Q 48,40.375 41.703125,38.8125 q 7.125,-1.65625 11.09375,-6.5 3.984375,-4.828125 3.984375,-11.796875 0,-10.609375 -6.46875,-16.28125 -6.46875,-5.65625 -18.53125,-5.65625 -12.046875,0 -18.53125,5.65625 -6.46875,5.671875 -6.46875,16.28125 0,6.96875 4,11.796875 4.015625,4.84375 11.140625,6.5 z M 18.3125,54.390625 q 0,-5.65625 3.53125,-8.828125 3.546875,-3.171875 9.9375,-3.171875 6.359375,0 9.9375,3.171875 3.59375,3.171875 3.59375,8.828125 0,5.671875 -3.59375,8.84375 -3.578125,3.171875 -9.9375,3.171875 -6.390625,0 -9.9375,-3.171875 Q 18.3125,60.0625 18.3125,54.390625 Z"
       inkscape:connector-curvature="0" />
    <path
       id="DejaVuSans-34-5"
       d="M 37.796875,64.3125 12.890625,25.390625 h 24.90625 z m -2.59375,8.59375 h 12.40625 V 25.390625 h 10.40625 V 17.1875 H 47.609375 V 0 h -9.8125 V 17.1875 H 4.890625 v 9.515625 z"
       inkscape:connector-curvature="0" />
    <path
       id="DejaVuSans-36-3"
       d="m 33.015625,40.375 q -6.640625,0 -10.53125,-4.546875 -3.875,-4.53125 -3.875,-12.4375 0,-7.859375 3.875,-12.4375 3.890625,-4.5625 10.53125,-4.5625 6.640625,0 10.515625,4.5625 3.875,4.578125 3.875,12.4375 0,7.90625 -3.875,12.4375 Q 39.65625,40.375 33.015625,40.375 Z M 52.59375,71.296875 V 62.3125 q -3.71875,1.75 -7.5,2.671875 -3.78125,0.9375 -7.5,0.9375 -9.765625,0 -14.921875,-6.59375 -5.140625,-6.59375 -5.875,-19.921875 2.875,4.25 7.21875,6.515625 4.359375,2.265625 9.578125,2.265625 10.984375,0 17.359375,-6.671875 6.375,-6.65625 6.375,-18.125 0,-11.234375 -6.640625,-18.03125 -6.640625,-6.78125 -17.671875,-6.78125 -12.65625,0 -19.34375,9.6875 -6.6875,9.703125 -6.6875,28.109375 0,17.28125 8.203125,27.5625 8.203125,10.28125 22.015625,10.28125 3.71875,0 7.5,-0.734375 3.78125,-0.734375 7.890625,-2.1875 z"
       inkscape:connector-curvature="0" />
    <path
       id="DejaVuSans-4a-3"
       d="m 9.8125,72.90625 h 9.859375 V 5.078125 q 0,-13.1875 -5,-19.140625 -5,-5.953125 -16.09375,-5.953125 h -3.75 v 8.296875 h 3.078125 q 6.53125,0 9.21875,3.671875 2.6875,3.65625 2.6875,13.125 z"
       inkscape:connector-curvature="0" />
    <path
       id="DejaVuSans-73-9"
       d="m 44.28125,53.078125 v -8.5 Q 40.484375,46.53125 36.375,47.5 q -4.09375,0.984375 -8.5,0.984375 -6.6875,0 -10.03125,-2.046875 Q 14.5,44.390625 14.5,40.28125 q 0,-3.125 2.390625,-4.90625 2.390625,-1.78125 9.625,-3.390625 l 3.078125,-0.6875 Q 39.15625,29.25 43.1875,25.515625 47.21875,21.78125 47.21875,15.09375 q 0,-7.625 -6.03125,-12.078125 -6.03125,-4.4375 -16.578125,-4.4375 -4.390625,0 -9.15625,0.859375 Q 10.6875,0.296875 5.421875,2 v 9.28125 q 4.984375,-2.59375 9.8125,-3.890625 4.828125,-1.28125 9.578125,-1.28125 6.34375,0 9.75,2.171875 3.421875,2.171875 3.421875,6.125 0,3.65625 -2.46875,5.609375 -2.453125,1.953125 -10.8125,3.765625 l -3.125,0.734375 q -8.34375,1.75 -12.0625,5.390625 -3.703125,3.640625 -3.703125,9.984375 0,7.71875 5.46875,11.90625 Q 16.75,56 26.8125,56 q 4.96875,0 9.359375,-0.734375 4.40625,-0.71875 8.109375,-2.1875 z"
       inkscape:connector-curvature="0" />
    <path
       id="DejaVuSans-6e-8"
       d="M 54.890625,33.015625 V 0 H 45.90625 v 32.71875 q 0,7.765625 -3.03125,11.609375 -3.03125,3.859375 -9.078125,3.859375 -7.28125,0 -11.484375,-4.640625 -4.203125,-4.625 -4.203125,-12.640625 V 0 h -9.03125 v 54.6875 h 9.03125 v -8.5 q 3.234375,4.9375 7.59375,7.375 4.375,2.4375 10.09375,2.4375 9.421875,0 14.25,-5.828125 4.84375,-5.828125 4.84375,-17.15625 z"
       inkscape:connector-curvature="0" />
  </defs>
  <sodipodi:namedview
     lock-margins="true"
     inkscape:document-rotation="0"
     showguides="false"
     units="px"
     fit-margin-bottom="5"
     fit-margin-right="5"
     fit-margin-left="5"
     fit-margin-top="5"
     inkscape:snap-intersection-paths="true"
     inkscape:snap-global="true"
     inkscape:window-maximized="1"
     inkscape:window-y="0"
     inkscape:window-x="0"
     inkscape:window-height="1050"
     inkscape:window-width="1920"
     inkscape:measure-end="50,873.304"
     inkscape:measure-start="25.8929,873.304"
     showgrid="false"
     inkscape:current-layer="layer1"
     inkscape:document-units="mm"
     inkscape:cy="-230.90994"
     inkscape:cx="686.5425"
     inkscape:zoom="0.32028092"
     inkscape:pageshadow="2"
     inkscape:pageopacity="0.0"
     borderopacity="1.0"
     bordercolor="#666666"
     pagecolor="#ffffff"
     id="base"
     inkscape:snap-bbox="true"
     inkscape:bbox-paths="true"
     inkscape:snap-bbox-edge-midpoints="true"
     inkscape:snap-object-midpoints="true"
     inkscape:guide-bbox="true">
    <sodipodi:guide
       position="194.91053,77.84444"
       orientation="0,-1"
       id="guide1506" />
    <sodipodi:guide
       position="194.91053,46.094426"
       orientation="0,-1"
       id="guide1508" />
    <sodipodi:guide
       position="401.20959,93.719452"
       orientation="1,0"
       id="guide1510" />
    <sodipodi:guide
       position="68.362185,61.969433"
       orientation="1,0"
       id="guide1512" />
    <sodipodi:guide
       position="387.97905,93.719452"
       orientation="1,0"
       id="guide1514" />
    <sodipodi:guide
       position="81.592725,61.969433"
       orientation="1,0"
       id="guide1516" />
    <inkscape:grid
       originy="-115.73359"
       originx="-2.2205214e-06"
       type="xygrid"
       id="grid1552" />
  </sodipodi:namedview>
  <metadata
     id="metadata5">
    <rdf:RDF>
      <cc:Work
         rdf:about="">
        <dc:format>image/svg+xml</dc:format>
        <dc:type
           rdf:resource="http://purl.org/dc/dcmitype/StillImage" />
        <dc:title />
      </cc:Work>
    </rdf:RDF>
  </metadata>
  <g
     transform="translate(92.549925,-107.24902)"
     id="layer1"
     inkscape:groupmode="layer"
     inkscape:label="Layer 1">
    <rect
       y="70.542931"
       x="-169.13148"
       height="195.73196"
       width="593.68384"
       id="rect1106"
       style="fill:#ffffff;stroke:none;stroke-width:0.793747;stop-color:#000000" />
    <path
       style="font-variation-settings:normal;opacity:1;vector-effect:none;fill:none;fill-opacity:1;stroke:#8c8c8c;stroke-width:0.793747;stroke-linecap:butt;stroke-linejoin:miter;stroke-miterlimit:4;stroke-dasharray:none;stroke-dashoffset:0;stroke-opacity:1;stop-color:#000000;stop-opacity:1"
       d="m 295.42911,153.7081 h 13.23055 v 15.875 H -24.187741 v 15.87422 h 13.230537"
       id="path1540" />
    <path
       style="font-variation-settings:normal;opacity:1;vector-effect:none;fill:none;fill-opacity:1;stroke:#8c8c8c;stroke-width:0.793747;stroke-linecap:butt;stroke-linejoin:miter;stroke-miterlimit:4;stroke-dasharray:none;stroke-dashoffset:0;stroke-opacity:1;stop-color:#000000;stop-opacity:1"
       d="m 295.42911,121.95808 h 13.23055 v 15.87501 H -24.187741 v 15.87501 h 13.23054"
       id="path1518" />
    <path
       style="font-variation-settings:normal;opacity:1;vector-effect:none;fill:none;fill-opacity:1;stroke:#8c8c8c;stroke-width:0.793747;stroke-linecap:butt;stroke-linejoin:miter;stroke-miterlimit:4;stroke-dasharray:none;stroke-dashoffset:0;stroke-opacity:1;stop-color:#000000;stop-opacity:1"
       d="m -57.499838,134.68277 v 73.32348 H 262.16901 v -13.36282"
       id="path1484" />
    <path
       style="fill:none;stroke:#8c8c8c;stroke-width:0.793747;stroke-linecap:butt;stroke-linejoin:miter;stroke-miterlimit:4;stroke-dasharray:none;stroke-opacity:1"
       d="m -24.187743,121.95808 h 13.23054"
       id="path959" />
    <path
       id="path911"
       d="m 215.52492,121.95808 h 13.23054"
       style="fill:none;stroke:#8c8c8c;stroke-width:0.793747;stroke-linecap:butt;stroke-linejoin:miter;stroke-miterlimit:4;stroke-dasharray:none;stroke-opacity:1" />
    <path
       style="fill:none;stroke:#8c8c8c;stroke-width:0.793747;stroke-linecap:butt;stroke-linejoin:miter;stroke-miterlimit:4;stroke-dasharray:none;stroke-opacity:1"
       d="m 135.6207,121.95808 h 13.23054"
       id="path901" />
    <path
       id="path899"
       d="m 55.716447,121.95808 h 13.23054"
       style="fill:none;stroke:#8c8c8c;stroke-width:0.793747;stroke-linecap:butt;stroke-linejoin:miter;stroke-miterlimit:4;stroke-dasharray:none;stroke-opacity:1" />
    <g
       style="fill:#4c72b0"
       id="g860"
       transform="translate(-79.485193,100.47219)">
      <rect
         style="fill:#4c72b0;stroke:#4c72b0;stroke-width:1.32291;stroke-linecap:round;stroke-miterlimit:4;stroke-dasharray:none"
         id="rect854"
         width="66.131432"
         height="18.372215"
         x="68.875847"
         y="12.299784" />
      <text
         xml:space="preserve"
         style="font-style:normal;font-variant:normal;font-weight:normal;font-stretch:normal;font-size:10.5833px;line-height:1;font-family:Roboto;-inkscape-font-specification:'Roboto, Normal';font-variant-ligatures:normal;font-variant-caps:normal;font-variant-numeric:normal;font-feature-settings:normal;text-align:start;letter-spacing:0px;word-spacing:0px;writing-mode:lr-tb;text-anchor:start;fill:#ffffff;fill-opacity:1;stroke:none;stroke-width:0.264583"
         x="78.180817"
         y="25.247923"
         id="text858"><tspan
           sodipodi:role="line"
           id="tspan856"
           x="78.180817"
           y="25.247923"
           style="fill:#ffffff;stroke-width:0.264583">CONV PW</tspan></text>
    </g>
    <g
       transform="translate(0.419027,100.47219)"
       id="g868">
      <rect
         y="12.299784"
         x="68.875847"
         height="18.372215"
         width="66.131432"
         id="rect862"
         style="fill:#dd8452;stroke:#dd8452;stroke-width:1.32291;stroke-linecap:round;stroke-miterlimit:4;stroke-dasharray:none" />
      <text
         id="text866"
         y="25.247923"
         x="69.863518"
         style="font-style:normal;font-variant:normal;font-weight:normal;font-stretch:normal;font-size:10.5833px;line-height:1;font-family:Roboto;-inkscape-font-specification:'Roboto, Normal';font-variant-ligatures:normal;font-variant-caps:normal;font-variant-numeric:normal;font-feature-settings:normal;text-align:start;letter-spacing:0px;word-spacing:0px;writing-mode:lr-tb;text-anchor:start;fill:#ffffff;fill-opacity:1;stroke:none;stroke-width:0.264583"
         xml:space="preserve"><tspan
           style="fill:#ffffff;stroke-width:0.264583"
           y="25.247923"
           x="69.863518"
           id="tspan864"
           sodipodi:role="line">BATCHNORM</tspan></text>
    </g>
    <g
       id="g876"
       transform="translate(80.323247,100.47219)">
      <rect
         style="fill:#55a868;stroke:#55a868;stroke-width:1.32291;stroke-linecap:round;stroke-miterlimit:4;stroke-dasharray:none"
         id="rect870"
         width="66.131432"
         height="18.372215"
         x="68.875847"
         y="12.299784" />
      <text
         xml:space="preserve"
         style="font-style:normal;font-variant:normal;font-weight:normal;font-stretch:normal;font-size:10.5833px;line-height:1;font-family:Roboto;-inkscape-font-specification:'Roboto, Normal';font-variant-ligatures:normal;font-variant-caps:normal;font-variant-numeric:normal;font-feature-settings:normal;text-align:start;letter-spacing:0px;word-spacing:0px;writing-mode:lr-tb;text-anchor:start;fill:#ffffff;fill-opacity:1;stroke:none;stroke-width:0.264583"
         x="89.441071"
         y="25.247923"
         id="text874"><tspan
           sodipodi:role="line"
           id="tspan872"
           x="89.441071"
           y="25.247923"
           style="fill:#ffffff;stroke-width:0.264583">RELU</tspan></text>
    </g>
    <path
       style="fill:none;stroke:#8c8c8c;stroke-width:0.793747;stroke-linecap:butt;stroke-linejoin:miter;stroke-miterlimit:4;stroke-dasharray:none;stroke-opacity:1"
       d="m 215.52492,153.7081 h 13.23054"
       id="path1239" />
    <path
       id="path1241"
       d="m 135.6207,153.7081 h 13.23054"
       style="fill:none;stroke:#8c8c8c;stroke-width:0.793747;stroke-linecap:butt;stroke-linejoin:miter;stroke-miterlimit:4;stroke-dasharray:none;stroke-opacity:1" />
    <path
       style="fill:none;stroke:#8c8c8c;stroke-width:0.793747;stroke-linecap:butt;stroke-linejoin:miter;stroke-miterlimit:4;stroke-dasharray:none;stroke-opacity:1"
       d="m 55.716447,153.7081 h 13.23054"
       id="path1243" />
    <g
       transform="translate(-79.485193,132.22221)"
       id="g1251"
       style="fill:#4c72b0">
      <rect
         y="12.299784"
         x="68.875847"
         height="18.372215"
         width="66.131432"
         id="rect1245"
         style="fill:#4c72b0;stroke:#4c72b0;stroke-width:1.32291;stroke-linecap:round;stroke-miterlimit:4;stroke-dasharray:none" />
      <text
         id="text1249"
         y="25.247923"
         x="78.046455"
         style="font-style:normal;font-variant:normal;font-weight:normal;font-stretch:normal;font-size:10.5833px;line-height:1;font-family:Roboto;-inkscape-font-specification:'Roboto, Normal';font-variant-ligatures:normal;font-variant-caps:normal;font-variant-numeric:normal;font-feature-settings:normal;text-align:start;letter-spacing:0px;word-spacing:0px;writing-mode:lr-tb;text-anchor:start;fill:#ffffff;fill-opacity:1;stroke:none;stroke-width:0.264583"
         xml:space="preserve"><tspan
           style="fill:#ffffff;stroke-width:0.264583"
           y="25.247923"
           x="78.046455"
           id="tspan1247"
           sodipodi:role="line">CONV DW</tspan></text>
    </g>
    <g
       id="g1259"
       transform="translate(0.419027,132.22221)">
      <rect
         style="fill:#dd8452;stroke:#dd8452;stroke-width:1.32291;stroke-linecap:round;stroke-miterlimit:4;stroke-dasharray:none"
         id="rect1253"
         width="66.131432"
         height="18.372215"
         x="68.875847"
         y="12.299784" />
      <text
         xml:space="preserve"
         style="font-style:normal;font-variant:normal;font-weight:normal;font-stretch:normal;font-size:10.5833px;line-height:1;font-family:Roboto;-inkscape-font-specification:'Roboto, Normal';font-variant-ligatures:normal;font-variant-caps:normal;font-variant-numeric:normal;font-feature-settings:normal;text-align:start;letter-spacing:0px;word-spacing:0px;writing-mode:lr-tb;text-anchor:start;fill:#ffffff;fill-opacity:1;stroke:none;stroke-width:0.264583"
         x="69.863518"
         y="25.247923"
         id="text1257"><tspan
           sodipodi:role="line"
           id="tspan1255"
           x="69.863518"
           y="25.247923"
           style="fill:#ffffff;stroke-width:0.264583">BATCHNORM</tspan></text>
    </g>
    <g
       transform="translate(80.323247,132.22221)"
       id="g1267">
      <rect
         y="12.299784"
         x="68.875847"
         height="18.372215"
         width="66.131432"
         id="rect1261"
         style="fill:#55a868;stroke:#55a868;stroke-width:1.32291;stroke-linecap:round;stroke-miterlimit:4;stroke-dasharray:none" />
      <text
         id="text1265"
         y="25.247923"
         x="89.441071"
         style="font-style:normal;font-variant:normal;font-weight:normal;font-stretch:normal;font-size:10.5833px;line-height:1;font-family:Roboto;-inkscape-font-specification:'Roboto, Normal';font-variant-ligatures:normal;font-variant-caps:normal;font-variant-numeric:normal;font-feature-settings:normal;text-align:start;letter-spacing:0px;word-spacing:0px;writing-mode:lr-tb;text-anchor:start;fill:#ffffff;fill-opacity:1;stroke:none;stroke-width:0.264583"
         xml:space="preserve"><tspan
           style="fill:#ffffff;stroke-width:0.264583"
           y="25.247923"
           x="89.441071"
           id="tspan1263"
           sodipodi:role="line">RELU</tspan></text>
    </g>
    <path
       id="path1308"
       d="m 215.52492,185.45732 h 13.23054"
       style="fill:none;stroke:#8c8c8c;stroke-width:0.793747;stroke-linecap:butt;stroke-linejoin:miter;stroke-miterlimit:4;stroke-dasharray:none;stroke-opacity:1" />
    <path
       style="fill:none;stroke:#8c8c8c;stroke-width:0.793747;stroke-linecap:butt;stroke-linejoin:miter;stroke-miterlimit:4;stroke-dasharray:none;stroke-opacity:1"
       d="m 135.6207,185.45732 h 13.23054"
       id="path1310" />
    <path
       id="path1312"
       d="m 55.716447,185.45732 h 13.23054"
       style="fill:none;stroke:#8c8c8c;stroke-width:0.793747;stroke-linecap:butt;stroke-linejoin:miter;stroke-miterlimit:4;stroke-dasharray:none;stroke-opacity:1" />
    <g
       style="fill:#4c72b0"
       id="g1320"
       transform="translate(-79.485193,163.97143)">
      <rect
         style="fill:#4c72b0;stroke:#4c72b0;stroke-width:1.32291;stroke-linecap:round;stroke-miterlimit:4;stroke-dasharray:none"
         id="rect1314"
         width="66.131432"
         height="18.372215"
         x="68.875847"
         y="12.299784" />
      <text
         xml:space="preserve"
         style="font-style:normal;font-variant:normal;font-weight:normal;font-stretch:normal;font-size:10.5833px;line-height:1;font-family:Roboto;-inkscape-font-specification:'Roboto, Normal';font-variant-ligatures:normal;font-variant-caps:normal;font-variant-numeric:normal;font-feature-settings:normal;text-align:start;letter-spacing:0px;word-spacing:0px;writing-mode:lr-tb;text-anchor:start;fill:#ffffff;fill-opacity:1;stroke:none;stroke-width:0.264583"
         x="78.180817"
         y="25.247923"
         id="text1318"><tspan
           sodipodi:role="line"
           id="tspan1316"
           x="78.180817"
           y="25.247923"
           style="fill:#ffffff;stroke-width:0.264583">CONV PW</tspan></text>
    </g>
    <g
       transform="translate(0.419027,163.97143)"
       id="g1328">
      <rect
         y="12.299784"
         x="68.875847"
         height="18.372215"
         width="66.131432"
         id="rect1322"
         style="fill:#dd8452;stroke:#dd8452;stroke-width:1.32291;stroke-linecap:round;stroke-miterlimit:4;stroke-dasharray:none" />
      <text
         id="text1326"
         y="25.247923"
         x="69.863518"
         style="font-style:normal;font-variant:normal;font-weight:normal;font-stretch:normal;font-size:10.5833px;line-height:1;font-family:Roboto;-inkscape-font-specification:'Roboto, Normal';font-variant-ligatures:normal;font-variant-caps:normal;font-variant-numeric:normal;font-feature-settings:normal;text-align:start;letter-spacing:0px;word-spacing:0px;writing-mode:lr-tb;text-anchor:start;fill:#ffffff;fill-opacity:1;stroke:none;stroke-width:0.264583"
         xml:space="preserve"><tspan
           style="fill:#ffffff;stroke-width:0.264583"
           y="25.247923"
           x="69.863518"
           id="tspan1324"
           sodipodi:role="line">BATCHNORM</tspan></text>
    </g>
    <g
       id="g1336"
       transform="translate(80.323247,163.97143)">
      <rect
         style="fill:#55a868;stroke:#55a868;stroke-width:1.32291;stroke-linecap:round;stroke-miterlimit:4;stroke-dasharray:none"
         id="rect1330"
         width="66.131432"
         height="18.372215"
         x="68.875847"
         y="12.299784" />
      <text
         xml:space="preserve"
         style="font-style:normal;font-variant:normal;font-weight:normal;font-stretch:normal;font-size:10.5833px;line-height:1;font-family:Roboto;-inkscape-font-specification:'Roboto, Normal';font-variant-ligatures:normal;font-variant-caps:normal;font-variant-numeric:normal;font-feature-settings:normal;text-align:start;letter-spacing:0px;word-spacing:0px;writing-mode:lr-tb;text-anchor:start;fill:#ffffff;fill-opacity:1;stroke:none;stroke-width:0.264583"
         x="89.441071"
         y="25.247923"
         id="text1334"><tspan
           sodipodi:role="line"
           id="tspan1332"
           x="89.441071"
           y="25.247923"
           style="fill:#ffffff;stroke-width:0.264583">RELU</tspan></text>
    </g>
    <g
       id="g905"
       transform="translate(-159.4414,104.01077)">
      <rect
         style="fill:none;stroke:#000000;stroke-width:1.32291;stroke-linecap:round;stroke-miterlimit:4;stroke-dasharray:none"
         id="rect833-3"
         width="66.131432"
         height="25.449381"
         x="68.875847"
         y="5.2226191" />
      <text
         xml:space="preserve"
         style="font-style:normal;font-variant:normal;font-weight:normal;font-stretch:normal;font-size:10.5833px;line-height:1;font-family:Roboto;-inkscape-font-specification:'Roboto, Normal';font-variant-ligatures:normal;font-variant-caps:normal;font-variant-numeric:normal;font-feature-settings:normal;text-align:start;letter-spacing:0px;word-spacing:0px;writing-mode:lr-tb;text-anchor:start;fill:#000000;fill-opacity:1;stroke:none;stroke-width:0.264583"
         x="86.454185"
         y="17.787907"
         id="text839-6"><tspan
           sodipodi:role="line"
           id="tspan837-7"
           x="86.454185"
           y="17.787907"
           style="fill:#000000;stroke-width:0.264583">INPUT</tspan></text>
      <text
         id="text872"
         y="27.807053"
         x="90.247871"
         style="font-style:normal;font-variant:normal;font-weight:normal;font-stretch:normal;font-size:4.93889px;line-height:1;font-family:Roboto;-inkscape-font-specification:'Roboto, Normal';font-variant-ligatures:normal;font-variant-caps:normal;font-variant-numeric:normal;font-feature-settings:normal;text-align:start;letter-spacing:0px;word-spacing:0px;writing-mode:lr-tb;text-anchor:start;fill:#000000;fill-opacity:1;stroke:none;stroke-width:0.264583"
         xml:space="preserve"><tspan
           style="font-size:4.93889px;fill:#8c8c8c;stroke-width:0.264583"
           y="27.807053"
           x="90.247871"
           id="tspan870"
           sodipodi:role="line">in_channel</tspan></text>
    </g>
    <g
       transform="translate(160.17536,104.01077)"
       id="g1410">
      <rect
         y="5.2226191"
         x="68.875847"
         height="25.449381"
         width="66.131432"
         id="rect1400"
         style="fill:none;stroke:#8c8c8c;stroke-width:1.32291;stroke-linecap:round;stroke-miterlimit:4;stroke-dasharray:none" />
      <text
         id="text1404"
         y="17.787907"
         x="75.330872"
         style="font-style:normal;font-variant:normal;font-weight:normal;font-stretch:normal;font-size:10.5833px;line-height:1;font-family:Roboto;-inkscape-font-specification:'Roboto, Normal';font-variant-ligatures:normal;font-variant-caps:normal;font-variant-numeric:normal;font-feature-settings:normal;text-align:start;letter-spacing:0px;word-spacing:0px;writing-mode:lr-tb;text-anchor:start;fill:#000000;fill-opacity:1;stroke:none;stroke-width:0.264583"
         xml:space="preserve"><tspan
           style="fill:#000000;stroke-width:0.264583"
           y="17.787907"
           x="75.330872"
           id="tspan1402"
           sodipodi:role="line">EXPANDED</tspan></text>
      <text
         xml:space="preserve"
         style="font-style:normal;font-variant:normal;font-weight:normal;font-stretch:normal;font-size:4.93889px;line-height:1;font-family:Roboto;-inkscape-font-specification:'Roboto, Normal';font-variant-ligatures:normal;font-variant-caps:normal;font-variant-numeric:normal;font-feature-settings:normal;text-align:start;letter-spacing:0px;word-spacing:0px;writing-mode:lr-tb;text-anchor:start;fill:#000000;fill-opacity:1;stroke:none;stroke-width:0.264583"
         x="76.509171"
         y="27.807053"
         id="text1408"><tspan
           sodipodi:role="line"
           id="tspan1406"
           x="76.509171"
           y="27.807053"
           style="font-size:4.93889px;fill:#8c8c8c;stroke-width:0.264583">in_channel x expansion</tspan></text>
    </g>
    <g
       id="g1424"
       transform="translate(160.17536,135.76079)">
      <rect
         style="fill:none;stroke:#8c8c8c;stroke-width:1.32291;stroke-linecap:round;stroke-miterlimit:4;stroke-dasharray:none"
         id="rect1414"
         width="66.131432"
         height="25.449381"
         x="68.875847"
         y="5.2226191" />
      <text
         xml:space="preserve"
         style="font-style:normal;font-variant:normal;font-weight:normal;font-stretch:normal;font-size:10.5833px;line-height:1;font-family:Roboto;-inkscape-font-specification:'Roboto, Normal';font-variant-ligatures:normal;font-variant-caps:normal;font-variant-numeric:normal;font-feature-settings:normal;text-align:start;letter-spacing:0px;word-spacing:0px;writing-mode:lr-tb;text-anchor:start;fill:#000000;fill-opacity:1;stroke:none;stroke-width:0.264583"
         x="72.654037"
         y="17.787907"
         id="text1418"><tspan
           sodipodi:role="line"
           id="tspan1416"
           x="72.654037"
           y="17.787907"
           style="fill:#000000;stroke-width:0.264583">DEPTHWISE</tspan></text>
      <text
         id="text1422"
         y="27.807053"
         x="76.509171"
         style="font-style:normal;font-variant:normal;font-weight:normal;font-stretch:normal;font-size:4.93889px;line-height:1;font-family:Roboto;-inkscape-font-specification:'Roboto, Normal';font-variant-ligatures:normal;font-variant-caps:normal;font-variant-numeric:normal;font-feature-settings:normal;text-align:start;letter-spacing:0px;word-spacing:0px;writing-mode:lr-tb;text-anchor:start;fill:#000000;fill-opacity:1;stroke:none;stroke-width:0.264583"
         xml:space="preserve"><tspan
           style="font-size:4.93889px;fill:#8c8c8c;stroke-width:0.264583"
           y="27.807053"
           x="76.509171"
           id="tspan1420"
           sodipodi:role="line">in_channel x expansion</tspan></text>
    </g>
    <path
       style="fill:none;stroke:#8c8c8c;stroke-width:0.793747;stroke-linecap:butt;stroke-linejoin:miter;stroke-miterlimit:4;stroke-dasharray:none;stroke-opacity:1"
       d="m 295.42911,185.45732 h 13.23054"
       id="path1462" />
    <g
       transform="translate(240.07955,167.51001)"
       id="g1458">
      <rect
         y="5.2226191"
         x="68.875847"
         height="25.449381"
         width="66.131432"
         id="rect1448"
         style="fill:none;stroke:#000000;stroke-width:1.32291;stroke-linecap:round;stroke-miterlimit:4;stroke-dasharray:none" />
      <text
         id="text1452"
         y="17.787907"
         x="81.599197"
         style="font-style:normal;font-variant:normal;font-weight:normal;font-stretch:normal;font-size:10.5833px;line-height:1;font-family:Roboto;-inkscape-font-specification:'Roboto, Normal';font-variant-ligatures:normal;font-variant-caps:normal;font-variant-numeric:normal;font-feature-settings:normal;text-align:start;letter-spacing:0px;word-spacing:0px;writing-mode:lr-tb;text-anchor:start;fill:#000000;fill-opacity:1;stroke:none;stroke-width:0.264583"
         xml:space="preserve"><tspan
           style="fill:#000000;stroke-width:0.264583"
           y="17.787907"
           x="81.599197"
           id="tspan1450"
           sodipodi:role="line">OUTPUT</tspan></text>
      <text
         xml:space="preserve"
         style="font-style:normal;font-variant:normal;font-weight:normal;font-stretch:normal;font-size:4.93889px;line-height:1;font-family:Roboto;-inkscape-font-specification:'Roboto, Normal';font-variant-ligatures:normal;font-variant-caps:normal;font-variant-numeric:normal;font-feature-settings:normal;text-align:start;letter-spacing:0px;word-spacing:0px;writing-mode:lr-tb;text-anchor:start;fill:#000000;fill-opacity:1;stroke:none;stroke-width:0.264583"
         x="88.697235"
         y="27.807053"
         id="text1456"><tspan
           sodipodi:role="line"
           id="tspan1454"
           x="88.697235"
           y="27.807053"
           style="font-size:4.93889px;fill:#8c8c8c;stroke-width:0.264583">out_channel</tspan></text>
    </g>
    <g
       transform="translate(160.22742,163.97143)"
       id="g1470">
      <rect
         y="12.299784"
         x="68.875847"
         height="18.372215"
         width="66.131432"
         id="rect1464"
         style="fill:#c44e52;stroke:#c44e52;stroke-width:1.32291;stroke-linecap:round;stroke-miterlimit:4;stroke-dasharray:none" />
      <text
         id="text1468"
         y="25.247923"
         x="90.981026"
         style="font-style:normal;font-variant:normal;font-weight:normal;font-stretch:normal;font-size:10.5833px;line-height:1;font-family:Roboto;-inkscape-font-specification:'Roboto, Normal';font-variant-ligatures:normal;font-variant-caps:normal;font-variant-numeric:normal;font-feature-settings:normal;text-align:start;letter-spacing:0px;word-spacing:0px;writing-mode:lr-tb;text-anchor:start;fill:#ffffff;fill-opacity:1;stroke:none;stroke-width:0.264583"
         xml:space="preserve"><tspan
           style="fill:#ffffff;stroke-width:0.264583"
           y="25.247923"
           x="90.981026"
           id="tspan1466"
           sodipodi:role="line">SUM</tspan></text>
    </g>
    <text
       xml:space="preserve"
       style="font-style:normal;font-variant:normal;font-weight:normal;font-stretch:normal;font-size:5.64444px;line-height:1;font-family:Roboto;-inkscape-font-specification:'Roboto, Normal';font-variant-ligatures:normal;font-variant-caps:normal;font-variant-numeric:normal;font-feature-settings:normal;text-align:start;letter-spacing:0px;word-spacing:0px;writing-mode:lr-tb;text-anchor:start;fill:#000000;fill-opacity:1;stroke:none;stroke-width:0.264583"
       x="44.05188"
       y="213.93845"
       id="text1502"><tspan
         sodipodi:role="line"
         id="tspan1500"
         x="44.05188"
         y="213.93845"
         style="font-size:5.64444px;fill:#8c8c8c;stroke-width:0.264583">if in_channels == out_channels AND stride == 1</tspan></text>
    <path
       style="fill:none;stroke:#8c8c8c;stroke-width:0.793747;stroke-linecap:butt;stroke-linejoin:miter;stroke-miterlimit:4;stroke-dasharray:none;stroke-opacity:1"
       d="m -24.187743,153.7081 h 13.23054"
       id="path1277" />
  </g>
</svg>
